<?xml version="1.0" encoding="UTF-8" standalone="no"?>
<!DOCTYPE svg PUBLIC "-//W3C//DTD SVG 1.1//EN" "http://www.w3.org/Graphics/SVG/1.1/DTD/svg11.dtd">
<svg width="100%" height="100%" viewBox="0 0 108 108" version="1.1" xmlns="http://www.w3.org/2000/svg" xmlns:xlink="http://www.w3.org/1999/xlink" xml:space="preserve" xmlns:serif="http://www.serif.com/" style="fill-rule:evenodd;clip-rule:evenodd;stroke-linejoin:round;stroke-miterlimit:2;">
    <g transform="matrix(1,0,0,1,-780,-1480)">
        <g>
            <g transform="matrix(3.34157,0,0,3.34157,780.733,1505.65)">
                <path d="M2.11,15.773C2.11,15.905 1.995,16 1.881,16L0.247,16C0.114,16 0,15.905 0,15.773L0,1.229C0,1.134 0.114,1.02 0.247,1.02L1.882,1.02C1.996,1.02 2.11,1.134 2.11,1.229L2.11,15.773L2.11,15.773ZM6.385,15.773C6.385,15.905 6.271,16 6.156,16L4.523,16C4.39,16 4.276,15.905 4.276,15.773L4.276,1.229C4.276,1.134 4.39,1.02 4.523,1.02L6.157,1.02C6.271,1.02 6.386,1.134 6.386,1.229L6.386,15.773L6.385,15.773ZM10.661,15.773C10.661,15.905 10.547,16 10.432,16L8.798,16C8.665,16 8.551,15.905 8.551,15.773L8.551,1.229C8.551,1.134 8.665,1.02 8.798,1.02L10.432,1.02C10.547,1.02 10.661,1.134 10.661,1.229L10.661,15.773ZM14.955,15.773C14.955,15.905 14.841,16 14.727,16L13.093,16C12.96,16 12.845,15.905 12.845,15.773L12.845,1.229C12.845,1.134 12.96,1.02 13.093,1.02L14.727,1.02C14.841,1.02 14.955,1.134 14.955,1.229L14.955,15.773ZM31.772,1C31.905,1 32,1.115 32,1.229L32,2.868C32,3.002 31.905,3.116 31.772,3.116L17.273,3.116C17.178,3.116 17.065,3.002 17.065,2.868L17.065,1.229C17.065,1.115 17.179,1 17.273,1L31.772,1ZM31.772,5.308C31.905,5.308 32,5.423 32,5.537L32,7.176C32,7.309 31.905,7.424 31.772,7.424L17.273,7.424C17.178,7.424 17.065,7.309 17.065,7.176L17.065,5.537C17.065,5.422 17.179,5.308 17.273,5.308L31.772,5.308ZM31.772,9.597C31.905,9.597 32,9.711 32,9.825L32,11.464C32,11.599 31.905,11.713 31.772,11.713L17.273,11.713C17.178,11.713 17.065,11.599 17.065,11.464L17.065,9.825C17.065,9.71 17.179,9.597 17.273,9.597L31.772,9.597ZM31.772,13.884C31.905,13.884 32,13.999 32,14.113L32,15.752C32,15.886 31.905,16 31.772,16L17.273,16C17.178,16 17.065,15.886 17.065,15.752L17.065,14.113C17.065,13.999 17.179,13.884 17.273,13.884L31.772,13.884Z" style="fill-rule:nonzero;"/>
            </g>
            <g transform="matrix(0.911155,0,0,0.911155,439.365,253.47)">
                <rect x="374.654" y="1346.77" width="117.357" height="117.357" style="fill:none;"/>
            </g>
        </g>
    </g>
</svg>
