<?xml version="1.0" encoding="UTF-8" standalone="no"?>
<!DOCTYPE svg PUBLIC "-//W3C//DTD SVG 1.1//EN" "http://www.w3.org/Graphics/SVG/1.1/DTD/svg11.dtd">
<svg width="100%" height="100%" viewBox="0 0 108 108" version="1.1" xmlns="http://www.w3.org/2000/svg" xmlns:xlink="http://www.w3.org/1999/xlink" xml:space="preserve" xmlns:serif="http://www.serif.com/" style="fill-rule:evenodd;clip-rule:evenodd;stroke-linejoin:round;stroke-miterlimit:2;">
    <g transform="matrix(1,0,0,1,-532,-1480)">
        <g>
            <g transform="matrix(3.96038,0,0,3.96038,532.62,1485.41)">
                <path d="M10.539,1L14.791,1L15.147,1.605L16.365,1.605L27,19.598L24.71,23.411L15.402,23.411L16.345,25L15.934,25L14.991,23.411L3.437,23.411L2.845,22.397L2.114,22.397L0,18.821L0.004,18.821L2.714,14.231L5.223,12.819L9.376,5.797L8.54,4.384L10.539,1ZM13.044,7.21L5.699,19.602L12.729,19.602L11.917,18.232L19.579,18.24L13.044,7.21Z" style="fill-rule:nonzero;"/>
            </g>
            <g transform="matrix(0.911155,0,0,0.911155,191.252,253.47)">
                <rect x="374.654" y="1346.77" width="117.357" height="117.357" style="fill:none;"/>
            </g>
        </g>
    </g>
</svg>
