<?xml version="1.0" encoding="UTF-8" standalone="no"?>
<!DOCTYPE svg PUBLIC "-//W3C//DTD SVG 1.1//EN" "http://www.w3.org/Graphics/SVG/1.1/DTD/svg11.dtd">
<svg width="100%" height="100%" viewBox="0 0 1296 1062" version="1.1" xmlns="http://www.w3.org/2000/svg" xmlns:xlink="http://www.w3.org/1999/xlink" xml:space="preserve" xmlns:serif="http://www.serif.com/" style="fill-rule:evenodd;clip-rule:evenodd;stroke-linejoin:round;stroke-miterlimit:2;">
    <g transform="matrix(1,0,0,1,-3334,-270)">
        <g transform="matrix(1,0,0,1,-0.648294,0)">
            <g transform="matrix(1.62082,0,0,1.62082,3389.98,-598.29)">
                <g transform="matrix(2,0,0,2,539.52,849.49)">
                    <path d="M0,-39.687C0,-39.687 -2.708,-32.955 5.14,-29.419C12.989,-25.883 14.946,-26.008 16.815,-19.402C18.684,-12.795 8.545,-7.257 1.586,-7.257C-1.357,-7.257 -0.093,-4.188 0,-2.792C0.094,-1.396 0.418,0 3.969,-0.838C7.519,-1.675 18.55,-5.806 20.979,-8.76C23.156,-11.407 23.261,-13.539 23.355,-16.517C23.378,-17.262 23.617,-18.217 23.935,-19.047C24.89,-21.538 20.831,-23.397 23.704,-24.304C27.535,-25.514 24.92,-25.613 24.92,-25.613L22.853,-27.044C22.853,-27.044 21.929,-28.66 19.138,-28.66C18.282,-28.66 16.749,-29.785 15.352,-30.734C11.49,-33.36 8.367,-34.319 6.166,-36.125C2.989,-38.731 0,-39.687 0,-39.687" style="fill:white;fill-rule:nonzero;"/>
                </g>
                <g transform="matrix(2,0,0,2,577.77,834.485)">
                    <path d="M0,-22.785C2.791,-22.785 9.449,-26.693 9.449,-26.693L10.8,-25.058L12.164,-26.849C12.047,-25.878 12.129,-24.497 12.325,-23.038C12.579,-22.423 13.02,-21.14 12.89,-19.917C12.98,-19.518 13.073,-19.128 13.17,-18.762C13.85,-16.196 12.612,-11.755 12.53,-6.365C12.448,-0.975 14.711,0.162 15.764,1.974C16.817,3.787 16.784,4.064 14.697,3.815C12.609,3.567 9.795,-2.391 10.191,-3.046C10.508,-3.573 10.568,-5.541 10.579,-6.296C10.531,-5.825 10.235,-4.971 8.703,-5.051C6.599,-5.16 5.945,-10.299 6.106,-11.638C6.266,-12.978 8.811,-13.018 8.811,-13.018C8.811,-13.018 8.699,-14.608 8.445,-16.201C6.769,-15.005 5.487,-13.266 4.797,-11.544C3.667,-12.163 1.957,-13.398 -0.314,-15.876C-3.317,-19.151 -3.79,-21.842 -3.786,-23.23C-2.196,-22.944 -0.827,-22.785 0,-22.785" style="fill-rule:nonzero;"/>
                </g>
                <g transform="matrix(2,0,0,2,128.549,1064.93)">
                    <path d="M0,-99.1C17.427,-99.1 33.572,-93.635 46.806,-84.335L62.364,-105.326L59.576,-114.995L55.882,-113.939L54.967,-117.113L58.466,-118.113L52.673,-138.206C51.002,-139.906 47.897,-137.437 47.711,-138.74C47.524,-140.043 45.094,-143.951 45.094,-143.951L43.973,-145.714C43.973,-145.714 43.133,-145.905 38.555,-145.719C33.977,-145.533 32.108,-150.371 32.108,-150.371C32.108,-150.371 26.876,-151.581 24.727,-152.326C22.578,-153.07 18.654,-153.07 18,-153.163C17.346,-153.256 16.132,-153.907 16.225,-156.483C16.319,-159.058 17.72,-159.304 21.644,-160.607C25.568,-161.91 38.181,-160.328 43.039,-159.584C47.897,-158.839 70.6,-158.653 71.441,-158.746C72.282,-158.839 79.196,-158.002 82.746,-156.327C86.296,-154.652 87.093,-153.215 87.511,-151.86C87.885,-150.651 87.511,-149.999 82.839,-150.93C78.168,-151.86 76.58,-151.302 71.721,-151.395C66.863,-151.488 60.323,-148.231 57.894,-147.394C55.465,-146.556 52.662,-146.37 52.662,-146.37C52.662,-146.37 53.129,-144.974 53.316,-144.602C53.503,-144.23 56.119,-143.486 57.24,-143.206C57.984,-143.021 58.708,-141.234 59.113,-140.048L59.139,-140.055L59.392,-139.177C59.425,-139.065 59.443,-139 59.443,-138.997L64.829,-120.317L65.54,-120.52L65.642,-120.166L66.012,-120.271L66.927,-117.098L66.557,-116.992L67.961,-112.122L185.71,-122.076C185.421,-122.775 185.117,-123.475 184.795,-124.174C184.521,-124.767 183.999,-127.202 183.999,-127.202L183.999,-130.697L184.005,-130.699L182.355,-135.41C179.77,-134.512 179.103,-138.04 179.368,-138.747C179.867,-140.073 182.037,-141.043 179.584,-141.483C178.063,-141.756 176.878,-144.858 178.673,-145.696C180.857,-146.714 185.75,-148.278 187.672,-147.485C188.827,-147.008 190.474,-147.104 191.608,-147.257L198.702,-148.515C199.646,-148.86 200.488,-149.224 201.213,-149.509L203.152,-152.66L203.503,-151.437C203.529,-151.345 203.571,-151.262 203.6,-151.173C204.123,-151.793 204.502,-152.388 204.67,-152.503C204.997,-152.726 206.258,-152.651 206.678,-152.744C207.099,-152.837 207.099,-151.953 207.099,-151.953C207.099,-151.953 207.659,-151.907 207.659,-152.186C207.659,-152.465 207.799,-152.837 208.874,-153.023C209.948,-153.21 209.995,-152.512 209.995,-152.512L209.301,-150.314C210.083,-150.331 210.742,-150.232 210.742,-150.232L217.002,-150.278C217.002,-150.278 215.741,-148.446 215.367,-147.701C215.118,-147.205 214.217,-147.032 213.545,-146.929C213.221,-146.879 212.865,-145.153 212.784,-144.837C212.445,-143.512 211.174,-141.005 210.582,-139.876C210.392,-139.512 210.041,-139.262 209.635,-139.198L204.931,-138.461C203.394,-140.343 201.294,-140.5 200.017,-140.384L198.885,-140.183L191.407,-138.857L191.128,-138.458L192.839,-133.572L192.851,-133.576L195.42,-130.412L196.541,-127.62C196.541,-127.62 197.102,-121.989 199.905,-113.616C202.708,-105.243 203.408,-104.311 203.408,-104.311L204.389,-101.101L203.163,-100.56L203.829,-99.1L206.474,-93.142C215.932,-96.98 226.277,-99.1 237.12,-99.1C282.011,-99.1 318.403,-62.855 318.403,-18.145C318.403,26.565 282.011,62.81 237.12,62.81C192.229,62.81 155.838,26.565 155.838,-18.145C155.838,-48.243 172.33,-74.502 196.803,-88.453C195.091,-92.868 193.8,-96.356 193.306,-97.703L192.571,-97.472L191.192,-101.143L118.938,-16.879C122.146,-12.712 124.06,-7.506 124.06,-1.861C124.06,11.773 112.922,22.865 99.232,22.865L99.191,22.865L71.207,20.915C57.366,45.891 30.668,62.81 0,62.81C-44.891,62.81 -81.282,26.565 -81.282,-18.145C-81.282,-62.855 -44.891,-99.1 0,-99.1M189.59,-137.923L190.671,-138.299C190.403,-138.206 190.039,-138.079 189.59,-137.923M183.758,-135.898L184.309,-136.089C184.119,-136.023 183.937,-135.96 183.758,-135.898M185.364,-136.455L185.717,-136.578C185.598,-136.537 185.481,-136.496 185.364,-136.455M169.852,-18.145C169.852,-14.141 170.208,-10.219 170.887,-6.406L181.193,-7.244L219.647,-10.194L226.54,-10.722L227.479,-12.168C226.392,-13.904 225.753,-15.948 225.753,-18.145C225.753,-18.93 225.834,-19.695 225.986,-20.435L224.246,-23.04L220.398,-23.355L201.178,-24.926L181.959,-26.497L170.509,-27.486C170.079,-24.432 169.852,-21.315 169.852,-18.145M225.119,-3.781L231.15,-7.146L231.331,-8.415C230.477,-8.92 229.692,-9.526 229.002,-10.228L227.019,-10.045L225.045,-6.902L221.988,-2.033L225.119,-3.781ZM220.982,-0.43L214.82,9.382L204.595,25.666L197.885,36.242C205.398,41.634 214.067,45.523 223.446,47.459L225.177,34.869L227.88,15.853L230.584,-3.164L231.021,-6.241L225.531,-3.063L220.982,-0.43ZM252.165,47.161C261.508,45.027 270.114,40.949 277.531,35.38L272.433,27.662L261.909,11.568L254.048,-0.453L246.334,-4.73L243.608,-6.242L244.614,0.003L250.722,37.931L252.165,47.161ZM246.732,-5.455L252.948,-2.135L251.385,-4.525L247.612,-10.295L245.446,-10.455C244.788,-9.749 244.045,-9.127 243.227,-8.607L243.452,-7.208L246.732,-5.455ZM304.388,-18.145C304.388,-22.181 304.028,-26.135 303.338,-29.977L291.09,-28.269L271.98,-25.692L252.87,-23.116L247.646,-22.412C248.185,-21.094 248.487,-19.656 248.487,-18.145C248.487,-16.096 247.932,-14.179 246.976,-12.521L247.979,-11.038L251.695,-10.822L270.946,-9.7L290.196,-8.578L303.575,-7.736C304.109,-11.129 304.388,-14.605 304.388,-18.145M250.339,-35.367L269.361,-68.783L272.866,-74.874C266.49,-78.874 259.397,-81.837 251.825,-83.525L250.373,-72.961L247.67,-53.945L244.966,-34.928L244.402,-30.959L249.101,-33.193L250.339,-35.367ZM244.283,-30.127L243.873,-27.237C244.31,-26.915 244.729,-26.57 245.116,-26.189L245.584,-27.014L248.434,-32.021L244.283,-30.127ZM246.047,-11.151L247.092,-11.09L246.581,-11.872C246.414,-11.623 246.233,-11.385 246.047,-11.151M227.932,-11.499L227.49,-10.795L228.419,-10.866C228.248,-11.07 228.089,-11.284 227.932,-11.499M226.782,-22.833L225.219,-22.961L226.233,-21.39C226.382,-21.887 226.569,-22.367 226.782,-22.833M243.216,-27.69L243.477,-29.759L242.89,-29.491L241.176,-28.711C241.894,-28.438 242.577,-28.096 243.216,-27.69M246.172,-26.676L245.584,-25.683C246.276,-24.914 246.86,-24.052 247.321,-23.116L252.753,-23.934L271.819,-26.808L290.886,-29.682L303.053,-31.458C301.472,-39.237 298.533,-46.531 294.495,-53.084L286.718,-49.492L269.187,-41.492L251.656,-33.491L249.656,-32.579L246.172,-26.676ZM290.102,-7.154L270.871,-8.575L251.64,-9.997L248.528,-10.227L252.077,-4.982L254.6,-1.252L263.726,3.623L280.719,12.701L292.892,19.276C298.019,11.721 301.64,3.073 303.324,-6.237L290.102,-7.154ZM242.583,-8.217C242.41,-8.123 242.229,-8.042 242.051,-7.956L242.669,-7.626L242.583,-8.217ZM232.035,-8.031L231.981,-7.61L232.411,-7.85C232.284,-7.908 232.159,-7.969 232.035,-8.031M224.345,-7.345L226.041,-9.954L219.717,-9.37L200.516,-7.596L181.314,-5.822L171.169,-4.932C173.031,4.304 176.806,12.858 182.063,20.303L191.473,14.996L208.296,5.607L220.268,-1.074L224.345,-7.345ZM182.088,-27.919L201.28,-26.048L220.472,-24.178L223.696,-23.864L222.322,-25.921L214.373,-37.82L207.832,-41.514L191.056,-50.987L181.827,-56.255C176.248,-48.249 172.375,-38.98 170.735,-28.973L182.088,-27.919ZM223.016,-26.373L224.699,-23.766L227.12,-23.53C227.611,-24.432 228.227,-25.256 228.935,-25.989C227.99,-27.608 226.936,-29.418 225.808,-31.363L224.607,-32.042L216.346,-36.706L223.016,-26.373ZM226.175,-48.762L225.958,-50.161L223.017,-69.142L220.909,-83.171C217.905,-82.428 214.981,-81.485 212.151,-80.354L226.175,-48.762ZM222.398,-83.522L224.435,-69.349L227.078,-50.324L227.805,-45.09L234.842,-29.238C235.578,-29.388 236.34,-29.466 237.12,-29.466C238.227,-29.466 239.293,-29.301 240.304,-29.008L242.602,-30.104L243.579,-30.568L244.143,-35.038L248.953,-73.15L250.351,-83.838C246.072,-84.691 241.648,-85.142 237.12,-85.142C232.064,-85.142 227.138,-84.58 222.398,-83.522M274.11,-74.075L270.602,-68.069L260.83,-51.511L251.058,-34.954L250.376,-33.799L251.304,-34.24L268.707,-42.513L286.111,-50.785L293.697,-54.349C288.615,-62.2 281.931,-68.927 274.11,-74.075M292.02,20.529L280.032,13.954L263.183,4.612L255.796,0.516L262.852,10.946L273.628,26.874L278.717,34.471C283.79,30.484 288.276,25.786 292.02,20.529M250.703,47.479L249.306,38.146L246.549,19.137L243.793,0.128L242.805,-6.687L241.188,-7.583C239.924,-7.1 238.556,-6.824 237.12,-6.824C235.752,-6.824 234.445,-7.077 233.23,-7.519L231.871,-6.732L231.406,-3.054L229.002,16.002L226.597,35.058L224.937,47.748C228.889,48.471 232.961,48.852 237.12,48.852C241.772,48.852 246.315,48.379 250.703,47.479M196.664,35.346L203.385,24.899L213.865,8.777L219.168,0.619L208.857,6.586L192.183,16.235L182.947,21.524C186.825,26.764 191.449,31.424 196.664,35.346M182.701,-57.479L191.773,-52.223L208.397,-42.49L213.089,-39.744L211.64,-41.912L200.959,-57.903L193.534,-69.132C189.48,-65.689 185.841,-61.776 182.701,-57.479M194.709,-70.108L202.159,-58.684L212.587,-42.529L215.173,-38.523L224.989,-32.776C217.418,-45.854 207.077,-64.048 203.829,-71.371C203.255,-72.664 202.68,-73.993 202.111,-75.333C199.523,-73.756 197.052,-72.008 194.709,-70.108M14.596,47.259C23.872,45.207 32.431,41.244 39.837,35.805L34.97,28.437L28.086,17.911L9.704,16.63L10.205,19.743L13.259,38.706L14.596,47.259ZM26.49,15.469L24.446,12.344L16.585,0.322L8.871,-3.955L6.145,-5.466L6.31,-4.441C6.688,-3.659 6.906,-2.786 6.906,-1.861C6.906,-1.599 6.883,-1.342 6.85,-1.088L7.151,0.779L9.324,14.274L26.49,15.469ZM41.577,-70.777L13.966,-33.524L31.245,-41.737L48.648,-50.01L56.878,-53.876C52.771,-60.338 47.588,-66.056 41.577,-70.777M-12.856,-31.266L-16.654,-33.411L-12.111,-26.373L-11.34,-25.178L-10.572,-25.103C-9.9,-26.111 -9.086,-27.017 -8.158,-27.795L-8.297,-28.692L-12.856,-31.266ZM-8.445,-29.642L-8.563,-30.404L-11.504,-49.385L-14.446,-68.367L-16.654,-83.063C-25.663,-80.769 -33.948,-76.657 -41.096,-71.148L-32.969,-58.684L-22.54,-42.529L-17.731,-35.079L-12.441,-31.982L-8.445,-29.642ZM-18.508,-34.457L-29.631,-40.739L-46.406,-50.211L-55.776,-55.559C-60.824,-48.118 -64.408,-39.617 -66.123,-30.468L-55.375,-29.47L-36.183,-27.599L-16.991,-25.729L-12.377,-25.279L-12.806,-25.921L-18.508,-34.457ZM-6.056,-2.279L-6.878,4.232C-6.776,4.226 -6.675,4.216 -6.571,4.216L-6.571,4.345C-6.378,4.262 -6.176,4.182 -5.964,4.105C-3.915,3.361 -1.957,2.641 -0.736,2.19C-2.346,1.543 -3.484,-0.026 -3.484,-1.861C-3.484,-3.443 -2.637,-4.824 -1.373,-5.591C-2.557,-5.718 -3.689,-6.012 -4.753,-6.442L-5.592,-5.957L-6.056,-2.279ZM117.841,-2.063C117.841,-5.777 116.753,-9.236 114.883,-12.15L113.274,-10.273C113.575,-10.177 113.58,-9.938 113.329,-9.509C112.405,-7.926 112.623,-7.429 114.375,-6.982C114.56,-6.935 114.813,-6.797 114.856,-6.65C114.898,-6.505 114.752,-6.256 114.62,-6.119C113.38,-4.833 113.483,-4.173 115.044,-3.391C115.217,-3.305 115.482,-3.09 115.459,-2.996C115.408,-2.787 115.226,-2.585 115.048,-2.439C114.781,-2.219 114.473,-2.049 114.112,-1.811L113.747,-0.709C115.216,-0.713 116.605,-0.852 117.818,-1.182C117.832,-1.474 117.841,-1.767 117.841,-2.063M111.421,-2.063C111.421,-3.795 111.061,-5.443 110.416,-6.94L105.854,-1.62C107.601,-1.264 109.496,-0.961 111.358,-0.81C111.399,-1.222 111.421,-1.64 111.421,-2.063M100.203,-17.162C100.492,-17.505 100.723,-17.785 100.966,-18.045C101.106,-18.194 101.346,-18.435 101.448,-18.396C101.493,-18.378 101.539,-18.351 101.582,-18.32L103.365,-20.316C102.574,-20.503 101.765,-20.646 100.938,-20.73C100.568,-19.664 100.334,-18.451 100.203,-17.162M93.222,-24.501C93.232,-24.505 93.242,-24.509 93.253,-24.513L93.218,-24.515L93.222,-24.501ZM103.16,1.522L102.314,2.508L102.306,2.5C101.808,3.473 100.803,4.146 99.631,4.146C99.498,4.146 99.372,4.123 99.243,4.107L99.229,4.176L96.431,3.62C95.124,4.99 93.669,6.631 92.351,8.377C94.275,9.594 96.551,10.309 98.999,10.309C103.411,10.309 107.275,8.013 109.479,4.561C107.409,3.358 105.155,2.331 103.16,1.522M91.757,2.69L87.197,1.783C87.546,2.846 88.032,3.847 88.641,4.761C89.72,4.107 90.77,3.399 91.757,2.69M91.94,-2.736L89.757,-10.309C88.148,-8.522 87.057,-6.27 86.71,-3.776L91.94,-2.736ZM83.783,-4.358C84.839,-5.005 84.72,-5.492 83.579,-6.815C83.456,-6.957 83.332,-7.238 83.394,-7.361C83.469,-7.509 83.734,-7.601 83.932,-7.64C85.845,-8.02 86.104,-8.543 85.124,-10.223C84.754,-10.856 84.99,-11.02 85.598,-11.018C87.63,-11.012 87.868,-11.327 87.366,-13.329C87.326,-13.489 87.345,-13.809 87.399,-13.824C87.621,-13.883 87.868,-13.847 88.105,-13.858C88.309,-13.867 88.522,-13.86 88.735,-13.853L87.787,-17.143C83.915,-14.283 81.185,-9.98 80.395,-5.032L83.783,-4.358ZM9.792,-13.614C9.588,-13.178 9.359,-12.758 9.1,-12.356L9.226,-12.17L10.516,-10.263L14.232,-10.046L33.321,-8.934L9.792,-13.614ZM4.086,-28.106C4.352,-27.998 4.608,-27.875 4.862,-27.747L5.22,-28.23L4.432,-28.263L4.086,-28.106ZM8.709,-25.9L8.237,-25.103C8.937,-24.282 9.519,-23.359 9.948,-22.354L15.29,-23.159L34.356,-26.032L39.37,-26.788L9.966,-28.03L8.709,-25.9ZM8.685,-11.759C8.335,-11.289 7.953,-10.844 7.533,-10.437L9.629,-10.315L8.685,-11.759ZM6.779,-9.769C6.402,-9.466 6,-9.194 5.585,-8.943L5.624,-8.703L5.99,-6.432L9.269,-4.68L15.486,-1.359L13.922,-3.75L10.149,-9.52L6.779,-9.769ZM4.955,-8.587C4.416,-8.31 3.854,-8.071 3.268,-7.886L5.206,-6.85L4.955,-8.587ZM5.269,-5.952C5.296,-5.923 5.323,-5.893 5.349,-5.864L5.343,-5.911L5.269,-5.952ZM-9.854,-10.209L-9.973,-10.02L-9.714,-10.04C-9.761,-10.096 -9.808,-10.152 -9.854,-10.209M22.612,-51.694L31.898,-68.007L35.822,-74.827C29.362,-78.891 22.164,-81.889 14.476,-83.575L12.91,-72.186L10.207,-53.169L7.503,-34.153L7.003,-30.635L22.612,-51.694ZM57.668,-52.603L49.255,-48.717L31.724,-40.716L14.193,-32.716L12.945,-32.146L11.568,-30.289L51.433,-28.606L53.423,-28.906L66.068,-30.752C64.561,-38.605 61.675,-45.976 57.668,-52.603M66.336,-29.266L59.242,-28.276L66.543,-27.968C66.479,-28.402 66.409,-28.834 66.336,-29.266M46.244,-26.498L34.517,-24.917L15.407,-22.341L10.212,-21.641C10.514,-20.766 10.704,-19.842 10.769,-18.882L66.466,-7.803C66.993,-11.175 67.268,-14.628 67.268,-18.145C67.268,-20.675 67.122,-23.17 66.846,-25.628L46.244,-26.498ZM81.268,-17.005C81.8,-17.263 82.044,-17.811 81.826,-18.556C81.524,-19.587 81.764,-19.755 82.757,-19.47C83.878,-19.148 84.666,-19.906 84.458,-21.065C84.274,-22.094 84.731,-22.02 85.436,-21.749C85.842,-21.594 86.199,-21.555 86.498,-21.614L85.568,-24.838L80.987,-25.031C81.179,-22.761 81.282,-20.465 81.282,-18.145C81.282,-17.764 81.273,-17.385 81.268,-17.005M99.232,-26.588C102.188,-26.588 105.023,-26.069 107.655,-25.121L186.835,-113.804L70.316,-103.954L92.539,-26.871L99.232,-26.588ZM98.999,16.703C105.466,16.703 111.17,13.457 114.563,8.513C113.851,7.684 112.95,6.897 111.938,6.157C112.025,6.434 112.101,6.685 112.166,6.936C112.225,7.163 112.324,7.475 112.221,7.621C112.131,7.75 111.776,7.759 111.554,7.723C109.986,7.467 109.367,8.097 109.692,9.614C109.746,9.867 109.664,10.148 109.645,10.416C109.413,10.379 109.162,10.387 108.954,10.297C107.467,9.653 106.749,10.15 106.72,11.838C106.717,12.068 106.598,12.296 106.533,12.524C106.309,12.439 106.052,12.397 105.865,12.261C104.535,11.298 103.667,11.612 103.305,13.177C103.247,13.428 103.038,13.644 102.899,13.876C102.688,13.712 102.49,13.528 102.264,13.388C101.82,13.114 101.341,12.633 100.912,12.669C100.487,12.705 100.094,13.257 99.709,13.607C99.463,13.83 99.257,14.097 99.034,14.344C98.864,14.092 98.657,13.856 98.531,13.584C97.991,12.417 96.934,12.28 96.066,13.26C95.839,13.517 95.539,13.711 95.273,13.934C95.129,13.628 94.916,13.336 94.853,13.014C94.597,11.713 93.555,11.341 92.453,12.167C92.209,12.35 91.906,12.455 91.629,12.596C91.555,12.269 91.496,11.938 91.404,11.617C91.277,11.174 91.133,10.736 90.994,10.296C90.213,11.488 89.538,12.697 89.057,13.876C91.943,15.666 95.349,16.703 98.999,16.703M90.804,19.949L92.114,20.04C91.776,19.731 91.334,19.7 90.804,19.949M82.769,7.467C83.98,7.132 85.242,6.605 86.503,5.959L86.201,5.644C86.066,4.688 85.455,4.426 84.584,4.42C84.305,4.419 84.026,4.244 83.747,4.148C83.874,3.906 83.955,3.624 84.133,3.429C84.963,2.52 84.97,1.7 84.237,1.194L80.326,0.416C80.664,2.963 81.513,5.348 82.769,7.467M42.343,-7.139L33.408,-7.8L14.177,-9.222L11.065,-9.452L14.614,-4.206L17.137,-0.477L26.263,4.398L43.256,13.477L49.974,17.105L56.877,17.586C60.765,11.47 63.685,4.687 65.423,-2.548L42.343,-7.139ZM42.569,14.729L25.72,5.387L18.333,1.292L25.389,11.721L27.996,15.574L46.454,16.86L42.569,14.729ZM6.33,0.903L6.305,0.729C5.826,1.715 5.088,2.551 4.174,3.145C4.249,3.521 4.353,3.863 4.5,4.094C5.061,4.978 5.481,4.991 4.5,5.38C3.519,5.769 2.071,5.769 0.903,5.211C-0.265,4.652 -1.199,4.389 -2.274,4.893C-2.786,5.133 -3.902,5.438 -4.931,5.692C-4.7,5.782 -4.48,5.891 -4.27,6.016C-4.057,5.791 -3.759,5.556 -3.484,5.63C-2.893,5.786 -3.628,6.56 -3.044,6.872C-2.46,7.184 -1.806,6.886 -1.386,7.258C-0.965,7.63 -1.62,8.282 -1.526,8.84C-1.433,9.398 -0.358,9.491 -0.358,9.996C-0.358,10.501 -1.059,10.468 -1.386,11.306C-1.713,12.143 -0.779,12.19 -1.386,12.748C-1.993,13.306 -2.554,12.608 -3.068,13.074C-3.185,13.18 -3.242,13.288 -3.275,13.396L8.258,14.199L6.33,0.903ZM-12.232,9.855C-12.232,7.18 -10.351,4.94 -7.839,4.364L-6.879,-2.388L-6.442,-5.465L-11.932,-2.287L-16.481,0.345L-22.643,10.157L-32.868,26.441L-39.133,36.316C-31.705,41.626 -23.151,45.466 -13.903,47.409L-12.286,35.645L-9.583,16.628L-9.32,14.781C-11.055,13.816 -12.232,11.97 -12.232,9.855M-12.344,-3.005L-6.313,-6.371L-6.203,-7.139C-7.285,-7.746 -8.267,-8.507 -9.123,-9.391L-10.444,-9.269L-12.418,-6.126L-15.475,-1.258L-12.344,-3.005ZM-13.118,-6.57L-11.422,-9.179L-17.746,-8.595L-56.148,-5.047L-65.798,-4.2C-63.85,4.927 -60.033,13.374 -54.763,20.72L-45.99,15.771L-29.167,6.383L-17.195,-0.298L-13.118,-6.57ZM-56.27,-6.469L-37.043,-7.944L-17.816,-9.418L-10.923,-9.947L-10.336,-10.851C-11.808,-12.913 -12.683,-15.427 -12.683,-18.145C-12.683,-20.157 -12.196,-22.053 -11.351,-23.743L-11.842,-24.479L-17.065,-24.906L-36.284,-26.477L-55.504,-28.048L-66.383,-28.988C-66.962,-25.457 -67.268,-21.836 -67.268,-18.145C-67.268,-13.883 -66.862,-9.714 -66.094,-5.67L-56.27,-6.469ZM-54.917,-56.793L-45.69,-51.448L-29.065,-41.715L-19.688,-36.225L-23.487,-41.912L-34.168,-57.903L-42.299,-70.198C-47.092,-66.327 -51.344,-61.816 -54.917,-56.793M-15.162,-83.426L-13.028,-68.573L-10.385,-49.549L-7.742,-30.524L-7.546,-29.116L-6.886,-28.73C-4.892,-30.019 -2.514,-30.776 0.047,-30.776L0.05,-30.776L6.208,-30.516L6.68,-34.262L9.085,-53.319L11.49,-72.375L12.996,-83.883C8.789,-84.706 4.445,-85.142 0,-85.142C-5.212,-85.142 -10.288,-84.549 -15.162,-83.426M37.069,-74.023L33.139,-67.294L29.095,-60.441L38.462,-73.078C38.002,-73.399 37.538,-73.713 37.069,-74.023M49.921,-82.033C66.713,-68.999 78.229,-49.542 80.754,-27.368L84.889,-27.194L63.714,-100.642L49.921,-82.033ZM89.381,19.85C89.329,19.744 89.28,19.626 89.236,19.486C88.901,18.441 88.342,18.147 87.276,18.525C86.464,18.813 86.217,18.476 86.107,17.748C85.932,16.583 85.199,16.118 84.142,16.563C83.18,16.967 83.036,16.678 83.193,15.768C83.41,14.511 82.694,13.845 81.474,14.073C80.48,14.259 80.379,14.138 80.69,13.134C81.046,11.987 80.491,11.226 79.296,11.221C78.188,11.216 78.106,11.09 78.597,10.145C79.148,9.086 78.692,8.253 77.498,8.087C77.319,8.063 77.145,7.999 76.972,7.931C75.706,11.638 74.179,15.225 72.411,18.668L89.381,19.85ZM54.928,19.781L55.286,19.974C55.323,19.921 55.36,19.867 55.398,19.814L54.928,19.781ZM54.398,21.217L51.322,19.53L29.651,18.02L36.165,27.649L41.028,34.909C46.109,31.002 50.615,26.389 54.398,21.217M13.137,47.566L11.843,38.921L9.086,19.912L8.599,16.553L-6.615,15.493C-7.189,15.488 -7.744,15.397 -8.266,15.234L-8.461,16.778L-10.865,35.834L-12.419,47.703C-8.392,48.455 -4.242,48.852 0,48.852C4.495,48.852 8.886,48.407 13.137,47.566M-40.352,35.426L-34.077,25.675L-23.598,9.552L-18.295,1.395L-28.606,7.362L-45.28,17.011L-53.874,21.932C-50.032,27.042 -45.474,31.589 -40.352,35.426" style="fill-rule:nonzero;"/>
                </g>
                <g transform="matrix(2,0,0,2,651.442,818.404)">
                    <path d="M0,-27.735C-1.196,-27.174 -4.256,-24.024 -4.488,-22.084C-4.721,-20.144 -4.163,-16.563 -3.482,-13.997C-2.802,-11.431 -4.04,-6.99 -4.122,-1.6C-4.204,3.79 -1.941,4.927 -0.888,6.739C0.165,8.552 0.132,8.829 -1.956,8.58C-4.043,8.332 -6.857,2.375 -6.461,1.719C-6.144,1.192 -6.084,-0.776 -6.073,-1.531C-6.121,-1.06 -6.417,-0.206 -7.949,-0.286C-10.053,-0.395 -10.707,-5.534 -10.547,-6.873C-10.386,-8.213 -7.841,-8.253 -7.841,-8.253C-7.841,-8.253 -8.1,-11.971 -8.736,-13.733C-9.372,-15.496 -7.992,-17.581 -7.336,-18.346C-6.68,-19.111 -8.366,-19.172 -8.366,-19.172C-8.366,-19.172 -8.672,-17.802 -11.989,-17.205C-15.307,-16.608 -20.718,-11.504 -20.718,-11.504C-20.718,-11.504 -25.5,-12.075 -28.048,-15.801C-32.101,-21.729 -30.889,-26.208 -30.889,-26.208C-26.547,-25.411 -25.039,-26.075 -19.986,-27.02C-14.933,-27.965 -14.318,-33.093 -13.545,-34.829C-12.773,-36.564 -8.436,-35.064 -6.627,-34.849C-4.818,-34.634 0.499,-31.893 1.111,-31.117C1.724,-30.341 1.196,-28.296 0,-27.735" style="fill-rule:nonzero;"/>
                </g>
                <g transform="matrix(2,0,0,2,589.665,835.379)">
                    <path d="M0,-34.696C0,-34.696 -11.931,-40.473 -14.107,-41.154C-16.284,-41.834 -20.528,-42.277 -22.437,-41.66C-24.345,-41.044 -27.406,-37.883 -27.406,-37.883L-27.055,-36.66C-26.101,-33.335 -23.17,-30.952 -19.708,-30.687C-18.708,-30.61 -17.706,-30.803 -16.806,-31.245L-14.83,-32.215C-9.905,-30.622 -4.388,-28.588 -2.679,-27.002C0.624,-23.939 2.317,-20.41 1.974,-17.546C1.631,-14.682 -1.598,-4.241 -9.077,-1.898C-16.556,0.445 -24.982,0.474 -24.982,0.474C-24.982,0.474 -25.778,1.223 -25.431,4.216C-25.084,7.209 -23.988,7.48 -23.988,7.48C-23.988,7.48 -14.604,7.581 -5.812,4.878C1.498,2.631 4.198,-1.303 7.278,-6.981C10.358,-12.66 10.171,-19.991 10.171,-19.991C10.171,-19.991 5.389,-20.562 2.841,-24.289C-1.212,-30.217 0,-34.696 0,-34.696" style="fill:white;fill-rule:nonzero;"/>
                </g>
                <g transform="matrix(2,0,0,2,195.877,830.071)">
                    <path d="M0,-21.216C-12.979,-30.114 -28.977,-46.2 -29.678,-61.833C-30.379,-77.466 -15.664,-104.404 12.505,-113.616C40.673,-122.828 50.203,-125.62 72.626,-123.945C95.048,-122.27 122.228,-111.662 127.137,-111.662C132.046,-111.662 131.719,-110.173 131.719,-110.173C131.719,-110.173 133.176,-110.639 131.952,-110.918C130.729,-111.197 129.99,-112.267 130.411,-113.104C130.831,-113.942 130.271,-112.825 131.439,-113.849C132.606,-114.872 133.307,-117.385 133.728,-117.385C134.148,-117.385 135.643,-115.524 136.063,-115.57C136.484,-115.617 134.475,-117.711 134.475,-118.222C134.475,-118.734 137.324,-116.687 137.511,-115.803C137.698,-114.919 138.072,-117.524 138.072,-117.524C138.072,-117.524 137.371,-117.199 137.231,-117.524C137.091,-117.85 135.456,-119.339 136.437,-121.386C137.418,-123.433 137.184,-125.015 138.773,-126.364C140.361,-127.714 140.968,-130.784 141.108,-132.738C141.249,-134.692 141.389,-139.996 141.062,-140.834C140.735,-141.671 144.705,-142.462 145.687,-142.602C146.667,-142.741 155.169,-146.37 157.645,-146.696C160.121,-147.022 166.194,-147.58 170.912,-145.626C175.63,-143.672 185.58,-142.648 187.962,-140.741C190.345,-138.833 202.304,-124.736 203.752,-120.595C205.2,-116.454 206.274,-104.358 204.873,-99.612C203.471,-94.866 202.257,-94.68 201.743,-94.727C201.229,-94.773 196.978,-95.285 196.231,-96.309C195.484,-97.332 195.53,-97.053 195.53,-97.053L193.148,-91.889L193.428,-91.563C193.428,-91.563 192.073,-86.352 189.925,-84.677C187.776,-83.002 188.336,-83.188 188.336,-83.188C188.336,-83.188 188.757,-77.698 188.056,-76.814C187.355,-75.93 186.234,-75.372 184.833,-75.791C183.431,-76.209 182.404,-76.396 180.955,-74.814C179.507,-73.232 179.974,-72.86 178.9,-73.092C177.825,-73.325 177.499,-73.371 177.499,-73.371L176.331,-72.487L175.35,-73.651C175.35,-73.651 174.369,-73.046 174.696,-71.696C175.023,-70.347 175.069,-69.649 173.902,-69.37C172.734,-69.091 171.799,-68.719 171.239,-66.951C170.678,-65.183 170.118,-63.88 168.343,-63.927C166.567,-63.973 164.886,-64.95 163.905,-66.206C162.924,-67.463 158.626,-70.254 158.626,-70.254C158.626,-70.254 156.477,-69.882 156.524,-66.206C156.571,-62.531 156.711,-42.246 156.711,-42.246L152.46,-42.106C152.46,-42.106 152.086,-43.548 152.086,-45.735C152.086,-47.922 152.179,-49.457 152.133,-50.341C152.086,-51.225 152.553,-53.319 152.553,-54.249C152.553,-55.18 151.899,-66.718 151.853,-67.695C151.806,-68.672 152.04,-69.928 152.647,-70.673C153.254,-71.417 152.507,-71.534 151.058,-71.289L139.801,-70.999C139.801,-70.999 139.986,-64.98 138.427,-59.023C138.427,-59.019 136.156,-26.702 134.662,-24.052C133.816,-22.553 149.271,-18.213 163.195,-14.825C170.928,-15.175 179.129,-15.748 179.765,-16.17C180.886,-16.915 186.678,-18.031 189.668,-18.031C192.658,-18.031 198.613,-17.412 198.613,-17.412C199.244,-14.9 198.45,-13.379 198.45,-13.379C198.45,-13.379 204.617,-11.146 206.672,-10.029C208.727,-8.912 212.651,-2.957 210.222,-1.654C207.793,-0.352 206.112,-1.654 206.112,-1.654C206.112,-1.654 208.354,1.323 205.925,2.812C203.495,4.301 202.374,3.743 202.374,3.743C202.374,3.743 201.627,6.534 200.506,7.279C199.385,8.023 197.329,8.023 197.329,8.023C197.329,8.023 198.077,10.442 196.021,11.187C193.966,11.931 191.91,11.745 187.239,9.512C182.568,7.279 171.356,2.254 170.235,1.137C169.114,0.02 147.282,2.28 144.105,1.907C140.929,1.535 115.976,-0 113.547,-0.558C111.118,-1.117 103.707,1.909 102.586,-24.052C101.832,-41.517 102.233,-45.944 102.576,-46.974C101.146,-46.12 95.06,-43.038 87.48,-47.177C78.792,-51.923 72.345,-55.273 59.172,-56.948C56.731,-57.258 54.252,-57.665 51.833,-58.12C63.737,-44.531 88.539,-10.466 94.44,-4.094C95.752,-2.677 96.243,0.298 96.173,4.212C98.776,9.157 100.017,13.349 99.253,15.632C98.618,17.529 96.626,20.597 93.284,24.386C89.688,41.133 84.024,58.808 84.024,58.808C84.024,58.808 82.342,84.305 91.311,91.377C100.28,98.448 113.921,96.773 116.163,96.587C118.406,96.401 119.713,96.587 120.648,97.518C120.648,97.518 123.45,100.496 121.956,105.148C120.461,109.801 112.987,111.29 112.987,111.29C112.987,111.29 110.371,114.453 108.689,115.942C107.007,117.431 104.765,117.803 104.765,117.803C104.765,117.803 106.073,119.85 106.633,121.153C107.194,122.456 104.391,126.364 102.522,126.364C100.654,126.364 96.356,124.317 88.882,120.781C84.428,118.674 74.801,117.03 67.746,116.045C67.228,117.862 65.166,119.276 61.049,118.701C52.189,117.465 24.834,120.888 24.834,120.888C24.834,120.888 24.674,120.625 24.48,120.191C23.203,121.137 21.915,122.136 18.25,121.99C11.243,121.711 5.498,117.594 5.498,117.594C5.498,117.594 7.95,112.778 8.651,112.429C9.352,112.08 -6.695,101.612 -11.039,101.054C-15.384,100.496 -18.467,101.752 -21.97,98.402C-25.474,95.052 -26.175,92.679 -24.213,85.979C-22.251,79.28 -16.225,75.093 -14.262,73.417C-12.301,71.743 -9.638,73.417 -9.638,73.417C-9.638,73.417 27.78,35.871 34.787,30.567C41.794,25.263 54.688,15.493 57.49,14.795C60.293,14.097 22.636,-5.698 0,-21.216M54.407,53.598C26.379,68.672 16.849,79.559 16.849,79.559C16.849,79.559 26.098,97.704 38.431,103.287C46.061,106.741 46.394,109.767 45.207,111.838C53.916,111.742 57.753,110.481 60.871,110.28L61.975,106.823L93.367,115.012L93.18,113.523C93.18,113.523 68.515,109.987 67.394,107.009C66.513,104.67 62.979,66.03 61.505,49.575C59.239,50.925 56.877,52.269 54.407,53.598" style="fill-rule:nonzero;"/>
                </g>
            </g>
        </g>
    </g>
</svg>
