<?xml version="1.0" encoding="UTF-8" standalone="no"?>
<!DOCTYPE svg PUBLIC "-//W3C//DTD SVG 1.1//EN" "http://www.w3.org/Graphics/SVG/1.1/DTD/svg11.dtd">
<svg width="100%" height="100%" viewBox="0 0 130 105" version="1.1" xmlns="http://www.w3.org/2000/svg" xmlns:xlink="http://www.w3.org/1999/xlink" xml:space="preserve" xmlns:serif="http://www.serif.com/" style="fill-rule:evenodd;clip-rule:evenodd;stroke-linejoin:round;stroke-miterlimit:2;">
    <g transform="matrix(1,0,0,1,-1366,-805)">
        <g transform="matrix(4.16667,0,0,4.16667,1362.15,801.118)">
            <path d="M31.909,14.922C31.727,13.653 31.284,12.45 30.591,11.346C29.987,10.383 29.212,9.526 28.286,8.798L28.289,8.796L18.571,1.398C18.564,1.391 18.556,1.386 18.549,1.38C18.226,1.135 17.788,1 17.317,1C16.846,1 16.392,1.135 16.038,1.381C15.658,1.644 15.441,1.993 15.426,2.365C15.412,2.711 15.579,3.045 15.897,3.305C16.522,3.794 17.146,4.294 17.771,4.794C18.378,5.28 19.003,5.781 19.625,6.268L7.721,6.26C6.36,6.26 5.433,6.893 5.242,7.954C5.159,8.419 5.306,8.93 5.637,9.321C5.988,9.736 6.497,9.964 7.07,9.964L7.978,9.965C9.231,9.965 10.491,9.962 11.748,9.959L12.947,9.956L2.144,17.878L2.101,17.909C1.497,18.368 1.102,19.01 1.017,19.673C0.953,20.174 1.071,20.633 1.359,20.999C1.702,21.435 2.238,21.675 2.868,21.675C3.487,21.675 4.119,21.443 4.648,21.019L10.482,16.287C10.457,16.518 10.427,16.857 10.43,17.103C10.437,17.493 10.563,18.274 10.763,18.909C11.175,20.213 11.871,21.406 12.829,22.454C13.826,23.545 15.041,24.409 16.439,25.023C17.916,25.671 19.505,26 21.161,26L21.176,26C22.837,25.996 24.43,25.662 25.913,25.007C27.313,24.385 28.527,23.517 29.521,22.427C30.478,21.374 31.172,20.179 31.584,18.876C31.788,18.23 31.918,17.565 31.973,16.891C32.024,16.24 32.002,15.577 31.909,14.922ZM21.282,21.173C17.633,21.173 14.675,18.549 14.675,15.313C14.675,12.077 17.633,9.454 21.282,9.454C24.93,9.454 27.888,12.077 27.888,15.313C27.888,18.549 24.93,21.173 21.282,21.173ZM25.092,14.798C25.146,15.764 24.756,16.661 24.073,17.325C23.378,18.001 22.385,18.426 21.276,18.426C20.167,18.426 19.175,18.001 18.479,17.325C17.796,16.661 17.408,15.764 17.461,14.799C17.514,13.861 17.975,13.033 18.671,12.446C19.355,11.87 20.273,11.518 21.276,11.518C22.279,11.518 23.197,11.87 23.881,12.446C24.577,13.033 25.039,13.86 25.092,14.798Z" style="fill-rule:nonzero;"/>
        </g>
    </g>
</svg>
