<?xml version="1.0" encoding="UTF-8" standalone="no"?>
<!DOCTYPE svg PUBLIC "-//W3C//DTD SVG 1.1//EN" "http://www.w3.org/Graphics/SVG/1.1/DTD/svg11.dtd">
<svg width="100%" height="100%" viewBox="0 0 158 188" version="1.1" xmlns="http://www.w3.org/2000/svg" xmlns:xlink="http://www.w3.org/1999/xlink" xml:space="preserve" xmlns:serif="http://www.serif.com/" style="fill-rule:evenodd;clip-rule:evenodd;stroke-linejoin:round;stroke-miterlimit:2;">
    <g transform="matrix(1,0,0,1,-491,-291)">
        <g transform="matrix(1,0,0,1,565.214,361.169)">
            <g transform="matrix(4.16667,0,0,4.16667,-105.599,-86.602)">
                <path d="M36.164,30.105L34.601,28.437L33.347,29.611L35.579,31.992C35.741,32.164 35.968,32.263 36.206,32.263L36.233,32.263C36.479,32.253 36.71,32.14 36.866,31.95L39.766,28.442L38.442,27.348L36.164,30.105Z" style="fill-rule:nonzero;"/>
            </g>
            <g transform="matrix(4.16667,0,0,4.16667,-105.599,-86.602)">
                <path d="M36.164,38.123L34.601,36.455L33.347,37.631L35.579,40.01C35.741,40.184 35.968,40.281 36.206,40.281L36.233,40.281C36.479,40.273 36.71,40.16 36.866,39.968L39.766,36.46L38.442,35.366L36.164,38.123Z" style="fill-rule:nonzero;"/>
            </g>
            <g transform="matrix(4.16667,0,0,4.16667,-105.599,-86.602)">
                <path d="M25.818,23.35L25.818,21.416C25.818,20.293 22.263,19.234 22.263,19.234C22.036,19.007 21.861,18.562 21.738,18.144C22.422,17.79 22.97,17.123 23.269,16.289C23.664,16.119 23.945,15.676 23.945,15.15C23.945,14.707 23.742,14.32 23.443,14.109C23.158,12.511 22,11.314 20.611,11.314C19.222,11.314 18.062,12.511 17.779,14.109C17.478,14.32 17.273,14.707 17.273,15.15C17.273,15.675 17.558,16.119 17.953,16.289C18.25,17.123 18.799,17.791 19.482,18.144C19.359,18.562 19.183,19.007 18.959,19.234C18.959,19.234 15.404,20.293 15.404,21.416L15.404,23.35L25.818,23.35Z" style="fill-rule:nonzero;"/>
            </g>
            <g transform="matrix(4.16667,0,0,4.16667,-105.599,-86.602)">
                <rect x="28.727" y="13.613" width="8.871" height="1.719"/>
            </g>
            <g transform="matrix(4.16667,0,0,4.16667,-105.599,-86.602)">
                <rect x="28.727" y="21.631" width="8.871" height="1.719"/>
            </g>
            <g transform="matrix(4.16667,0,0,4.16667,-105.599,-86.602)">
                <rect x="15.404" y="29.65" width="15.314" height="1.717"/>
            </g>
            <g transform="matrix(4.16667,0,0,4.16667,-105.599,-86.602)">
                <rect x="15.404" y="37.668" width="15.314" height="1.719"/>
            </g>
            <g transform="matrix(4.16667,0,0,4.16667,-105.599,-86.602)">
                <path d="M41.51,4.164L11.49,4.164C9.359,4.164 7.625,5.896 7.625,8.029L7.625,44.97C7.625,47.101 9.359,48.835 11.49,48.835L41.51,48.835C43.643,48.835 45.375,47.101 45.375,44.97L45.375,8.029C45.375,5.896 43.643,4.164 41.51,4.164ZM42.799,44.971C42.799,45.68 42.221,46.26 41.51,46.26L11.49,46.26C10.781,46.26 10.203,45.68 10.203,44.971L10.203,8.029C10.203,7.318 10.781,6.74 11.49,6.74L41.51,6.74C42.221,6.74 42.799,7.318 42.799,8.029L42.799,44.971Z" style="fill-rule:nonzero;"/>
            </g>
        </g>
    </g>
</svg>
