<?xml version="1.0" encoding="UTF-8" standalone="no"?>
<!DOCTYPE svg PUBLIC "-//W3C//DTD SVG 1.1//EN" "http://www.w3.org/Graphics/SVG/1.1/DTD/svg11.dtd">
<svg width="100%" height="100%" viewBox="0 0 120 121" version="1.1" xmlns="http://www.w3.org/2000/svg" xmlns:xlink="http://www.w3.org/1999/xlink" xml:space="preserve" xmlns:serif="http://www.serif.com/" style="fill-rule:evenodd;clip-rule:evenodd;stroke-linejoin:round;stroke-miterlimit:2;">
    <g transform="matrix(1,0,0,1,-1632,-1984)">
        <g transform="matrix(1,0,0,1,586.714,-1.79278)">
            <g transform="matrix(0.836404,0,0,0.836404,-461.125,919.742)">
                <g transform="matrix(4.16667,0,0,4.16667,1870.17,1387.14)">
                    <path d="M0,-1.493L5.553,-3.649C5.926,-3.794 6.345,-3.606 6.484,-3.231L7.392,-0.793C7.531,-0.422 7.341,-0.008 6.969,0.129L1.455,2.167C1.092,2.301 0.689,2.123 0.543,1.765L-0.404,-0.554C-0.556,-0.925 -0.374,-1.348 0,-1.493" style="fill-rule:nonzero;"/>
                </g>
                <g transform="matrix(4.16667,0,0,4.16667,1893.23,1312.38)">
                    <path d="M0,12.832L0.72,6.073C0.773,5.577 0.573,5.088 0.188,4.77L-9.098,-2.878C-9.176,-2.942 -9.289,-2.861 -9.253,-2.767L-5.184,7.978C-4.866,7.943 -4.529,8.024 -4.236,8.247C-3.86,8.534 -3.667,9.033 -3.754,9.498C-3.939,10.484 -5.075,10.913 -5.867,10.289C-6.218,10.013 -6.404,9.551 -6.339,9.109C-6.281,8.715 -6.074,8.406 -5.795,8.209L-9.859,-2.525C-9.895,-2.62 -10.033,-2.605 -10.048,-2.505L-11.87,9.36C-11.944,9.845 -11.774,10.336 -11.414,10.671L-6.444,15.3C-6.052,15.665 -5.485,15.774 -4.985,15.58L-0.884,13.988C-0.397,13.798 -0.055,13.352 0,12.832" style="fill-rule:nonzero;"/>
                </g>
                <g transform="matrix(4.16667,0,0,4.16667,1852.02,1297.66)">
                    <rect x="0" y="0" width="0.001" height="0.001"/>
                </g>
            </g>
            <g transform="matrix(1,0,0,1,0,-0.973446)">
                <rect x="1045.34" y="1987.72" width="119.287" height="119.287" style="fill:none;"/>
            </g>
        </g>
    </g>
</svg>
