<?xml version="1.0" encoding="UTF-8"?>
<svg width="756px" height="615px" viewBox="0 0 756 615" version="1.1" xmlns="http://www.w3.org/2000/svg" xmlns:xlink="http://www.w3.org/1999/xlink">
    <title>Group 11</title>
    <defs>
        <polygon id="path-1" points="0 0.898286373 755.88 0.898286373 755.88 534.999968 0 534.999968"></polygon>
    </defs>
    <g id="Page-1" stroke="none" stroke-width="1" fill="none" fill-rule="evenodd">
        <g id="v" transform="translate(-860.000000, -353.000000)">
            <g id="Group-10" transform="translate(860.000000, 353.000000)">
                <g id="Group-3" transform="translate(0.000000, 79.279000)">
                    <mask id="mask-2" fill="white">
                        <use xlink:href="#path-1"></use>
                    </mask>
                    <g id="Clip-2"></g>
                    <path d="M743.3379,510.3087 C742.2119,508.8207 739.9069,509.5187 739.6749,509.2407 C739.4419,508.9597 738.4189,503.5667 738.6979,501.1017 C738.9769,498.6377 737.4899,496.2197 737.4899,496.2197 C737.4899,496.2197 722.9819,469.8097 721.6339,467.3447 C720.2849,464.8807 711.2649,449.8157 709.9159,448.6067 C708.5679,447.3977 702.9879,443.9107 702.9879,443.9107 L697.7809,433.1227 L717.3089,456.3717 L721.0289,458.0457 L723.2609,460.0917 C723.2609,460.0917 722.7029,471.2507 725.4929,474.0407 C728.2829,476.8307 736.4669,475.5287 740.1859,472.5527 C743.9059,469.5777 730.7009,456.9297 730.7009,456.9297 L728.0969,455.9997 L727.7249,451.1637 L707.2659,425.8697 L702.8019,423.6367 L697.2229,416.1987 L696.2919,413.4087 L679.3679,392.3907 L665.0459,384.5797 L661.1399,307.5797 L662.9999,307.5797 L662.6279,289.3517 L659.6529,287.8647 L657.2349,233.7417 L658.5369,233.7417 L658.5369,215.5137 L655.9329,214.3987 L653.5149,158.9737 L732.5609,161.4837 C732.5609,161.4837 739.8779,165.2797 741.9069,162.7387 C743.8599,160.2927 742.7899,156.9267 741.3019,155.6247 C739.8139,154.3227 732.9329,156.5557 732.9329,156.5557 L660.7679,154.5087 L660.5829,141.4897 L657.2349,141.3037 C657.2349,141.3037 653.3289,142.0477 653.5149,140.5597 C653.7009,139.0717 652.2129,138.5147 652.2129,138.5147 L651.6549,116.0087 L655.1889,114.8927 L657.0489,104.6637 L712.4739,135.5377 C712.4739,135.5377 713.4039,137.5837 714.8919,135.5377 C716.3799,133.4927 714.8919,132.3757 714.8919,132.3757 C714.8919,132.3757 657.7929,101.1297 657.7929,99.2697 C657.7929,97.4107 658.3509,93.1317 654.6309,90.3427 C650.9109,87.5527 648.4929,89.7857 647.0049,89.7857 C645.5169,89.7857 643.2849,91.2727 643.2849,91.2727 C643.2849,91.2727 608.5049,72.4867 604.0409,68.5817 C602.1189,66.8997 601.8559,65.5647 602.1759,64.5427 C610.4499,61.7617 617.9049,58.8527 624.3139,56.3067 C646.0749,47.6577 672.0209,28.4077 668.1149,14.7367 C664.2089,1.0667 638.8219,-1.4433 607.0169,2.7417 C575.2129,6.9257 540.3399,21.4337 522.7639,33.9867 C505.1869,46.5417 501.8399,57.1427 503.5129,62.1647 C503.5129,62.1647 507.9769,74.1617 531.4119,75.5567 C554.0499,76.9037 575.3399,72.7337 593.4499,67.3167 C594.1049,68.0977 594.8889,68.5777 594.8349,68.9547 C594.7419,69.6047 595.8579,70.8137 595.8579,70.8137 C595.8579,70.8137 600.6939,73.5097 601.9959,74.4397 C603.2969,75.3707 604.1339,74.3477 604.1339,74.3477 L640.4949,95.2707 C638.7289,100.3857 642.8199,102.2467 642.8199,102.2467 L643.1919,105.2227 L643.7499,115.5437 L644.6799,115.5437 L645.7959,142.5137 L635.5669,144.6517 C635.5669,144.6517 635.6599,146.6977 635.3809,146.6047 C635.1019,146.5117 628.5919,148.8367 628.1269,148.0927 C627.6619,147.3497 624.9649,147.3497 624.1279,147.4417 C623.2909,147.5357 622.8259,149.8597 621.7099,150.6027 C620.5949,151.3477 619.2929,152.2767 619.2929,152.2767 L617.5259,152.2767 C617.1539,149.4877 614.2709,148.4647 614.2709,148.4647 C614.2709,148.4647 611.1089,148.3717 607.7609,148.4647 C604.4129,148.5587 603.2969,150.7887 603.2969,150.7887 L602.1819,145.1177 C602.1819,145.1177 619.3859,141.1187 627.8479,138.2347 C636.3109,135.3517 646.9119,130.2367 644.7729,126.5177 C642.6339,122.7977 635.3809,123.1697 628.7779,122.6117 C622.1749,122.0537 602.4599,125.0297 602.4599,125.0297 L600.6939,118.6127 L601.4379,118.4267 C601.4379,118.4267 601.4379,114.5207 600.1359,113.7767 C598.8339,113.0327 591.1149,114.2427 591.1149,114.2427 C591.1149,114.2427 591.0219,102.8037 590.6499,102.4327 C590.2779,102.0597 589.7199,102.5247 589.7199,102.5247 C589.7199,102.5247 589.9989,114.3347 589.4409,114.7997 C588.8829,115.2657 587.6739,116.4747 587.6739,116.4747 L588.3249,120.6597 L589.1619,120.6597 L590.2779,127.3547 C590.2779,127.3547 583.6749,128.9357 576.7009,130.7947 C569.7259,132.6547 559.2179,136.8397 556.1489,138.8857 C553.0799,140.9327 551.1269,142.6987 552.7079,145.5817 C554.2889,148.4647 565.3549,148.1857 570.5629,148.4647 C575.7709,148.7447 589.8129,147.2087 589.8129,147.2087 L590.5099,166.3657 L589.3479,166.9237 C588.1859,167.4817 588.6039,172.4117 588.8829,172.9217 C589.1619,173.4337 591.3479,173.1547 591.3479,173.1547 L591.2549,174.2707 L590.3709,174.4107 L590.3709,177.2467 C590.3709,177.2467 588.6509,178.1767 588.5109,178.8737 C588.3719,179.5707 588.9299,179.8967 588.9299,179.8967 C588.0459,180.2687 588.1859,182.4077 588.1859,182.4077 C583.4889,182.3607 579.3509,185.2907 579.3509,185.2907 C579.3509,185.2907 562.5659,186.6857 559.1709,187.1967 C555.7769,187.7087 538.5729,189.7537 537.5029,191.2427 C536.4339,192.7297 542.5249,193.1017 542.5249,193.1017 C538.0149,193.4747 537.6189,194.9617 537.6189,194.9617 C537.6189,194.9617 549.4069,198.3097 556.6599,199.1467 C563.9139,199.9847 578.4209,201.2397 578.4209,201.2397 C580.6529,202.6337 584.4189,203.7497 584.4189,203.7497 L584.8379,207.9347 L582.3269,208.7717 C582.3269,208.7717 581.9089,209.8877 583.1639,211.4217 C584.4189,212.9567 587.9069,211.7017 587.9069,211.7017 L587.9069,218.3967 L589.0229,218.6757 L590.2779,254.2467 L588.1859,253.9677 L585.1169,256.6187 L583.0239,257.3157 L582.7449,260.2457 L585.2559,260.1047 L585.3959,264.9887 L588.4649,265.1267 L588.7439,269.5907 L590.4169,270.2877 L590.9759,322.5977 L584.6979,325.5277 L581.0719,332.0837 L576.6079,336.2677 L550.1499,383.3637 C547.9029,382.4017 546.1449,381.2237 545.6349,379.3217 C544.4929,375.0477 547.6929,353.0917 547.6929,353.0917 L552.7689,353.0917 C552.7689,353.0917 551.6139,344.1637 550.4479,337.1007 C549.2819,330.0377 557.1939,306.2217 559.2209,280.4107 C560.6009,262.8437 550.1019,256.9127 543.2519,254.9147 L542.4709,244.0107 L540.6169,243.8417 L540.8529,231.5717 L540.9159,230.0777 C540.9779,228.5827 540.0739,228.4547 540.0739,228.4547 L540.2699,227.0747 C540.2699,227.0747 539.8879,226.4557 539.3609,226.3817 C538.8349,226.3067 538.5999,226.9307 538.5999,226.9307 L538.3389,228.7737 L537.6419,229.0497 L536.1019,227.9867 L536.2979,226.6047 C537.6379,225.7617 537.1229,224.0917 537.1229,224.0917 C537.1229,224.0917 533.9359,220.0717 520.5199,217.9827 C472.9929,210.5797 412.2329,232.4997 412.2329,232.4997 L412.6909,233.0237 C407.1349,232.3027 401.4819,231.8917 395.7289,231.8917 C382.1839,231.8917 369.1189,233.9517 356.8299,237.7707 C357.9259,236.2527 359.2199,234.1527 358.5929,233.4117 C357.5699,232.2027 356.0819,235.0847 356.0819,235.0847 C356.0819,235.0847 356.4539,233.0387 356.0819,232.4807 C355.7099,231.9227 354.4209,232.2947 354.4209,232.2947 L354.4209,233.3187 L353.2919,233.3187 C353.2919,233.3187 353.3849,231.4577 353.3849,230.6217 C353.3849,229.7847 354.9659,230.4347 354.2219,229.0397 C353.4789,227.6447 348.4569,226.6217 348.4569,226.6217 L266.8769,211.8827 C266.8769,211.8827 252.9969,211.0457 243.4419,210.2797 C233.8859,209.5107 222.4479,210.2797 221.0529,210.6977 C219.6579,211.1157 220.9829,212.2307 220.9829,212.2307 L220.6349,215.3247 L219.7979,215.2307 L218.0079,213.9287 C218.0079,213.9287 218.2169,212.6967 217.3329,212.6267 C216.4499,212.5567 216.4499,213.8817 216.4499,213.8817 L215.7759,214.0217 C215.7759,214.0217 215.6359,215.2997 215.5429,216.6017 C215.4499,217.9047 216.1709,218.4387 216.1709,218.4387 L213.3809,230.1567 L211.5679,230.4347 L209.4749,245.9187 L212.2649,251.7787 L203.3839,306.9237 L198.1299,312.2237 L195.6189,328.3127 L197.1529,328.9167 L195.0149,341.8897 C195.0149,341.8897 193.8989,343.2857 193.4799,344.2147 C193.0619,345.1447 193.9919,345.2387 193.9919,345.2387 C193.9919,345.2387 194.1309,345.7037 193.8519,346.6787 C193.5729,347.6567 194.4559,348.6787 195.3399,348.3067 C196.2239,347.9347 196.2699,345.7487 196.2699,345.7487 L197.1999,344.8197 L198.6879,345.9347 L198.0369,348.8187 L196.9669,350.6777 C196.9669,350.6777 203.8729,353.9147 217.7929,357.1947 L216.8689,363.5107 C216.8689,363.5107 215.4809,369.4407 213.9179,375.9147 L213.2869,375.3297 L211.2299,372.2607 L185.5629,347.9907 L181.6569,346.3167 L176.0779,340.4567 L168.7939,338.5037 L169.9399,274.8947 L171.6139,273.7807 L172.1719,269.3167 L174.4039,268.4787 L174.6829,262.3407 L170.4979,262.6207 L170.4979,233.0057 L172.1719,233.0057 L172.4509,227.5867 L175.7989,227.5867 L176.3559,220.4937 L171.0559,220.2137 C171.0559,220.2137 171.0559,215.1927 171.6139,210.4507 C172.1719,205.7067 169.1029,204.0337 176.6349,200.9637 C184.1679,197.8947 181.0989,191.2007 181.0989,191.2007 L182.7729,188.9677 C182.7729,188.9677 221.8309,193.1527 238.8489,193.9887 C255.8669,194.8277 263.9579,190.9207 256.1459,184.2257 C248.3349,177.5287 227.9689,172.2287 215.4149,168.1007 C202.8599,163.9737 182.4939,159.3947 182.4939,159.3947 C182.4939,159.3947 183.0519,156.0467 182.4939,154.6527 C181.9359,153.2577 179.7039,152.9787 179.7039,152.9787 L178.8669,148.5157 L179.4249,146.2827 L176.0779,145.4457 L175.5199,148.2357 L174.1249,149.6307 L173.5669,152.4207 L169.6609,151.8627 L167.9869,156.6047 C167.9869,156.6047 158.2479,155.4897 147.1389,154.2577 L147.8069,116.9887 C152.4569,116.0597 151.5269,108.6207 151.5269,108.6207 L184.8189,92.4387 C188.3529,93.9267 188.1669,92.4387 188.1669,92.4387 L191.7009,90.8857 L195.0489,90.0207 L198.3679,88.2777 C205.2469,89.4287 211.8079,90.2297 217.5529,90.5797 C245.0799,92.2527 274.2809,87.0447 277.9999,75.8857 C281.7199,64.7257 261.0749,50.9627 230.7589,42.0357 C200.4419,33.1077 160.2679,32.9217 142.9709,37.3857 C125.6739,41.8497 125.1159,51.1487 125.1159,51.1487 C125.1159,51.1487 121.5819,52.4517 132.7419,64.7257 C140.0669,72.7847 162.4589,80.6817 184.7669,85.6297 C181.0889,87.4937 181.8429,88.9047 181.8429,88.9047 C181.8429,88.9047 149.8529,105.6437 149.1089,104.7137 C148.3649,103.7847 145.2029,103.2257 145.2029,103.2257 C145.2029,103.2257 135.9039,104.5277 133.1139,105.4577 C130.3239,106.3887 129.5799,113.6417 129.5799,113.6417 L75.6439,141.3537 C75.6439,141.3537 73.2259,141.3537 73.4119,144.1437 C73.5969,146.9337 76.9449,146.1897 76.9449,146.1897 L134.4159,117.3607 L138.1349,122.5687 L137.3919,127.5907 L132.5559,129.0797 L132.5559,132.9847 L131.6259,133.7287 L138.1349,135.2157 L137.8339,153.2357 C130.3949,152.4257 123.3609,151.6857 119.1639,151.3057 C106.8889,150.1887 88.1969,151.5837 82.3379,152.9787 C76.4809,154.3727 77.8759,156.8837 82.3379,161.0687 C86.8019,165.2537 108.5629,171.6707 122.7909,175.8557 C126.7669,177.0247 131.9659,178.3257 137.3939,179.5907 L136.4619,235.4647 L131.8119,236.0237 L131.8119,244.0207 L134.0439,244.2067 L134.4159,253.1347 L135.9039,253.5067 L134.0439,343.7117 C134.0439,343.7117 133.6719,347.8037 132.7419,346.3167 C131.8119,344.8287 128.6499,344.4557 126.7899,344.8287 C124.9299,345.2007 113.5849,356.5447 111.3529,358.0337 C109.1209,359.5207 88.1049,380.1657 83.6409,384.4447 C79.1769,388.7217 70.0639,399.6957 70.0639,399.6957 C70.0639,399.6957 53.1379,415.8757 43.6519,424.6187 C34.1679,433.3597 12.7779,457.5377 12.7779,457.5377 L10.1739,459.0257 C7.5699,460.5137 -1.1701,473.7187 0.1309,476.3237 C1.4329,478.9267 14.8239,480.0427 16.8709,478.7417 C18.9169,477.4387 22.2629,460.8857 22.2629,460.8857 C22.2629,460.8857 37.3299,445.8207 41.6069,441.7287 C45.8839,437.6367 71.3649,410.8537 71.3649,410.8537 L77.8759,414.3877 C77.8759,414.3877 54.6269,439.1247 52.3949,441.3567 C50.1629,443.5887 45.3259,452.3297 45.3259,452.3297 C45.3259,452.3297 44.5829,451.3997 43.0939,452.3297 C41.6069,453.2597 29.3319,469.2557 28.0289,470.7437 C26.7279,472.2307 28.9599,475.0207 32.3079,475.9517 C35.6549,476.8807 45.3259,474.2767 47.1869,473.3467 C49.0459,472.4167 52.5809,459.9557 53.1379,457.5377 C53.6959,455.1207 51.4639,456.4217 52.2089,454.9337 C52.9529,453.4457 58.7179,448.9817 58.7179,448.9817 L87.5459,419.7827 L120.8379,438.1947 C120.8379,438.1947 120.6519,439.8697 121.7679,440.6127 C122.8839,441.3567 129.3939,440.2417 130.3239,440.7987 C131.2539,441.3567 134.4159,441.1707 134.4159,441.1707 L135.3459,483.0187 C135.3459,483.0187 135.9039,486.3667 137.5779,488.5977 C139.2509,490.8297 140.1809,498.0837 140.1809,498.0837 C140.1809,498.0837 138.6929,499.0137 137.0199,499.9437 C135.3459,500.8737 135.7179,513.6037 137.7629,515.9387 C139.8089,518.2737 151.5269,516.6827 153.0149,513.6037 C154.5029,510.5247 150.4109,496.7827 150.4109,496.7827 L147.9929,496.7827 L151.8989,480.7877 L150.4109,435.7327 L156.9209,430.9417 L167.8939,430.5697 L174.4039,430.0107 L199.6519,403.6467 C199.6519,403.6467 202.5639,406.6757 206.5709,410.7837 C205.2599,412.8667 202.6199,417.7147 206.2669,418.0067 C210.7729,418.3677 212.2949,418.8757 212.2159,416.5387 C215.2109,419.5757 218.3359,422.7107 221.0969,425.4157 L215.7519,447.2067 L210.4519,456.4137 C210.4519,456.4137 209.6149,460.5977 214.6369,460.8767 C216.4569,460.9787 217.9469,460.7497 219.1069,460.4167 C220.9269,459.8947 222.0209,458.0377 221.7099,456.1697 L220.4019,448.3237 L224.3079,428.5197 C226.3179,430.4297 227.9189,431.8737 228.8059,432.5217 C233.4789,435.9397 235.7109,438.8697 235.7109,438.8697 C235.7109,438.8697 233.4989,442.9187 235.1529,450.0987 C236.2999,455.0797 241.8959,455.4287 246.8699,454.3857 L240.7369,481.5217 L241.4349,482.3587 L240.7369,485.4277 C240.7369,485.4277 237.3889,484.7307 236.9709,485.4277 C236.5519,486.1257 235.8549,488.2177 236.1339,488.6357 C236.4129,489.0547 237.2849,489.4727 237.2849,489.4727 L237.1449,490.3797 C237.1449,490.3797 230.5889,504.0157 234.0419,505.0967 C237.4939,506.1777 244.2589,506.3867 245.0269,504.5747 C245.7939,502.7597 245.9679,492.5417 245.3749,491.9147 C244.7829,491.2877 245.0959,490.4507 245.0959,490.4507 C245.0959,490.4507 246.2819,490.9377 246.8749,490.3447 C247.4679,489.7517 248.5489,488.0437 248.0259,487.5897 C247.5029,487.1367 244.0849,486.1257 244.0849,486.1257 L244.8169,482.9867 L245.5849,482.4287 L252.3479,452.6077 C252.4489,452.5617 252.5619,452.5157 252.6589,452.4697 C255.0969,451.3017 254.7739,449.6607 253.4829,447.6037 L257.6899,429.0527 L257.8199,429.1747 L268.5629,438.5387 C268.5629,438.5387 264.5499,449.8277 267.3059,451.2137 C270.0609,452.6017 284.8819,451.7717 284.8819,448.7047 C284.8819,445.6347 273.5219,432.6667 273.5219,432.6667 L270.6539,431.1267 L268.3979,428.7907 L269.1089,423.7717 L269.9459,423.8417 C269.9459,423.8417 270.2249,426.7027 271.8979,426.9117 C273.2379,427.0787 277.9189,424.4357 279.7389,423.3717 C301.6039,465.1307 345.3249,493.6427 395.7289,493.6427 C447.7969,493.6427 492.7569,463.2327 513.8339,419.2077 L517.1969,420.8427 C517.1969,420.8427 517.1969,423.0757 516.3589,423.6327 C516.2149,423.7287 516.1949,423.8567 516.2209,423.9917 L511.5899,424.3197 L520.3919,435.7267 L525.8319,429.7287 L530.0149,430.6697 C530.3989,433.3527 531.0649,437.6497 531.5639,439.0237 C532.3079,441.0687 534.3539,440.8827 534.3539,440.8827 L539.8939,442.1717 L543.6709,458.8257 L539.3309,462.2057 L538.2009,461.1137 C538.2009,461.1137 523.7859,473.2047 520.1599,477.9467 C516.5329,482.6887 530.6679,483.4327 536.0789,483.5257 C541.4899,483.6197 539.9679,469.6697 539.9679,469.6697 C539.9679,469.6697 542.0339,468.0307 545.1949,465.5457 L548.3879,479.6227 L549.1549,480.1807 L549.8869,483.3197 C549.8869,483.3197 546.4699,484.3307 545.9469,484.7857 C545.4239,485.2377 546.5049,486.9467 547.0979,487.5397 C547.6899,488.1327 548.8759,487.6437 548.8759,487.6437 C548.8759,487.6437 549.1899,488.4807 548.5969,489.1087 C548.0039,489.7367 548.1789,499.9547 548.9459,501.7677 C549.7129,503.5807 556.4789,503.3717 559.9309,502.2907 C563.3829,501.2097 556.8269,487.5757 556.8269,487.5757 L556.6879,486.6677 C556.6879,486.6677 557.5599,486.2487 557.8389,485.8307 C558.1179,485.4127 557.4199,483.3197 557.0009,482.6227 C556.5829,481.9247 553.2349,482.6227 553.2349,482.6227 L552.5379,479.5537 L553.2349,478.7167 L549.4969,462.1747 C560.4699,453.5987 577.1959,440.7177 578.7469,440.6557 C581.0719,440.5627 588.6039,438.4237 588.6039,438.4237 C588.6039,438.4237 591.6729,437.7727 591.8589,436.3777 C592.0449,434.9837 589.7199,433.9597 589.7199,433.9597 L589.7199,432.2867 L593.8119,428.8447 L593.8119,441.5847 C593.8119,441.5847 595.1139,443.6307 594.8349,443.5377 C594.5559,443.4447 602.0569,444.8397 602.0569,444.8397 L609.2489,443.7237 L611.1089,438.7037 L610.4579,437.4007 L610.2719,435.8197 L648.2369,461.1837 C648.0979,461.7767 648.5509,463.0667 649.5279,463.3807 C650.5039,463.6947 656.4909,464.1827 656.4909,464.1827 C659.6529,466.0427 663.1859,465.6707 663.1859,465.6707 L669.1379,466.6007 L694.4329,446.1417 C696.6649,450.9777 693.6889,454.3267 693.6889,454.3267 L709.4979,480.1787 C709.4979,480.1787 724.5629,505.4727 727.5389,507.3327 C730.5149,509.1927 734.0489,513.2857 734.0489,513.2857 L732.7469,514.0287 C731.4449,514.7727 733.8629,527.0477 734.4209,528.9087 C734.9789,530.7677 741.4879,533.5577 745.2079,534.6737 C748.9279,535.7897 754.6939,533.7447 755.8099,532.9997 C756.9249,532.2557 744.4639,511.7967 743.3379,510.3087 L743.3379,510.3087 Z M707.0339,432.2397 C708.1499,433.3547 722.5169,452.4657 722.5169,452.4657 C722.5169,452.4657 720.5639,451.6287 718.7509,450.0947 C716.9379,448.5597 702.0119,429.7287 702.0119,429.7287 C702.0119,429.7287 705.9179,431.1237 707.0339,432.2397 L707.0339,432.2397 Z M200.9839,339.4497 L197.1649,340.4597 L199.4319,329.3357 C199.5359,329.3357 202.5359,330.3467 202.5359,330.3467 L200.9839,339.4497 Z M132.9279,431.6847 L125.1159,431.6847 L93.3129,414.5747 L102.6109,404.9037 C102.6109,404.9037 103.9129,400.2527 105.3079,398.7647 C106.7029,397.2777 108.9349,395.2317 108.9349,395.2317 L132.9279,416.9927 L132.9279,431.6847 Z M132.7419,409.1807 L113.3989,390.9537 L116.5609,386.8617 L121.2099,383.8857 L132.7419,372.3537 C132.7419,372.3537 131.0679,400.2527 132.9279,403.2287 L132.7419,409.1807 Z M134.2299,357.4747 L115.0729,376.0747 L112.2829,381.6547 L100.7509,393.7437 L94.0559,397.6497 L82.8969,409.1807 L76.3859,405.0887 L85.8729,397.6497 L123.0699,360.6367 L130.3239,352.6397 L131.0679,351.5237 L132.7419,353.3827 L134.2299,354.1267 L134.2299,357.4747 Z M216.3109,230.5397 L216.4499,229.0047 L215.9969,228.7607 L217.7049,219.8337 C217.7049,219.8337 218.5079,220.6007 219.4839,221.1237 C220.4599,221.6467 220.9489,221.6127 220.9489,221.6127 C220.9489,221.6127 219.9019,229.4587 219.2399,230.2257 C218.5769,230.9937 216.3109,230.5397 216.3109,230.5397 L216.3109,230.5397 Z M220.0299,364.3477 C220.1479,362.9987 220.7089,359.9867 221.1079,357.9447 C224.1559,358.6087 227.4629,359.2637 231.0969,359.8847 C234.2189,360.4177 237.2589,360.8857 240.1879,361.3017 L236.6759,383.8767 L233.2369,392.3717 L230.4069,389.4407 L226.5219,387.6067 L216.6269,378.4277 C218.2799,372.1237 219.9309,365.4957 220.0299,364.3477 L220.0299,364.3477 Z M142.9709,410.1107 L143.9009,361.1017 C143.9009,361.1017 145.5749,362.8697 145.9469,364.9147 C146.3189,366.9607 147.8069,399.5087 147.0629,402.8577 C146.6419,404.7527 145.3839,406.8297 144.3739,408.2717 C144.1339,408.6147 143.9129,413.9897 143.7149,414.2487 C143.5489,414.4667 143.0889,415.0477 142.9709,414.2977 C142.7759,413.0567 142.9709,410.1107 142.9709,410.1107 L142.9709,410.1107 Z M148.6859,479.6707 C148.0789,483.0187 145.7939,495.1747 145.7829,497.1017 L142.9459,497.3857 C142.9459,497.3857 141.3639,488.3187 139.3179,483.5777 C137.4679,479.2897 138.8089,441.4507 138.8089,441.4507 L143.3079,441.9147 L144.9699,438.5387 L146.8819,438.5387 L147.6239,441.1707 C147.6239,441.1707 149.2919,476.3237 148.6859,479.6707 L148.6859,479.6707 Z M153.7589,380.3517 C153.5729,384.2577 153.5729,405.6467 153.9449,408.2507 C154.3169,410.8537 153.0149,421.4557 153.5729,422.7577 C154.1309,424.0597 148.9229,426.8497 148.9229,426.8497 C148.9229,426.8497 145.9469,423.3167 146.3189,419.2237 C146.6909,415.1317 145.9859,410.8537 147.2689,409.1807 C148.5509,407.5067 149.4809,403.2287 149.4809,400.0677 C149.4809,396.9057 148.9229,363.2417 148.3649,361.1017 C147.8069,358.9627 147.2689,356.9167 147.2689,356.9167 L149.4809,353.9417 L155.9909,361.1017 C155.9909,361.1017 155.4319,367.1467 155.9909,368.6347 C156.5489,370.1217 158.0359,372.3537 158.0359,372.3537 C158.0359,372.3537 157.4789,373.8417 158.0359,374.7717 C158.5939,375.7027 153.9449,376.4467 153.7589,380.3517 L153.7589,380.3517 Z M163.7559,203.7997 L165.0109,203.9407 L164.1279,220.3067 L161.4769,220.5397 C161.4769,220.5397 161.6629,220.3537 161.7559,219.8417 C161.8489,219.3307 161.0589,219.3307 159.5709,219.4237 C158.0829,219.5167 156.1299,221.2377 156.1299,221.2377 C156.1299,221.2377 154.7819,221.2377 153.9449,221.3767 C153.1079,221.5157 151.9449,225.0497 151.4799,226.5377 C151.0149,228.0267 153.1539,227.6077 154.4559,227.6547 C155.7579,227.7007 156.7349,225.5607 157.6179,225.5147 C158.5009,225.4677 161.1519,225.1427 161.1519,225.1427 L161.2449,226.8637 L161.9889,227.0027 L161.8489,232.7677 L162.8719,233.0057 L161.9419,262.2477 L158.9659,262.2477 L158.5939,263.3647 L155.8049,262.9927 C155.8049,262.9927 155.0609,262.0617 154.5029,260.9467 C153.9449,259.8297 154.3169,259.8297 151.7129,259.8297 C149.5549,259.8297 150.5879,262.3787 151.0059,263.2537 C150.9129,263.2977 150.7769,263.6857 150.5969,265.0377 C150.2249,267.8287 152.4569,266.8987 152.4569,266.8987 C152.4569,266.8987 152.6429,267.8287 153.7589,269.3167 C154.8749,270.8027 155.2469,270.2457 157.1059,270.0597 C158.9659,269.8737 157.6639,267.0837 157.6639,267.0837 L159.5239,266.5267 L159.8959,274.1527 L161.5699,275.0807 L159.1519,337.2317 L149.4809,339.8057 L146.3189,337.2317 L144.8309,338.8757 L145.3889,343.8987 L143.9009,343.8987 L145.7609,253.1347 L146.6909,253.1347 L147.4349,247.5547 L147.0629,244.9517 L149.1089,246.2527 L153.3869,245.3237 L151.8989,240.6727 L150.0389,240.6727 L149.8529,236.5807 L150.5969,235.4647 L149.1089,231.1877 L145.7609,231.1877 L146.6479,181.6787 C157.4579,184.0447 166.9169,185.8987 166.9169,185.8987 L166.2669,189.3857 C166.2669,189.3857 165.4759,190.4557 164.5459,192.0377 C163.6159,193.6187 163.7559,203.7997 163.7559,203.7997 L163.7559,203.7997 Z M166.4059,415.1317 L167.3359,372.3537 L183.3309,388.5357 L191.8869,395.2317 L166.4059,415.1317 Z M172.1719,423.6877 C172.1719,423.6877 170.1259,422.5727 168.0799,421.8287 L193.9329,401.7417 L172.1719,423.6877 Z M208.6519,398.6107 C207.8149,397.8287 207.3239,397.3707 207.3239,397.3707 L209.2309,395.2167 C209.0249,396.3327 208.8319,397.4727 208.6519,398.6107 L208.6519,398.6107 Z M202.8599,392.6267 L168.0799,355.8007 L168.0799,347.4317 L171.7999,345.7577 L177.3789,350.2217 L179.1459,353.9417 L203.7899,377.7477 L208.4399,380.3517 L212.1599,383.7007 L202.8599,392.6267 Z M211.8089,401.5607 C212.2039,397.3937 212.7319,392.5857 213.2079,390.7257 L215.9729,387.6067 L218.6579,389.4407 L222.3889,395.9747 L229.1949,402.3517 L224.6329,413.6167 C220.1319,409.3587 215.2429,404.7737 211.8089,401.5607 L211.8089,401.5607 Z M249.6239,442.2037 C249.1559,441.4907 248.7129,440.7507 248.3349,439.9847 C245.4749,434.1967 243.7049,435.7327 243.7049,435.7327 C243.7049,435.7327 237.4999,426.6067 236.0589,424.7107 C235.5599,424.0527 231.9449,420.5577 227.4389,416.2767 L232.3199,405.2807 L253.4859,425.1147 L249.6239,442.2037 Z M255.6409,415.5787 L236.5339,395.7877 L240.5819,386.6667 L244.3029,361.8607 C252.6559,362.9427 259.8359,363.5677 264.8829,363.9197 C264.8909,364.7797 264.9239,365.6317 264.9479,366.4877 L263.6139,366.4877 L260.6379,374.4857 L258.9639,374.4857 L259.8479,368.0687 C259.8479,368.0687 259.4289,367.3247 257.4759,367.3247 C255.5239,367.3247 254.8259,367.8357 253.9889,370.4867 C253.1519,373.1357 252.8729,373.9727 252.8729,373.9727 C252.8729,373.9727 252.3149,374.2517 252.0829,376.7627 C251.8499,379.2747 252.0829,379.6457 252.0829,379.6457 C252.0829,379.6457 250.7129,383.5517 251.9789,384.5757 C253.2449,385.5977 255.1519,385.8767 255.8489,384.5757 C256.5459,383.2737 257.5279,379.9247 257.5279,379.9247 L259.6619,380.2497 L258.4989,386.5747 L261.9869,387.5037 L255.6409,415.5787 Z M271.3869,409.3467 L269.3409,409.3467 C269.3409,409.3467 264.6909,411.0087 265.4349,412.6827 C266.1789,414.3577 267.6669,418.6337 267.6669,418.6337 C267.6669,418.6337 265.2739,418.4487 265.3539,419.7497 C265.4349,421.0517 264.7149,422.7257 265.7609,423.2847 C266.5669,423.7137 266.7089,423.6467 266.7329,423.5937 L266.3009,426.6187 L259.7749,419.8607 L265.9499,392.6307 L268.0899,391.6427 C269.4109,397.5077 271.1089,403.2267 273.1889,408.7647 L271.3869,409.3467 Z M513.3459,299.0037 C512.8669,298.8437 511.4869,299.2627 510.3869,299.6517 C509.0549,297.2377 507.6339,294.8817 506.1579,292.5637 C508.3619,291.8397 513.4189,290.1787 515.0139,289.6757 C515.4869,293.1717 516.1479,298.1207 516.8869,303.8417 C515.6649,301.9007 513.8809,299.1817 513.3459,299.0037 L513.3459,299.0037 Z M511.1869,288.0407 C508.5289,288.4667 505.5089,290.0427 505.5089,290.0427 L507.2889,283.8937 L518.1999,284.3747 C518.1999,284.3747 513.8449,287.6147 511.1869,288.0407 L511.1869,288.0407 Z M517.6369,315.1657 C517.8499,315.0497 518.0639,314.9327 518.2739,314.8157 C518.3909,315.7597 518.5089,316.7127 518.6259,317.6727 C518.3149,316.8287 517.9639,316.0027 517.6369,315.1657 L517.6369,315.1657 Z M519.9309,423.7277 L523.5039,420.2327 C524.5959,421.2917 525.5239,422.3197 526.3039,423.2777 L519.9309,423.7277 Z M655.0959,397.9707 L655.0959,404.1087 C655.0959,404.1087 648.8649,394.2507 648.5859,394.0657 L649.2369,393.5997 C649.2369,393.5997 652.0269,397.1337 652.9569,397.6927 C653.8869,398.2497 655.0959,397.9707 655.0959,397.9707 L655.0959,397.9707 Z M538.6809,262.8017 C538.6809,262.8017 540.3429,273.8617 539.5099,273.1377 C538.6779,272.4147 536.6359,271.8397 536.6359,271.8397 L535.4999,268.7677 L535.7889,266.1327 L537.2209,265.8707 L537.9869,262.7257 L538.6809,262.8017 Z M536.7949,231.9017 L537.8879,241.6757 L537.2599,241.6697 L535.8209,239.0057 L534.4259,238.9927 L533.8359,235.0107 C534.8169,234.6017 536.7949,231.9017 536.7949,231.9017 L536.7949,231.9017 Z M547.9809,455.4677 L542.9349,433.1447 L570.0979,438.2377 L547.9809,455.4677 Z M590.6959,422.2657 L576.3289,433.9837 L536.8989,428.4037 L590.6959,416.4767 L590.6959,422.2657 Z M590.6959,384.3927 L590.1389,385.8587 L590.6959,411.7347 L534.1319,422.9627 L563.7049,371.4207 L585.8839,375.1177 C587.5579,375.9547 590.6959,375.9547 590.6959,375.9547 L590.6959,384.3927 Z M589.5339,368.6767 C588.7899,369.4207 586.4649,369.8857 585.3489,369.9787 C584.2329,370.0727 566.2849,366.5377 566.2849,366.5377 C566.2849,366.5377 580.1409,341.0577 581.0719,340.0357 C582.0019,339.0117 584.3259,336.7807 585.1629,334.9197 C585.9999,333.0597 587.4879,331.3857 587.4879,331.3857 L589.9059,331.3857 C589.9059,331.3857 590.0919,331.8507 591.3009,331.9447 L591.9519,367.0027 C591.9519,367.0027 590.2779,367.9327 589.5339,368.6767 L589.5339,368.6767 Z M595.7649,180.8967 C595.7649,180.8967 595.7179,180.1287 595.2769,179.9897 C595.2769,179.9897 595.2529,178.5017 594.2999,178.3387 C593.3469,178.1767 592.7189,178.1527 592.7189,178.1527 L592.7189,177.2467 L593.3929,177.2237 L593.4169,174.3867 L593.0449,174.2937 L593.0449,173.2937 L593.7649,173.2937 L593.7189,167.3657 C593.7189,167.3657 592.8119,166.8307 592.6259,166.8307 L592.2309,146.6977 C592.2309,146.6977 597.9849,145.7557 598.4729,145.6507 L599.6939,151.7187 L599.2059,151.9637 L599.5189,153.6717 L599.8329,153.6717 C599.8329,153.6717 599.4849,159.1827 601.8909,160.5417 C604.2969,161.9017 605.3779,162.9487 607.2259,162.9827 C609.0749,163.0177 613.3989,163.2277 614.2359,162.9827 C615.0729,162.7387 616.8509,160.9967 616.8509,160.9967 C616.8509,160.9967 617.2349,162.1467 618.2809,162.2867 C619.3279,162.4247 620.4429,162.6347 621.0359,161.9017 C621.6289,161.1697 622.6749,159.9837 622.6749,159.9837 L624.3139,159.9147 C624.3139,159.9147 624.7329,161.5187 625.5699,161.7277 C626.4069,161.9367 632.4749,162.8437 634.2179,162.6697 C635.9619,162.4957 639.2399,161.4487 640.2509,160.4737 C641.2629,159.4967 641.6109,159.0427 643.1809,159.0787 C644.7499,159.1127 646.9469,159.1467 646.9469,159.1467 L648.2139,188.5447 C648.2139,188.5447 627.6619,185.7557 619.5709,185.4767 C611.4809,185.1977 605.7149,185.0117 605.7149,185.0117 C605.7149,185.0117 604.3199,183.5237 600.7869,182.9657 C597.2529,182.4077 595.8579,182.3147 595.8579,182.3147 L595.7649,180.8967 Z M647.9349,191.2427 L647.9349,194.1717 C647.9349,194.1717 642.3089,192.6367 637.8919,192.7067 C637.8919,192.7067 645.0059,192.2187 647.9349,191.2427 L647.9349,191.2427 Z M597.9499,270.0787 L598.8569,270.0787 L598.7169,265.1267 C599.2749,265.1977 599.7639,263.7327 599.7639,263.7327 L599.7639,259.3377 L602.4139,259.3377 L602.2739,254.3857 L596.9739,254.3857 L596.2759,218.6057 L597.0439,218.6057 L597.0439,218.0477 C597.0439,218.0477 598.0199,218.1187 599.2749,218.0477 C600.5309,217.9777 600.1819,217.7007 600.3219,217.0727 C600.4609,216.4447 599.6239,216.0267 599.6239,216.0267 L599.2749,213.2367 L600.6699,212.9567 C602.0649,212.6777 600.9489,212.1207 600.7399,211.7707 C600.5309,211.4217 601.0889,210.3757 601.2979,209.1907 C601.5069,208.0047 600.3219,207.9347 600.3219,207.9347 C600.3219,206.6107 599.9029,204.1687 599.9029,204.1687 C602.1349,204.0297 607.1569,200.8907 607.1569,200.8907 C607.1569,200.8907 616.3629,200.2627 622.9189,200.1937 C629.4759,200.1227 648.2139,196.7057 648.2139,196.7057 L649.0739,214.7007 L642.3789,214.9787 L642.6579,224.3257 L643.7039,224.6737 C643.7039,224.6737 642.5879,225.5107 643.7739,226.2787 C644.9589,227.0457 646.0749,224.3947 646.0749,224.3947 L647.3999,224.4647 L647.6789,233.7417 L649.9109,233.8807 L651.6549,287.9337 L645.6569,287.8647 L645.6569,288.7017 L643.1459,288.8407 L643.9829,290.0957 C643.9829,290.0957 643.3549,290.0277 642.7269,290.0957 C642.0999,290.1657 641.0529,289.8177 641.0529,289.8177 C641.0529,289.8177 639.5889,287.3757 639.3099,287.3057 C639.0309,287.2377 638.5429,286.8877 638.2639,287.8647 C637.9849,288.8407 640.0069,290.9007 640.0069,290.9007 C640.0069,290.9007 639.4489,293.3737 640.5649,294.6297 C641.6809,295.8847 642.9369,295.5377 642.9369,295.5377 C642.9369,295.5377 645.2379,298.7457 646.2839,299.3727 C647.3309,299.9997 649.3529,299.6527 649.3529,299.6527 L649.9809,307.2537 L651.5149,307.6027 C651.5149,307.6027 653.9559,383.3467 653.8169,383.9747 C653.6779,384.6027 651.1669,385.0937 651.1669,385.0937 L646.6329,385.0937 C646.6329,385.0937 646.1449,384.2537 645.1689,384.0447 C644.1919,383.8347 643.3549,385.1617 643.0759,385.0907 C642.7969,385.0207 616.9209,342.9637 615.3869,340.9417 C613.8519,338.9187 613.2939,336.9657 612.5269,335.1527 C611.7599,333.3387 608.8309,329.1547 607.7839,327.1317 C606.7379,325.1097 601.7159,325.1097 601.7159,325.1097 C601.5069,323.3657 599.1359,323.3657 599.1359,323.3657 L597.9499,270.0787 Z M626.2669,369.1417 C626.2669,369.1417 612.2249,370.2577 609.7139,370.4447 C607.2029,370.6297 604.0409,369.4207 603.0179,368.8637 C601.9959,368.3047 600.5079,367.7467 600.5079,367.7467 L599.6709,331.9447 L600.8789,331.9447 L601.2519,331.3857 L603.9479,331.9447 C603.9479,331.9447 606.4589,334.7347 606.9239,336.1287 C607.3889,337.5247 609.3419,342.3607 609.3419,342.3607 L626.2669,369.1417 Z M599.2059,416.4767 L599.2059,390.3447 C599.2059,390.3447 599.6709,389.7877 599.8569,388.9507 C600.0429,388.1137 599.6709,387.2767 599.6709,387.2767 L603.5759,386.7177 L605.3429,411.6407 L599.2059,416.4767 Z M608.9699,409.0377 L607.0169,383.4627 C607.0169,383.4627 607.1099,382.0697 605.5289,382.0697 C603.9479,382.0697 602.5529,381.6977 602.5529,381.6977 L602.5529,376.1177 C602.5529,376.1177 605.2499,376.4897 607.0169,376.1177 C608.7839,375.7457 613.6199,375.1867 615.2939,375.0937 C616.9679,375.0007 629.1499,373.6067 629.1499,373.6067 L639.1009,389.3227 C639.1009,389.3227 631.1959,393.4137 628.3129,395.4597 C625.4299,397.5057 608.9699,409.0377 608.9699,409.0377 L608.9699,409.0377 Z M655.5609,455.2557 C654.9099,455.9997 650.8179,455.7207 650.8179,455.7207 L610.2719,428.7517 L609.7139,417.4077 C609.7139,417.4077 630.1729,401.5047 632.3119,400.3887 C634.4509,399.2737 642.4479,395.5527 642.4479,395.5527 L655.7469,416.9427 L657.3279,454.7907 C657.3279,454.7907 656.2119,454.5117 655.5609,455.2557 L655.5609,455.2557 Z M677.8799,407.9677 C681.7849,412.5717 689.5969,424.8457 689.5969,424.8457 L686.2489,427.9147 L669.0919,398.0637 C669.0919,398.0637 673.9739,403.3647 677.8799,407.9677 L677.8799,407.9677 Z M668.4869,446.3067 C668.1149,449.7267 669.5099,453.3957 669.5099,453.3957 L667.9289,455.7717 L667.4639,436.8427 C669.9749,440.1907 670.2539,441.7707 670.2539,441.7707 C670.2539,441.7707 668.8589,442.8867 668.4869,446.3067 L668.4869,446.3067 Z M676.9029,439.6327 C676.0659,436.5637 666.9989,423.1717 666.9989,423.1717 L666.0229,405.3177 C668.3939,405.5957 670.4859,409.5017 671.7419,411.7347 C672.9969,413.9657 683.5989,433.4957 683.5989,433.4957 L678.5769,440.3297 C678.5769,440.3297 677.7399,442.7017 676.9029,439.6327 L676.9029,439.6327 Z M678.4379,450.7917 L687.9229,436.8427 C687.9229,436.8427 690.2939,437.9587 690.5729,439.9127 L678.4379,450.7917 Z M734.0949,503.6607 C734.0949,503.6607 728.2359,499.3357 726.9809,498.0797 C725.7259,496.8257 699.6399,453.3027 698.5239,450.7917 C697.4089,448.2807 699.6399,447.0257 699.6399,447.0257 C699.6399,447.0257 700.7559,449.5377 702.0119,450.7917 C703.2669,452.0467 707.4519,453.3027 708.5679,454.2787 C709.6839,455.2557 732.0029,496.6847 733.2579,499.0567 C734.5139,501.4277 734.0949,503.6607 734.0949,503.6607 L734.0949,503.6607 Z" id="Fill-1" fill="#020203" mask="url(#mask-2)"></path>
                </g>
                <path d="M253.7988,241.509 L217.5748,234.48 C217.5748,234.48 205.9308,231.524 204.5038,230.981 C203.0768,230.438 187.8268,226.949 187.8268,226.949 C187.5558,227.342 186.4788,227.036 186.4788,227.036 C186.4788,227.036 183.3448,226.764 183.5728,225.376 C183.8008,223.988 185.7428,224.327 186.8678,224.528 C187.9918,224.729 188.2938,225.391 188.2938,225.391 C188.2938,225.391 201.0518,227.649 205.3928,227.831 C209.7348,228.013 218.4908,229.928 218.4908,229.928 L306.1078,246.665 L318.7758,249.174 C318.7758,249.174 320.1488,249.604 320.0948,251.59 C320.0418,253.576 318.2318,253.981 318.2318,253.981 L312.8888,252.983 L253.7988,241.509 Z" id="Fill-4" fill="#FEFEFE"></path>
                <path d="M518.3628,276.1599 L518.1908,275.9019 L516.2318,271.2889 C516.2318,271.2889 513.8468,269.3579 513.3928,268.6769 C512.9388,267.9949 512.4848,266.7459 510.2128,266.5189 C507.9418,266.2919 501.3558,263.2259 500.5608,262.4309 C499.7658,261.6359 499.6528,259.1379 499.6528,257.5479 C499.6528,255.9579 499.0848,255.2769 498.2898,254.0279 C497.4948,252.7789 494.3788,243.0829 493.4698,241.4939 C492.5618,239.9039 492.5618,238.8819 492.9018,236.9509 C493.2428,235.0209 491.6528,234.3389 490.5168,233.5439 C489.3818,232.7499 490.8578,231.7279 490.5168,230.1379 C490.1768,228.5479 489.4948,227.0719 488.9278,225.4819 C488.3598,223.8919 489.2678,223.7789 487.6788,222.4159 C486.0888,221.0529 486.8838,222.4159 485.8618,218.5549 C484.8398,214.6939 482.5678,215.3749 481.0918,214.2399 C479.6158,213.1039 482.7948,212.4229 482.9088,209.1299 C483.0228,205.8359 477.2308,204.8139 476.8908,204.7009 C476.5498,204.5869 471.0988,181.6479 469.6228,169.1569 C468.1468,156.6659 462.1278,142.1869 461.5028,140.9949 C460.8788,139.8019 459.9138,139.3479 453.7248,136.3389 C448.0258,133.5679 439.3958,133.6849 438.0628,133.7209 C439.4798,129.3259 436.7218,122.2499 435.1578,119.0129 C434.8648,118.4079 433.9958,118.9369 434.2638,119.5359 C435.0538,121.3009 435.9838,124.3659 436.3288,127.3149 C435.6858,126.5339 435.1488,126.4069 435.3278,127.4809 C435.7658,130.1089 433.6688,131.2569 431.4828,132.2579 C432.0018,123.4799 430.3648,111.4879 437.7518,105.8639 C438.4098,105.3629 437.7888,104.2309 437.0868,104.7279 C433.1588,107.5119 431.5718,111.5989 430.7438,116.2379 C430.2448,119.0379 429.7738,122.0449 429.5358,125.0629 L426.9838,125.8639 C427.1368,123.9899 426.8608,122.0239 426.4848,120.5389 C426.0018,118.6319 425.1658,116.8989 424.0718,115.3529 C425.9238,112.7959 427.5858,110.1049 428.5568,107.4109 C429.8528,103.8149 428.4398,100.4079 426.8448,97.1649 C426.0108,95.4719 425.0598,93.7809 423.9948,92.1669 C423.9698,91.4809 423.9488,90.7929 423.9298,90.1069 C426.9298,94.1589 428.2998,99.5309 430.1548,104.4209 C430.2658,104.7129 430.7898,104.7079 430.7508,104.3399 C430.1128,98.4349 428.0908,91.9039 423.8558,87.6979 C423.6468,81.3989 423.1278,75.2059 419.2498,69.8069 C418.8288,69.2219 418.3668,68.6769 417.9048,68.1329 C418.0008,67.3179 418.1008,66.5039 418.2408,65.6979 C418.2978,65.3739 417.8138,65.0949 417.6598,65.4529 C417.4198,66.0129 417.2168,66.5799 417.0338,67.1499 C412.9558,62.7889 407.5728,59.8509 401.8878,58.0309 C400.2338,53.9439 401.8048,49.7149 402.3608,45.2729 C403.0078,40.1029 400.9778,33.9019 394.8278,34.1789 C393.8718,34.2219 393.8608,35.6879 394.8278,35.6729 C402.9278,35.5429 400.2238,45.3409 399.6238,52.8699 C399.4478,52.4599 399.2738,52.0549 399.0988,51.6489 C399.1528,51.4659 399.1748,51.2729 399.1328,51.0789 C398.8328,49.6669 398.2868,48.6779 397.4318,47.9459 C396.9708,47.0299 396.4588,46.1469 395.8408,45.3299 C395.2918,40.8999 392.0478,36.7259 388.3838,34.1879 C388.3178,33.7429 388.2308,33.3009 388.1198,32.8659 C389.5948,29.6149 390.4628,25.6619 389.1088,22.4509 C388.9128,21.9869 388.2698,22.0399 388.2228,22.5709 C388.0408,24.6259 388.3148,26.6389 387.9908,28.7019 C387.8658,29.4979 387.6778,30.2749 387.4568,31.0399 C386.9038,29.8549 386.1288,28.8239 385.0338,28.1629 C384.2928,27.7169 383.5118,27.5299 382.7558,27.5269 C385.5368,24.2249 388.4848,21.0409 391.2488,17.7439 C391.7188,17.1839 390.9488,16.3789 390.4338,16.9289 C386.3658,21.2659 381.2078,25.9269 377.6098,31.2619 C377.5018,31.0969 377.3948,30.9349 377.2868,30.7669 C377.0928,28.1439 377.4418,25.6069 379.5148,23.6039 C380.9018,22.2629 382.6008,21.2829 383.9828,19.9229 C386.1288,17.8109 387.7588,15.2459 388.6708,12.3769 C388.8768,11.7279 387.9068,11.3249 387.5758,11.9149 C386.1978,14.3719 384.7978,16.7139 382.7828,18.7229 C381.5668,19.9349 380.0778,20.9019 378.8008,22.0639 C381.1988,19.8399 383.4688,17.6039 384.5508,14.4089 C384.7498,13.8209 383.8688,13.4739 383.5638,13.9929 C381.3938,17.6959 378.2718,20.3219 375.4128,23.3529 C375.4298,22.7069 375.4538,22.0629 375.5138,21.4299 C376.1698,14.5749 380.9498,11.5379 385.6838,7.4169 C386.1258,7.0329 385.5628,6.3919 385.0838,6.6389 C382.0008,8.2269 379.1868,10.3809 377.1628,13.0899 C377.1118,12.1119 376.9158,11.1129 376.5348,10.0909 C376.3318,9.5449 375.4738,9.5909 375.4748,10.2339 C375.4828,15.0229 374.2608,17.0809 371.8018,20.6659 C370.2008,16.5589 367.5478,13.7189 363.8428,10.8649 C364.8248,7.3289 366.7488,3.9849 369.7568,0.8969 C370.1438,0.4989 369.6128,-0.2691 369.1388,0.0959 C364.3078,3.8099 361.5058,9.2529 360.8788,15.3009 C360.5118,18.8449 361.1658,21.8269 362.0358,25.2239 C362.3508,26.4539 362.4928,25.8039 362.4338,27.5949 C362.3598,29.8449 362.2908,28.6759 361.4018,30.2049 C360.5838,31.6109 359.6468,32.6839 359.0938,34.2529 C358.8678,34.8939 358.7028,35.5379 358.5658,36.1819 C356.8318,33.2429 356.1828,30.0859 356.4448,26.6589 C356.5218,25.6629 355.0118,25.6919 354.9078,26.6589 C354.3498,31.8289 356.0418,34.7849 358.2378,38.6739 C358.2358,38.7179 358.2298,38.7619 358.2278,38.8059 C353.9708,34.4919 346.8848,28.1369 353.0228,22.8559 C353.6758,22.2939 352.7428,21.4159 352.0918,21.9249 C348.8348,24.4729 348.7218,28.6419 350.3418,32.2509 C351.2578,34.2929 352.7068,35.8989 354.2628,37.4869 C355.7978,39.0519 357.1518,40.4509 358.3568,41.9609 C358.6358,44.2499 359.2828,46.5519 360.1348,48.8579 C359.9238,50.6199 359.6068,52.4329 359.3458,54.1859 C359.3278,54.0449 359.3298,53.9059 359.3098,53.7659 C358.2758,46.4879 354.5688,40.0819 349.1688,35.1739 C348.5448,34.6059 347.6248,35.5129 348.2378,36.1039 C349.8778,37.6859 351.3108,39.4319 352.5518,41.2909 C352.2408,41.3499 351.9788,41.6169 352.0488,42.0309 C352.1418,42.5779 352.1748,43.1169 352.2288,43.6589 C351.6478,42.0789 351.0648,40.5109 350.4598,38.9879 C350.1678,38.2529 348.9778,38.5449 349.2478,39.3219 C350.3188,42.3969 351.2648,45.6279 352.2728,48.8539 C352.2438,49.2289 352.2228,49.6039 352.1828,49.9769 C351.4348,48.9889 350.7658,47.9189 350.2898,46.6199 C348.1018,40.6529 348.3068,34.0959 346.1828,28.0769 C343.5838,20.7109 338.1808,11.6459 344.3288,4.4759 C344.8738,3.8399 343.9988,2.9319 343.3988,3.5449 C339.0988,7.9339 338.9118,13.8949 340.5218,19.5579 C341.5598,23.2119 343.2928,26.6229 344.4148,30.2469 C345.5688,33.9719 345.9128,37.8249 346.5988,41.6449 C342.4608,36.9819 337.2388,32.9019 337.5008,26.1569 C337.5448,25.0269 335.8338,25.0459 335.7558,26.1569 C335.3818,31.5139 338.1018,35.6759 341.4878,39.5829 C342.6658,40.9419 343.7228,42.2639 344.6838,43.5889 C344.2438,43.6409 343.8858,44.1739 344.1088,44.6719 C344.1848,44.8429 344.2708,45.0099 344.3518,45.1789 C343.4668,46.7489 342.0618,48.2219 341.2678,49.6429 C341.1478,49.8589 341.0738,50.0939 340.9648,50.3149 C340.8138,49.8819 340.6848,49.4369 340.5608,48.9889 C340.0078,43.8799 338.8508,39.1869 335.7858,34.4359 C335.6378,34.2069 335.4258,34.1299 335.2228,34.1429 C334.4808,32.4339 333.6918,30.8039 332.9348,29.3409 C332.6218,28.7339 331.7558,29.1719 331.8808,29.7849 C333.4968,37.6549 338.0228,43.8099 335.7028,52.0209 C332.8158,48.4399 329.0928,45.4589 327.7948,40.9959 C327.5858,40.2749 326.4728,40.5779 326.6688,41.3069 C328.0478,46.4369 332.4908,49.1849 335.2848,53.4049 C334.6688,55.3239 334.0198,57.2009 333.5988,59.0899 C332.5998,60.6339 331.5128,62.1359 330.4158,63.6349 C329.8598,64.3929 329.4228,65.0509 329.0378,65.6759 C329.0068,65.4939 328.9568,65.3179 328.9218,65.1369 C330.4128,61.8429 331.1448,58.0819 330.6518,54.7539 C329.8838,49.5699 325.8278,45.8069 322.4578,42.0559 C322.4678,40.4789 322.2498,38.8989 322.6118,37.2369 C322.7948,36.3929 321.6518,36.1119 321.3428,36.8869 C320.6748,38.5589 320.9048,39.6509 320.7098,41.4299 C320.3638,44.5929 319.4588,45.6529 317.8658,48.0409 C316.8978,49.4929 316.1228,50.9679 315.5658,52.5389 C313.7708,48.6349 312.0588,44.5179 311.9018,40.1719 C311.8128,37.6949 312.1538,35.1319 313.4878,32.9839 C315.7998,29.2589 321.3308,28.4499 323.4578,32.8499 C323.5798,33.1039 324.0138,32.9249 323.9168,32.6569 C321.7488,26.6739 314.1168,28.5719 311.6548,33.3439 C307.9438,40.5359 311.5318,48.7619 314.7848,55.8739 C314.3488,60.0899 315.8478,64.5909 319.3288,66.9449 C321.3878,72.6989 323.3018,78.8559 325.5558,84.8429 C322.2038,91.1759 326.0278,101.1419 330.0208,106.5929 C330.3598,107.6619 330.7658,108.6509 331.2108,109.4799 C331.3438,109.7279 331.7888,109.6269 331.7618,109.3299 C331.5158,106.6569 331.6228,103.8469 331.8128,101.1629 C331.8738,100.2919 331.9258,99.5359 332.0518,98.8619 C333.2378,100.8699 334.5228,102.7909 335.9478,104.5849 C336.0658,105.8179 335.9578,106.9769 335.7108,108.3979 C334.8538,113.3209 337.7928,117.0889 341.2998,120.2089 C341.6478,120.5179 342.2888,120.1059 341.9848,119.6799 C340.8138,118.0419 339.4308,116.4079 338.5768,114.5709 C337.0978,111.3879 337.8298,109.7969 338.3658,107.3629 C339.5078,108.5619 340.7518,109.6619 342.0578,110.7019 C341.8508,113.8719 342.3588,116.9979 342.0768,120.2519 C342.0308,120.7849 342.9338,120.9149 343.0208,120.3789 C343.4908,117.4749 343.0768,114.5689 343.2808,111.6639 C343.4108,111.7579 343.5238,111.8659 343.6548,111.9579 C343.9918,112.1949 344.3108,112.0439 344.4778,111.7729 C344.8388,111.9549 345.2058,112.1309 345.5808,112.2969 C345.9738,114.9049 346.9948,117.3439 347.3978,119.9429 C347.9678,123.6149 346.3678,125.8489 344.6488,128.8589 C344.4708,129.1709 344.8208,129.4909 345.1248,129.3349 C345.2688,129.2599 345.3788,129.1719 345.5128,129.0929 C344.1488,131.3579 342.8508,133.6909 342.2288,136.2699 C341.0428,141.1919 342.1518,147.5969 344.4878,152.4379 C341.2668,156.4289 336.0758,166.2089 334.5168,169.0149 C332.8138,172.0809 332.5578,174.8069 332.8138,176.8509 C333.0688,178.8949 331.1098,184.3449 329.8328,189.0299 C328.5548,193.7139 329.3218,204.7859 329.6618,206.5749 C330.0028,208.3629 326.9368,214.6659 326.0848,216.8799 C325.2338,219.0939 323.0188,219.7759 322.1678,221.3939 C321.3158,223.0119 321.4858,225.3119 317.7388,226.7599 C313.9908,228.2069 312.7138,230.3369 312.2028,230.9329 C311.6918,231.5289 308.5398,232.4659 306.4108,233.5729 C304.2818,234.6799 300.4488,234.3389 298.4908,234.4249 C296.5318,234.5099 293.6358,234.4249 293.6358,234.4249 C293.6358,234.4249 292.2728,233.1469 290.6548,232.2099 C289.0368,231.2729 283.4158,231.1029 281.4568,231.0179 C279.4978,230.9329 271.4068,234.8499 271.4068,234.8499 C271.4068,234.8499 265.6158,233.0619 264.5928,234.9359 C263.5708,236.8089 266.7228,238.9389 266.7228,238.9389 L266.6378,240.9829 L260.9308,243.1969 C260.9308,243.1969 259.3978,244.8149 259.4828,247.0299 C259.5688,249.2439 261.6978,250.6919 263.2308,250.5219 C264.7638,250.3509 268.6818,248.3069 268.6818,248.3069 C268.6818,248.3069 268.6818,249.1589 269.1928,250.7769 C269.7038,252.3949 272.1728,254.0989 272.7698,254.0129 C273.3658,253.9279 273.4508,255.7169 274.3878,256.7389 C275.3248,257.7609 277.1128,258.8679 278.3058,259.2939 C279.4978,259.7199 279.3278,260.3159 280.1788,261.5079 C281.0308,262.7009 281.9678,262.9559 284.0968,262.7859 C286.2258,262.6159 290.1438,260.5709 290.1438,260.5709 C290.1438,260.5709 289.2918,257.5899 291.2508,263.0409 C293.2098,268.4919 295.6798,266.8739 297.3828,266.1069 C299.0868,265.3409 307.2628,264.7449 309.7328,264.4039 C312.2028,264.0629 318.5048,259.0379 321.1448,257.8459 C323.7858,256.6539 322.4228,255.9719 323.6148,254.6949 C324.8078,253.4169 328.9808,252.9919 329.9178,251.2029 C330.8548,249.4139 336.8168,244.6449 339.8828,242.0049 C342.9488,239.3639 345.5038,238.6829 348.0588,235.7019 C350.6138,232.7209 353.9948,232.1029 354.8718,227.1849 C356.3528,218.8829 358.6198,220.1159 358.6198,220.1159 C358.6198,220.1159 358.1088,228.5479 357.3418,235.0209 C356.5748,241.4939 353.3388,253.3319 354.3608,256.2279 C355.3828,259.1239 356.1498,259.2939 353.6798,262.7859 C351.2098,266.2779 352.8278,268.8329 352.7428,271.6429 C352.6578,274.4539 351.8058,276.3279 351.3798,279.1389 C350.9538,281.9489 355.2128,283.4819 355.2128,283.4819 C354.7018,284.3329 351.8908,285.7809 350.7368,286.3779 C349.5818,286.9739 348.6548,290.2949 350.1028,293.7019 C351.5508,297.1089 350.1598,299.1809 349.4778,300.0899 C348.7968,300.9979 346.5258,310.9909 346.5258,310.9909 L344.4818,316.5039 L415.3418,317.2939 C415.3418,317.2939 490.0588,304.9149 489.2078,304.5319 C489.2078,304.5319 477.8128,283.3119 475.4278,281.5649 C473.0438,279.8199 470.0628,280.7559 469.4668,279.7339 C468.8708,278.7119 470.4888,276.1999 471.4258,274.6669 C472.3618,273.1339 470.9998,270.5359 470.0628,269.6419 C469.1258,268.7479 468.1468,270.7489 466.7408,270.4079 C465.3358,270.0679 463.6328,262.8709 463.0788,261.7209 C462.5248,260.5709 461.5028,255.2059 460.1828,252.1399 C458.8628,249.0739 458.7778,237.8309 458.7778,237.8309 C459.5018,238.6399 462.2548,240.5009 462.2128,241.2249 C462.1698,241.9489 463.4898,243.2269 464.0868,243.6519 C464.6828,244.0779 464.4268,245.9949 464.2568,246.9739 C464.0868,247.9529 465.0228,249.1029 465.9178,249.9119 C466.8118,250.7209 467.3648,252.8929 467.7058,253.8299 C468.0468,254.7669 470.4738,256.9389 471.0698,257.6629 C471.6658,258.3859 472.7308,261.1539 473.5828,262.1339 C474.4348,263.1129 476.7198,265.2559 476.8908,266.3629 C477.0608,267.4699 479.2888,270.6509 480.9068,271.7149 C482.5248,272.7799 488.8078,281.1399 490.2978,280.3309 C491.7888,279.5219 492.8528,277.9029 492.8528,277.9029 C492.8528,277.9029 496.0038,280.7559 496.9408,281.4379 C497.8778,282.1189 498.6868,281.6509 498.6868,281.6509 C498.3038,282.0339 500.1698,284.4189 500.1698,284.4189 C500.1698,284.4189 505.1518,285.4829 504.4278,286.2069 L514.8688,287.0159 C514.8688,287.0159 516.5728,286.1639 517.0838,285.0999 C517.5948,284.0349 516.8708,281.3949 516.8708,281.3949 C516.8708,281.3949 518.1908,279.6919 518.6588,278.3719 C519.1278,277.0509 518.3628,276.1599 518.3628,276.1599 L518.3628,276.1599 Z M334.7708,82.6239 C334.7378,82.9009 334.7378,83.1819 334.7688,83.4649 C334.6308,83.1799 334.4978,82.8909 334.3688,82.5969 C334.5008,82.6039 334.6338,82.6119 334.7708,82.6239 L334.7708,82.6239 Z M333.2038,63.5339 C333.2448,64.2109 333.3478,64.8969 333.5098,65.5909 C333.5558,66.0839 333.6158,66.5809 333.7048,67.0949 C333.6048,67.0379 333.4958,67.0079 333.3898,66.9699 C333.4518,66.3849 333.4048,65.7639 333.1598,65.0499 C333.0928,64.8529 332.9358,64.6829 332.7528,64.5549 C332.8778,64.2039 333.0348,63.8669 333.2038,63.5339 L333.2038,63.5339 Z M324.8038,69.4219 C324.7218,69.7579 324.9568,70.0479 325.2448,70.1489 C325.1978,70.5969 325.1368,71.0439 325.1228,71.4939 C323.7238,67.4479 322.3768,63.4859 319.8198,59.9449 C319.5548,59.5779 319.1248,59.5589 318.8058,59.7179 C318.2048,58.3439 317.5908,56.9709 316.9648,55.5999 C317.1948,53.6479 317.9288,51.6339 319.2328,49.5849 C320.1938,48.0739 321.3568,46.6799 321.9898,44.9859 C322.1218,44.6309 322.2138,44.2779 322.2838,43.9259 C325.2658,47.5739 328.6608,51.5409 328.7048,56.3119 C328.7208,58.1079 328.3358,59.7599 327.7898,61.3589 C326.5388,58.2179 324.6748,55.2859 322.8778,52.4829 C322.2848,51.5579 320.8168,52.4019 321.3968,53.3489 C323.2878,56.4369 325.3688,59.6449 326.3268,63.1689 C326.4398,63.5819 326.5278,63.9909 326.6018,64.3989 C325.9188,66.0359 325.2288,67.6759 324.8038,69.4219 L324.8038,69.4219 Z M326.8978,68.6589 C326.8958,69.2469 326.8888,69.8359 326.8818,70.4279 C326.8328,69.8969 326.7948,69.3629 326.7698,68.8229 C326.8108,68.7659 326.8568,68.7159 326.8978,68.6589 L326.8978,68.6589 Z M329.1878,102.6239 C327.9578,99.7109 326.9818,96.7239 326.7758,93.4769 C326.6718,91.8329 326.7728,90.2179 327.1008,88.7529 C328.0988,91.1699 329.1778,93.5309 330.3618,95.8069 C329.2138,97.6609 328.9378,100.1479 329.1878,102.6239 L329.1878,102.6239 Z M332.9328,93.5159 C331.4748,90.7019 330.1338,87.8209 328.8668,84.8809 C328.8808,84.8629 328.8958,84.8479 328.9108,84.8299 C330.5718,87.7519 332.6518,90.4939 334.8838,92.9359 C334.6538,92.9829 334.4198,93.0159 334.1928,93.0719 C333.7358,93.1849 333.3188,93.3359 332.9328,93.5159 L332.9328,93.5159 Z M334.9478,97.2679 C334.7188,96.8659 334.5158,96.4519 334.2918,96.0469 C334.3478,96.0209 334.4028,95.9959 334.4618,95.9709 C334.7378,96.1919 335.0718,96.3989 335.4188,96.5839 C335.2368,96.8049 335.0738,97.0319 334.9478,97.2679 L334.9478,97.2679 Z M356.9338,130.0069 C355.9678,130.3629 355.0458,130.8119 354.2158,131.3559 C354.1418,131.0579 354.0828,130.7559 354.0468,130.4479 C355.3858,128.8149 356.6898,127.1819 357.3848,125.1999 C357.5768,124.6549 357.6888,124.0849 357.7718,123.5059 C358.0808,125.6299 357.8528,127.8099 356.9338,130.0069 L356.9338,130.0069 Z M354.1608,127.8729 C354.4728,126.1819 355.2188,124.4769 356.2628,122.9499 C356.1568,123.9419 355.9428,124.9189 355.5258,125.8599 C355.2108,126.5699 354.7168,127.2309 354.1608,127.8729 L354.1608,127.8729 Z M357.5478,57.0699 C356.5438,54.9269 355.6288,52.7219 354.7718,50.4889 C355.0338,48.6909 355.0938,46.9099 354.7508,45.2119 C356.4848,48.8919 357.4568,52.9039 357.5478,57.0699 L357.5478,57.0699 Z M355.8618,59.8089 C356.2858,61.0119 356.6828,62.2239 357.0648,63.4409 C357.0558,63.4989 357.0478,63.5569 357.0388,63.6149 C356.6828,63.0109 356.3428,62.3899 356.0438,61.7259 C355.2648,59.9879 354.6258,58.1919 354.0088,56.3859 C354.7458,57.3989 355.3988,58.4949 355.8618,59.8089 L355.8618,59.8089 Z M352.6358,60.3939 C353.6278,62.9789 354.7858,65.4749 356.3548,67.7599 C356.3348,67.8819 356.3188,68.0049 356.2998,68.1269 C356.1588,68.0079 356.0208,67.8789 355.8788,67.7629 C354.6208,66.7349 353.2788,66.0119 351.8748,65.4869 C352.0678,63.7789 352.3308,62.0819 352.6358,60.3939 L352.6358,60.3939 Z M351.7618,66.6999 C353.2798,67.3839 354.7068,68.3259 356.0918,69.6209 C355.8688,71.3739 355.7468,73.1179 355.8478,74.8309 C355.1878,73.6239 354.4588,72.4589 353.5858,71.3839 C352.9958,70.0889 352.3798,68.8039 351.6828,67.5519 C351.7078,67.2679 351.7348,66.9839 351.7618,66.6999 L351.7618,66.6999 Z M354.9258,114.4879 C354.8628,114.6519 354.8578,114.8379 354.9008,115.0369 C354.6228,115.3219 354.5008,115.7399 354.7738,116.1559 C354.9538,116.4289 355.1088,116.7109 355.2768,116.9879 C354.4218,116.1259 353.5568,115.2279 352.6988,114.3109 C353.4398,114.4069 354.1828,114.4639 354.9258,114.4879 L354.9258,114.4879 Z M350.3918,111.7109 C350.2858,111.5839 350.1738,111.4619 350.0698,111.3339 C350.6578,111.4009 351.2498,111.4189 351.8458,111.3719 C352.8698,111.5879 353.9238,111.7579 354.9968,111.8779 C353.4608,111.9599 351.9328,111.9149 350.3918,111.7109 L350.3918,111.7109 Z M354.4408,78.4629 C354.2718,78.4999 354.0978,78.5299 353.9128,78.5489 C353.5588,77.2719 353.1668,76.0069 352.7548,74.7499 C352.8058,74.8299 352.8558,74.9119 352.9058,74.9929 C353.3808,76.1789 353.8818,77.3459 354.4408,78.4629 L354.4408,78.4629 Z M350.6318,58.3269 C350.7578,57.0959 350.7248,55.8839 350.5828,54.6929 C350.7868,55.2359 350.9898,55.7819 351.1848,56.3509 C350.7038,58.9089 350.1998,61.4799 349.9198,64.1099 C349.9008,64.2949 349.8908,64.4799 349.8728,64.6649 C349.7668,64.5099 349.6598,64.3549 349.5518,64.2009 C349.9818,62.2559 350.4288,60.3149 350.6318,58.3269 L350.6318,58.3269 Z M348.6038,70.1279 C348.6128,70.1349 348.6208,70.1419 348.6288,70.1489 C348.9698,71.0119 349.2858,71.8819 349.5828,72.7569 C349.6208,74.4689 349.7168,76.1799 349.8658,77.8879 C349.5338,77.7769 349.1808,77.6479 348.8148,77.5059 C348.5218,75.0649 348.4348,72.6069 348.6038,70.1279 L348.6038,70.1279 Z M349.2688,100.1189 C349.2588,100.1949 349.2678,100.2639 349.2598,100.3389 C348.9908,100.1229 348.7228,99.9039 348.4528,99.6899 C348.5018,99.6159 348.5518,99.5419 348.6018,99.4689 C348.6618,99.5979 348.7478,99.7249 348.8918,99.8399 C349.0148,99.9379 349.1448,100.0219 349.2688,100.1189 L349.2688,100.1189 Z M342.4008,51.1249 C343.1888,49.6069 344.3678,48.3539 345.2908,47.0059 C346.4738,49.1639 347.7578,51.2749 348.2768,53.7209 C348.8438,56.3929 348.3588,59.0739 347.7878,61.7329 C346.6888,60.2359 345.5918,58.7489 344.5668,57.2269 C344.1648,56.0949 343.8408,54.9439 343.7038,53.7499 C343.6118,52.9399 342.6018,52.7599 342.2338,53.2719 C342.0958,52.9989 341.9458,52.7329 341.8168,52.4549 C341.9968,52.0069 342.1768,51.5579 342.4008,51.1249 L342.4008,51.1249 Z M346.6318,72.6779 C345.8328,70.9409 345.0278,69.2059 344.2818,67.4569 C345.0338,67.9139 345.8088,68.3489 346.5868,68.7889 C346.6148,68.8059 346.6368,68.8239 346.6648,68.8399 C346.5868,70.1229 346.5728,71.4029 346.6318,72.6779 L346.6318,72.6779 Z M344.2098,64.9199 C344.2068,64.9179 344.2048,64.9159 344.2018,64.9139 C344.9368,64.9869 345.6398,65.0779 346.3258,65.1809 C346.5228,65.5539 346.7138,65.9299 346.9058,66.3069 C346.8978,66.3619 346.8948,66.4169 346.8868,66.4719 C345.9718,65.9939 345.0618,65.5049 344.2098,64.9199 L344.2098,64.9199 Z M341.1648,54.4029 C341.6188,55.2969 342.1058,56.1759 342.6328,57.0349 C343.3188,59.5669 344.5518,61.8649 345.8078,64.2039 C345.2568,64.1459 344.7028,64.0959 344.1428,64.0499 C343.7948,64.0209 343.6948,64.3409 343.7868,64.5999 C343.4498,64.3449 343.1358,64.0799 342.8478,63.8039 C341.8668,61.0119 341.1588,58.1469 341.0118,55.1299 C341.0098,55.0939 341.0068,55.0599 341.0058,55.0239 C341.0538,54.8159 341.1098,54.6099 341.1648,54.4029 L341.1648,54.4029 Z M340.8328,64.8019 C340.9938,65.2799 341.1668,65.7569 341.3428,66.2359 C341.3088,66.2909 341.2688,66.3399 341.2468,66.4089 C341.1588,66.6799 341.0868,66.9659 341.0038,67.2419 C340.9158,66.3679 340.8058,65.4969 340.6648,64.6309 C340.7198,64.6899 340.7778,64.7439 340.8328,64.8019 L340.8328,64.8019 Z M338.2568,44.8449 C338.5628,46.2739 338.7868,47.7229 338.8918,49.1919 C338.9258,49.6789 338.9328,50.1689 338.9488,50.6569 C338.8568,50.6509 338.7688,50.6689 338.6868,50.7009 C338.7338,50.3969 338.7948,50.1019 338.8288,49.7919 C338.8738,49.3839 338.4758,49.1669 338.1238,49.2009 C338.1878,48.8249 338.2428,48.4479 338.2828,48.0659 C338.3918,47.0269 338.3538,45.9429 338.2568,44.8449 L338.2568,44.8449 Z M338.0808,53.5479 C338.0398,53.9279 338.0078,54.3099 337.9778,54.6929 C337.8968,54.6619 337.8118,54.6489 337.7258,54.6399 C337.8488,54.2779 337.9748,53.9179 338.0808,53.5479 L338.0808,53.5479 Z M337.9368,60.9339 C338.0218,60.5439 338.0658,60.1409 338.1338,59.7449 C338.4738,60.9119 338.7378,62.1159 338.9598,63.3349 C339.0018,64.3509 339.0608,65.3649 339.1218,66.3719 C339.1388,66.6359 339.2808,66.8099 339.4618,66.9129 C339.6268,68.4979 339.7298,70.0869 339.7828,71.6629 C336.2918,66.8429 337.9368,60.9339 337.9368,60.9339 L337.9368,60.9339 Z M336.6658,95.4809 C336.5868,95.4479 336.5088,95.4139 336.4298,95.3809 C336.5878,95.3529 336.7508,95.3359 336.9158,95.3219 C336.8308,95.3669 336.7498,95.4299 336.6658,95.4809 L336.6658,95.4809 Z M338.3248,102.7239 C338.3208,102.6679 338.3078,102.6219 338.3058,102.5639 C338.1218,102.1089 337.9078,101.6679 337.6658,101.2399 C337.7018,101.0989 337.7458,100.9919 337.7828,100.8579 C337.9048,101.1599 338.0338,101.4609 338.1788,101.7649 C338.2638,102.1799 338.3718,102.5899 338.5058,102.9869 C338.4478,102.8979 338.3828,102.8119 338.3248,102.7239 L338.3248,102.7239 Z M339.0368,98.2479 C339.0398,98.2119 339.0478,98.1759 339.0508,98.1399 C339.0578,98.1319 339.0638,98.1199 339.0718,98.1119 C339.0578,98.1559 339.0498,98.2029 339.0368,98.2479 L339.0368,98.2479 Z M340.7508,101.0049 C340.6428,100.5469 340.5588,100.0849 340.4878,99.6209 C340.5798,99.8919 340.6898,100.1509 340.8188,100.3919 C340.7908,100.5989 340.7658,100.8039 340.7508,101.0049 L340.7508,101.0049 Z M339.8528,92.6169 C338.8488,91.5949 337.8588,90.5609 336.8808,89.5159 C336.9268,89.5259 336.9738,89.5369 337.0198,89.5439 C338.3948,90.6779 339.8738,91.7619 341.4278,92.7579 C340.9008,92.6929 340.3758,92.6469 339.8528,92.6169 L339.8528,92.6169 Z M341.6368,73.6579 C341.7328,71.8079 341.9628,70.0509 342.2568,68.5749 C343.3658,71.2149 344.6658,73.8149 346.0238,76.2879 C345.4308,76.0039 344.8128,75.6989 344.1468,75.3529 C343.1698,74.8439 342.3548,74.2679 341.6368,73.6579 L341.6368,73.6579 Z M342.2418,108.1509 C342.2108,108.1109 342.1788,108.0719 342.1488,108.0329 C342.1928,108.0609 342.2408,108.0859 342.2858,108.1139 C342.2718,108.1269 342.2548,108.1359 342.2418,108.1509 L342.2418,108.1509 Z M343.5278,109.6789 C343.5298,109.6699 343.5298,109.6599 343.5318,109.6509 C343.5348,109.6339 343.5408,109.6189 343.5438,109.6029 C343.9188,109.8189 344.3188,110.0229 344.7278,110.2059 C344.3308,110.0449 343.9298,109.8659 343.5278,109.6789 L343.5278,109.6789 Z M344.8148,105.7829 C344.8618,105.6799 344.9038,105.5739 344.9518,105.4719 C345.0368,105.6879 345.1068,105.9109 345.1978,106.1239 C345.0628,106.0169 344.9438,105.8959 344.8148,105.7829 L344.8148,105.7829 Z M344.9428,102.0559 C344.9408,102.0469 344.9368,102.0389 344.9348,102.0299 C344.7788,101.4079 343.8508,101.6729 343.9788,102.2939 C344.0468,102.6209 344.1478,102.9319 344.2318,103.2509 C344.0108,103.6629 343.8038,104.0839 343.6138,104.5149 C342.9288,103.6059 342.4558,102.5459 342.2468,101.3289 C342.2858,101.2739 342.3188,101.2139 342.3208,101.1409 C342.3388,100.6349 342.2478,100.1389 342.1228,99.6479 C342.1248,99.5919 342.1378,99.5299 342.1408,99.4739 C343.1468,100.2149 344.1788,100.9329 345.2478,101.6129 C345.1448,101.7589 345.0408,101.9049 344.9428,102.0559 L344.9428,102.0559 Z M343.6108,96.2729 C343.4358,96.1109 343.2588,95.9509 343.0858,95.7879 C343.9228,95.9029 344.7568,96.0419 345.5888,96.2029 C345.6228,96.5029 345.7508,96.7999 346.0918,97.0219 C346.8418,97.5079 347.6098,97.9579 348.3708,98.4219 C348.1018,98.6149 347.8508,98.8239 347.6008,99.0339 C347.2748,98.7819 346.9508,98.5249 346.6208,98.2809 C345.7488,97.6379 344.7158,96.9029 343.6108,96.2729 L343.6108,96.2729 Z M346.6338,102.4579 C347.1468,102.7639 347.6598,103.0689 348.1848,103.3619 C348.7758,103.7909 349.3748,104.2029 349.9818,104.5969 C350.8248,106.4209 352.2778,107.9829 353.9738,109.3469 C351.7298,109.0619 349.3488,108.4719 347.3108,107.4509 C346.6578,106.3759 346.0858,105.2759 345.6368,104.1399 C345.9508,103.5709 346.2868,103.0119 346.6338,102.4579 L346.6338,102.4579 Z M347.1478,110.8259 C347.4918,111.0029 347.8408,111.1589 348.1928,111.2899 C348.1968,111.2959 348.2008,111.3019 348.2058,111.3079 C347.4318,111.1269 346.6528,110.9069 345.8648,110.6319 C346.2978,110.7549 346.7288,110.8219 347.1478,110.8259 L347.1478,110.8259 Z M346.6368,112.7459 C347.7838,113.1959 348.9788,113.5629 350.1978,113.8489 C351.1468,114.9869 352.1398,116.1009 353.1538,117.2039 C351.5948,119.2069 350.2028,121.3519 348.8738,123.5349 C349.0788,120.0249 347.4218,115.9279 346.6368,112.7459 L346.6368,112.7459 Z M348.4508,147.9159 C347.2348,149.2359 346.1928,150.4479 345.3528,151.4639 L345.3328,151.4699 C345.1868,151.6169 345.0278,151.7979 344.8688,151.9809 C342.3848,146.2179 341.7598,138.5909 344.3518,133.2169 C346.9428,127.8429 351.1608,123.3899 354.0478,118.1779 C354.8128,119.0049 355.5778,119.8309 356.3298,120.6609 C356.3428,120.9739 356.3458,121.2849 356.3428,121.5959 C354.0398,123.7319 352.3548,126.5909 352.4358,129.7509 C352.0198,130.2129 351.6278,130.6779 351.3078,131.1599 C347.9868,136.1649 347.1388,142.1899 348.4508,147.9159 L348.4508,147.9159 Z M349.3518,146.9509 C348.7398,143.3559 348.9968,139.7209 350.2938,136.1939 C350.8728,134.6219 351.7968,133.2749 352.8028,131.9899 C352.8408,132.1179 352.8668,132.2499 352.9108,132.3759 C351.1228,134.0409 350.1698,136.3299 351.0408,139.3089 C351.4618,140.7519 352.3048,141.9909 353.3998,143.0119 C351.9458,144.3159 350.5808,145.6579 349.3518,146.9509 L349.3518,146.9509 Z M355.1208,141.5309 C354.5618,141.0339 354.0558,140.4199 353.6248,139.6419 C352.4368,137.4969 352.7388,135.6659 353.7818,134.1659 C354.8038,135.7939 356.3588,137.0249 358.2788,137.4349 C358.3038,137.9849 358.3478,138.5249 358.3848,139.0699 C357.2708,139.8259 356.1798,140.6549 355.1208,141.5309 L355.1208,141.5309 Z M358.2298,135.8719 C356.6228,135.1459 355.5258,134.1339 354.8548,132.9489 C355.3178,132.5229 355.8348,132.1339 356.3888,131.7829 C356.5178,131.9739 356.7288,132.1159 357.0028,132.0519 C357.4698,131.9409 357.9328,131.8629 358.3908,131.8139 C358.2488,133.1419 358.2078,134.5039 358.2298,135.8719 L358.2298,135.8719 Z M358.7758,129.4439 C358.7408,129.4519 358.7068,129.4579 358.6718,129.4669 C358.7588,129.2389 358.8198,129.0029 358.8968,128.7709 C358.9038,128.7959 358.9008,128.8229 358.9098,128.8469 C358.8588,129.0429 358.8208,129.2449 358.7758,129.4439 L358.7758,129.4439 Z M358.2118,75.0739 C358.2108,74.0309 358.2258,72.9899 358.2738,71.9549 C358.5818,72.3139 358.9038,72.6629 359.2008,73.0299 C358.8568,73.7959 358.5238,74.4869 358.2118,75.0739 L358.2118,75.0739 Z M377.6098,23.1679 C377.9698,22.8329 378.3298,22.5009 378.6888,22.1689 C378.2778,22.5509 377.8868,22.9519 377.5408,23.3939 C377.4498,23.5109 377.3898,23.6349 377.3078,23.7539 C377.2758,23.6949 377.2488,23.6329 377.2058,23.5819 C377.3458,23.4479 377.4668,23.3019 377.6098,23.1679 L377.6098,23.1679 Z M374.0638,21.5799 C373.9798,22.5579 373.9468,23.5289 373.9758,24.4949 C373.7328,24.7739 373.5358,25.0859 373.3818,25.4259 C373.1538,24.8389 372.9608,24.2319 372.7768,23.6209 C373.1508,22.9579 373.5878,22.2789 374.0638,21.5799 L374.0638,21.5799 Z M371.6058,26.1279 C371.6948,26.3939 371.7828,26.6599 371.8828,26.9239 C371.9448,27.0879 372.0258,27.2409 372.0928,27.4019 C371.6248,28.0789 371.1978,28.7809 370.7808,29.4899 C370.9398,28.2879 371.2128,27.1869 371.6058,26.1279 L371.6058,26.1279 Z M359.9798,66.1859 C360.1558,66.8809 360.3458,67.5739 360.5628,68.2649 C360.5158,68.2129 360.4678,68.1619 360.4208,68.1099 C360.2178,67.3829 360.0188,66.6559 359.8168,65.9279 C359.8708,66.0139 359.9258,66.1009 359.9798,66.1859 L359.9798,66.1859 Z M362.0688,87.6749 C361.5868,87.5829 361.1048,87.4909 360.6228,87.3979 C360.3058,87.0399 360.0198,86.6399 359.7458,86.2259 C360.4328,86.8239 361.1998,87.3199 362.0688,87.6749 L362.0688,87.6749 Z M365.1788,60.2509 C364.6678,60.5439 364.1818,60.8849 363.7338,61.2859 C363.7338,61.2859 363.1398,63.0089 362.2928,65.3029 C362.2138,65.1909 362.1398,65.0679 362.0608,64.9579 C361.2028,61.9619 360.8088,58.7529 361.0298,55.2369 C361.0918,54.2489 361.2708,53.2279 361.4848,52.1929 C362.6548,54.8849 363.9758,57.5749 365.1788,60.2509 L365.1788,60.2509 Z M362.8038,49.4949 C363.3958,50.5009 364.0708,51.4399 364.9918,52.3179 C365.5008,52.8029 366.0468,53.2389 366.6038,53.6609 C366.6068,53.7869 366.6068,53.9139 366.6098,54.0399 C366.6528,55.6439 366.6968,57.2779 366.8078,58.9039 C365.4548,55.7059 363.9878,52.5459 362.8038,49.4949 L362.8038,49.4949 Z M364.6228,106.9169 C364.1358,106.8009 363.6488,106.6819 363.1638,106.5579 C363.0268,106.4349 362.8918,106.3089 362.7558,106.1839 C362.7488,106.1559 362.7278,106.1279 362.7188,106.0999 C363.3468,106.3849 363.9908,106.6409 364.6228,106.9169 L364.6228,106.9169 Z M362.6578,118.4359 C362.4858,118.3259 362.3338,118.2009 362.1558,118.0949 C362.0958,117.7799 362.0348,117.4649 361.9748,117.1499 C362.2018,117.5789 362.4298,118.0069 362.6578,118.4359 L362.6578,118.4359 Z M360.4288,121.7979 C360.4278,121.8009 360.4258,121.8039 360.4248,121.8069 C360.3888,121.7269 360.3498,121.6489 360.3138,121.5689 C360.3408,121.5579 360.3648,121.5379 360.3918,121.5249 C360.4038,121.6159 360.4158,121.7069 360.4288,121.7979 L360.4288,121.7979 Z M363.4948,136.2929 C362.2228,136.7859 360.9478,137.4439 359.6888,138.2139 C359.7158,136.0519 359.8278,133.8919 360.1398,131.7909 C361.7598,131.8909 363.3018,132.3599 364.7388,133.1479 C364.8798,133.9359 365.0708,134.7099 365.2758,135.4699 C364.6368,135.7989 364.0338,136.0839 363.4948,136.2929 L363.4948,136.2929 Z M366.4278,134.8459 C366.3728,134.6049 366.2958,134.3619 366.2488,134.1219 C366.4558,134.2749 366.6588,134.4379 366.8618,134.5999 C366.7138,134.6869 366.5728,134.7639 366.4278,134.8459 L366.4278,134.8459 Z M367.7438,55.5469 C367.7218,55.1839 367.7018,54.8209 367.6868,54.4559 C367.7568,54.5059 367.8258,54.5549 367.8958,54.6049 C367.8468,54.9149 367.7948,55.2329 367.7438,55.5469 L367.7438,55.5469 Z M368.5948,48.6249 C368.5408,49.7979 368.4028,51.0469 368.2278,52.3409 C368.0308,52.1779 367.8248,52.0139 367.6398,51.8519 C367.6598,48.5429 367.9608,45.2279 368.5008,42.0539 C368.6158,44.2679 368.6958,46.4699 368.5948,48.6249 L368.5948,48.6249 Z M368.1788,34.7819 C368.1088,34.9519 368.0278,35.1169 367.9598,35.2879 C367.8728,35.5069 368.0118,35.6909 368.1958,35.7839 C368.2098,36.2529 368.2308,36.7229 368.2518,37.1939 C366.9428,41.5849 366.5808,46.2229 366.5728,50.8409 C365.0598,49.3009 363.9398,47.6109 362.7538,45.1409 C362.7238,45.0779 362.6908,45.0199 362.6608,44.9579 C362.6628,43.9579 362.5618,42.9719 362.2518,42.0169 C361.8708,40.8419 361.2028,39.8699 360.4898,38.9209 C360.5198,38.0129 360.6038,37.1079 360.8238,36.2189 C361.5208,33.4009 363.2128,32.4069 364.6698,30.1599 C365.6638,28.6299 365.3808,27.8289 364.8028,26.1849 C363.0838,21.2869 362.5958,16.5589 363.5408,12.1129 C365.3728,14.0199 367.3978,15.9999 368.7748,18.2329 C369.6208,19.6029 370.1228,21.0679 370.5568,22.5579 C369.6048,24.1159 369.0028,25.6029 368.6528,27.5499 C368.2278,29.9079 368.1398,32.3339 368.1788,34.7819 L368.1788,34.7819 Z M370.0348,58.9109 C369.8928,58.9169 369.7538,58.9479 369.6118,58.9599 C369.6678,58.6049 369.7108,58.2539 369.7628,57.8999 C369.8548,58.2369 369.9178,58.5799 370.0348,58.9109 L370.0348,58.9109 Z M369.4008,133.0209 C369.2328,132.6949 369.0688,132.3659 368.8988,132.0419 C368.9228,132.0009 368.9418,131.9579 368.9608,131.9149 C369.0418,131.9979 369.1238,132.0809 369.2058,132.1649 C369.6038,132.5689 370.0688,132.5609 370.4218,132.3379 C370.0778,132.5709 369.7338,132.8029 369.4008,133.0209 L369.4008,133.0209 Z M370.4268,132.3349 C370.5438,132.2609 370.6478,132.1629 370.7338,132.0489 C370.7488,132.0649 370.7648,132.0809 370.7808,132.0979 C370.6608,132.1799 370.5458,132.2539 370.4268,132.3349 L370.4268,132.3349 Z M372.5368,118.4369 C372.5268,118.4339 372.5168,118.4309 372.5068,118.4279 C372.3148,118.2659 372.1238,118.1039 371.9318,117.9429 C372.0288,117.9599 372.1158,117.9889 372.2138,118.0049 C372.2348,118.0079 372.2538,117.9959 372.2758,117.9979 C372.3638,118.1439 372.4488,118.2929 372.5368,118.4369 L372.5368,118.4369 Z M372.3618,58.9939 C372.4068,58.8579 372.4608,58.7259 372.5048,58.5889 C372.6268,58.7479 372.7478,58.9099 372.8608,59.0789 C372.6958,59.0529 372.5288,59.0239 372.3648,59.0039 C372.3638,59.0009 372.3628,58.9969 372.3618,58.9939 L372.3618,58.9939 Z M372.7158,130.7409 C372.5178,130.3919 372.3188,130.0439 372.1198,129.6949 C372.4808,129.9239 372.8278,130.1709 373.1838,130.4049 C373.0268,130.5179 372.8708,130.6299 372.7158,130.7409 L372.7158,130.7409 Z M371.7178,55.1799 C371.5838,55.0509 371.4518,54.9219 371.3128,54.7969 C371.1838,53.1849 371.3298,51.5239 371.7918,49.8589 C372.1278,48.6479 372.6368,47.6299 373.2108,46.6739 C373.2158,46.8589 373.2308,47.0429 373.2378,47.2269 C372.8448,49.9009 372.2818,52.5389 371.7178,55.1799 L371.7178,55.1799 Z M373.7918,39.5669 C373.6038,40.3549 373.4468,41.1519 373.3608,41.9699 C373.3408,42.1629 373.3388,42.3559 373.3218,42.5489 C372.3248,43.8399 371.4978,45.2249 370.8478,46.6719 C370.9168,44.9039 370.9498,43.1279 370.9118,41.3269 C370.8568,38.7199 370.6938,36.1119 370.6368,33.5039 C370.7628,33.1289 370.8828,32.7439 371.0158,32.3799 C371.1148,32.1069 370.8658,31.9159 370.6248,31.9109 C370.8328,31.5459 371.0758,31.2069 371.2968,30.8519 C371.4108,30.8819 371.5378,30.8699 371.6238,30.7479 C372.0278,30.1719 372.4298,29.5949 372.8338,29.0179 C373.2268,29.7849 373.6578,30.5299 374.1098,31.2629 C373.7968,34.0209 373.8238,36.7839 373.7918,39.5669 L373.7918,39.5669 Z M375.3378,50.6409 C375.3058,50.3479 375.2748,50.0539 375.2428,49.7619 C375.3928,48.3239 375.5788,46.8919 375.8418,45.4679 C375.8178,46.1689 375.8188,46.8759 375.8448,47.5899 C375.6598,48.6099 375.4838,49.6299 375.3378,50.6409 L375.3378,50.6409 Z M375.0998,35.7499 C375.0828,34.7829 375.0808,33.8159 375.1138,32.8519 C375.3188,33.1669 375.5218,33.4829 375.7278,33.7979 C375.7678,33.9219 375.8268,34.0409 375.8708,34.1639 C375.5938,34.6859 375.3388,35.2149 375.0998,35.7499 L375.0998,35.7499 Z M377.3878,126.7369 C377.2638,126.6309 377.1368,126.5409 376.9888,126.4699 C376.9358,126.3059 376.8778,126.1449 376.8218,125.9829 C377.0288,126.1889 377.2428,126.3819 377.4548,126.5779 C377.4308,126.6309 377.4128,126.6859 377.3878,126.7369 L377.3878,126.7369 Z M377.2998,63.2529 C377.1728,63.2149 377.0448,63.2259 376.9188,63.2389 C376.8348,63.1889 376.7418,63.1599 376.6578,63.1129 C376.5448,62.8029 376.4238,62.4989 376.3018,62.1949 C376.6118,62.3089 376.9298,62.4379 377.2438,62.5579 C377.4408,62.8219 377.6248,63.0889 377.8548,63.3439 C377.8578,63.3799 377.8598,63.4169 377.8638,63.4529 C377.6718,63.3919 377.4938,63.3109 377.2998,63.2529 L377.2998,63.2529 Z M379.9588,31.5189 C379.7648,31.5919 379.5648,31.6869 379.3548,31.8139 C379.4418,31.6949 379.5078,31.5759 379.5968,31.4569 C379.6338,31.4089 379.6738,31.3629 379.7108,31.3139 C379.8468,31.2539 379.9628,31.1359 380.0168,30.9459 C380.0828,30.9469 380.1488,30.9469 380.2148,30.9479 C380.1238,31.1359 380.0198,31.3139 379.9588,31.5189 L379.9588,31.5189 Z M380.9018,119.9139 C380.9198,119.9359 380.9388,119.9569 380.9568,119.9789 C380.9608,120.0219 380.9698,120.0629 380.9748,120.1069 C380.9498,120.0429 380.9268,119.9769 380.9018,119.9139 L380.9018,119.9139 Z M383.6658,111.1229 C383.7118,111.1639 383.7588,111.2039 383.8058,111.2439 C383.8208,111.2849 383.8358,111.3259 383.8498,111.3679 C383.7888,111.2859 383.7268,111.2049 383.6658,111.1229 L383.6658,111.1229 Z M384.6228,121.5129 C384.6158,121.3709 384.6198,121.2299 384.5528,121.0749 C384.4348,120.7979 384.3028,120.5279 384.1818,120.2519 C384.4128,120.6039 384.6368,120.9619 384.8638,121.3159 C384.7848,121.3819 384.7038,121.4469 384.6228,121.5129 L384.6228,121.5129 Z M386.7628,109.7109 C386.8038,109.9369 386.8408,110.1639 386.8778,110.3899 C386.6358,109.9359 386.3948,109.4829 386.1528,109.0289 C386.3568,109.2549 386.5608,109.4809 386.7628,109.7109 L386.7628,109.7109 Z M386.8218,119.6969 C386.6378,119.2929 386.4548,118.8889 386.2708,118.4849 C386.3788,118.6279 386.4858,118.7719 386.5938,118.9149 C386.7608,119.1369 386.9918,119.2719 387.2388,119.3489 C387.0998,119.4649 386.9618,119.5799 386.8218,119.6969 L386.8218,119.6969 Z M388.9178,62.4529 C389.1568,63.2249 389.4108,63.9949 389.6638,64.7639 C389.4698,64.5959 389.2758,64.4279 389.0808,64.2609 C388.8628,63.7779 388.5888,63.3339 388.3408,62.8729 C388.5728,62.7969 388.7728,62.6559 388.9178,62.4529 L388.9178,62.4529 Z M388.7808,118.0569 C388.7748,118.0359 388.7788,118.0189 388.7708,117.9979 C388.7178,117.8489 388.6648,117.6999 388.6118,117.5509 C389.2468,117.5449 389.8958,117.0739 389.8848,116.3409 C389.8828,116.2299 389.8738,116.1219 389.8708,116.0109 C389.9888,116.2859 390.1058,116.5619 390.2238,116.8369 C389.7498,117.2389 389.2698,117.6459 388.7808,118.0569 L388.7808,118.0569 Z M389.4138,45.1569 C389.4398,44.8329 389.4508,44.5159 389.4518,44.2049 C389.4818,44.2309 389.5128,44.2569 389.5428,44.2819 C389.5748,44.5339 389.6998,44.7789 389.9608,44.9599 C390.1028,45.0539 390.2148,45.1599 390.3528,45.2549 C390.0318,45.1879 389.7168,45.1499 389.4138,45.1569 L389.4138,45.1569 Z M388.4788,37.7439 C388.5348,37.1049 388.5648,36.4369 388.5338,35.7359 C390.0598,37.0579 391.3858,38.5959 392.3988,40.3759 C392.8978,41.2539 393.2578,42.1419 393.5528,43.0399 C391.5688,41.5059 389.2838,40.2709 388.4788,37.7439 L388.4788,37.7439 Z M394.1628,60.5339 C394.0748,60.4109 393.9938,60.2869 393.9028,60.1649 C393.8668,59.9719 393.8238,59.7819 393.7868,59.5899 C394.0268,59.8659 394.2758,60.1269 394.5368,60.3669 C394.4058,60.4039 394.2758,60.4529 394.1628,60.5339 L394.1628,60.5339 Z M396.3478,63.9809 C396.1468,63.0549 395.9468,62.1289 395.7458,61.2029 C395.8218,61.2399 395.8978,61.2779 395.9748,61.3079 C396.0298,61.4359 396.0848,61.5629 396.1398,61.6899 C396.3208,62.4319 396.4568,63.1859 396.5618,63.9499 C396.4908,63.9629 396.4158,63.9569 396.3478,63.9809 L396.3478,63.9809 Z M398.9148,57.0339 C398.8938,56.8939 398.8768,56.7549 398.8518,56.6119 C398.9528,56.8969 399.0568,57.1799 399.1578,57.4649 C399.0818,57.3199 398.9938,57.1779 398.9148,57.0339 L398.9148,57.0339 Z M424.3518,96.4369 C424.5288,96.7759 424.7058,97.1159 424.8738,97.4589 C424.9278,97.5709 424.9688,97.6749 425.0218,97.7849 C425.0058,97.7679 424.9948,97.7509 424.9788,97.7339 C424.9418,97.6949 424.9008,97.6739 424.8618,97.6439 C424.8308,97.5499 424.8028,97.4549 424.7338,97.3629 C424.5928,97.1739 424.4358,96.9979 424.2918,96.8109 C424.2828,96.7169 424.2748,96.6229 424.2658,96.5279 C424.2968,96.5009 424.3248,96.4679 424.3518,96.4369 L424.3518,96.4369 Z M423.0048,90.7409 C421.4258,88.5779 419.6118,86.6229 417.5328,85.0939 C419.7348,85.9919 421.4708,87.2749 422.8768,88.8279 C422.9158,89.4659 422.9578,90.1029 423.0048,90.7409 L423.0048,90.7409 Z M421.1088,110.2129 C421.0698,110.2649 421.0248,110.3129 420.9848,110.3649 C420.9598,110.0349 420.9398,109.7029 420.9178,109.3719 C420.9438,109.3889 420.9668,109.4109 420.9938,109.4279 C421.0138,109.6889 421.0478,109.9489 421.1088,110.2129 L421.1088,110.2129 Z M408.1918,84.9349 C408.2098,84.9459 408.2188,84.9689 408.2378,84.9789 C408.2388,85.0019 408.2408,85.0249 408.2428,85.0479 C408.2258,85.0099 408.2088,84.9729 408.1918,84.9349 L408.1918,84.9349 Z M410.2608,89.6139 C410.1148,89.2719 409.9768,88.9279 409.8298,88.5859 C409.9108,88.5699 409.9978,88.5739 410.0728,88.5409 C410.1348,88.5669 410.2038,88.5619 410.2698,88.5779 C410.2678,88.9339 410.2668,89.2899 410.2768,89.6469 C410.2708,89.6359 410.2658,89.6249 410.2608,89.6139 L410.2608,89.6139 Z M410.2948,72.8179 C410.1708,72.4009 410.0588,71.9749 409.9088,71.5779 C409.9098,71.5759 409.9098,71.5739 409.9108,71.5729 C410.0998,71.9829 410.2638,72.4139 410.4068,72.8639 C410.3668,72.8549 410.3348,72.8229 410.2948,72.8179 L410.2948,72.8179 Z M411.6938,100.3969 C411.7178,100.3349 411.7158,100.2639 411.7298,100.1989 C411.7888,100.3119 411.8528,100.4189 411.9318,100.5039 C412.1248,101.0259 412.3248,101.5449 412.5128,102.0689 C412.2338,101.5109 411.9598,100.9549 411.6938,100.3969 L411.6938,100.3969 Z M412.6578,84.5169 C412.5268,84.4439 412.4068,84.3639 412.2728,84.2919 C412.2138,84.2609 412.1598,84.2569 412.1028,84.2379 C412.1078,84.1859 412.1128,84.1339 412.1178,84.0819 C412.3768,84.1789 412.6388,84.2699 412.8908,84.3799 C412.8048,84.4119 412.7278,84.4569 412.6578,84.5169 L412.6578,84.5169 Z M415.4058,83.7399 C414.4208,83.2049 413.3858,82.7639 412.2948,82.4389 C412.9098,77.2019 413.7278,72.0869 410.0878,67.4819 C407.9618,64.7929 404.9788,62.8749 402.9978,60.0689 C402.7628,59.7369 402.5608,59.4039 402.3778,59.0699 C407.7968,61.0149 412.9198,64.0659 416.6578,68.4399 C415.4048,73.3849 415.8678,78.6269 415.4058,83.7399 L415.4058,83.7399 Z M416.6798,83.8049 C417.3708,79.1849 417.3228,74.4209 417.7398,69.7439 C418.2928,70.4869 418.8148,71.2569 419.2848,72.0699 C421.9208,76.6299 422.4188,81.6279 422.7428,86.6849 C421.1178,85.3489 419.2138,84.3289 416.9848,83.7629 C416.8628,83.7319 416.7708,83.7699 416.6798,83.8049 L416.6798,83.8049 Z M417.3248,125.0059 C417.3378,124.9549 417.3448,124.9029 417.3508,124.8499 C417.4528,125.0409 417.5538,125.2319 417.6548,125.4239 C417.5458,125.2839 417.4308,125.1459 417.3248,125.0059 L417.3248,125.0059 Z M421.3998,127.6149 C421.3228,127.3979 421.2458,127.1819 421.1688,126.9659 C420.7478,125.2379 420.2638,123.5389 419.7298,121.8599 C419.9888,122.4949 420.2288,123.1399 420.4768,123.7809 C420.7918,124.8669 421.1078,125.9539 421.4238,127.0399 C421.4688,127.2139 421.5248,127.3859 421.5738,127.5599 L421.3998,127.6149 Z M422.4608,98.3339 C422.4498,98.3629 422.4448,98.3909 422.4348,98.4209 C422.2388,98.0269 422.0118,97.6519 421.7438,97.3029 C422.0138,97.6049 422.2838,97.9069 422.5518,98.2119 C422.5268,98.2599 422.4808,98.2789 422.4608,98.3339 L422.4608,98.3339 Z M422.9628,112.9549 C423.1498,112.6319 423.3498,112.3089 423.5098,111.9809 C423.5498,111.9179 423.6098,111.8759 423.6378,111.8029 C423.7458,111.5219 423.8328,111.2389 423.9358,110.9569 C424.1238,110.4889 424.2988,110.0119 424.4388,109.5269 C424.8558,108.2909 425.2418,107.0489 425.5748,105.7959 C425.7548,105.7229 425.9198,105.6109 426.0298,105.4029 C426.0408,105.3819 426.0468,105.3609 426.0578,105.3399 C426.0728,105.3539 426.0858,105.3679 426.1008,105.3819 C426.2438,105.5089 426.4288,105.5779 426.6188,105.6169 C426.3878,107.0309 425.8438,108.4769 424.8698,110.0439 C424.2578,111.0279 423.6338,112.0009 423.0078,112.9719 C422.9938,112.9639 422.9778,112.9619 422.9628,112.9549 L422.9628,112.9549 Z M458.7208,230.0809 C458.0968,231.8409 458.0968,232.4089 458.0968,232.4089 C457.5288,231.0459 457.6418,225.7089 457.6418,225.7089 C457.6418,225.7089 458.2668,226.3339 458.7208,227.2419 C459.1748,228.1509 459.3458,228.3209 458.7208,230.0809 L458.7208,230.0809 Z" id="Fill-6" fill="#020203"></path>
                <path d="M497.6509,288.4763 C498.2849,289.6393 501.7549,287.3443 504.7479,285.4413 C507.7009,283.5653 519.7789,274.4513 521.3059,273.4093 C522.9749,272.2683 526.2109,268.0673 526.8919,267.7263 C526.8919,267.7263 529.1629,267.0453 529.1629,266.1363 C529.1629,265.2273 528.9359,264.6603 527.8009,264.6603 C526.6649,264.6603 525.9839,266.0233 525.9839,266.0233 C525.9839,266.0233 521.2959,267.9383 518.2819,270.4483 C511.7319,275.9023 498.3889,285.6673 497.9349,286.3503 C497.4809,287.0313 496.9699,287.2273 497.6509,288.4763" id="Fill-8" fill="#FEFEFE"></path>
            </g>
        </g>
    </g>
</svg>