<?xml version="1.0" encoding="UTF-8" standalone="no"?>
<!DOCTYPE svg PUBLIC "-//W3C//DTD SVG 1.1//EN" "http://www.w3.org/Graphics/SVG/1.1/DTD/svg11.dtd">
<svg width="100%" height="100%" viewBox="0 0 1298 1860" version="1.1" xmlns="http://www.w3.org/2000/svg" xmlns:xlink="http://www.w3.org/1999/xlink" xml:space="preserve" xmlns:serif="http://www.serif.com/" style="fill-rule:evenodd;clip-rule:evenodd;stroke-linejoin:round;stroke-miterlimit:2;">
    <g transform="matrix(1,0,0,1,-375,-1433)">
        <g transform="matrix(-1.82265,0,0,1.82265,6499.95,1313.46)">
            <g transform="matrix(-0.548652,0,0,0.548652,3566.21,-720.634)">
                <path d="M506.267,3068.76C510.687,3044.35 514.735,3023.12 517.664,3006.85C532.428,2924.82 475.477,2659.79 434.346,2491.53C393.215,2323.26 468.096,2156.04 468.096,2156.04C468.096,2156.04 459.658,2143.42 456.492,2138.16C453.332,2132.9 443.839,2136.05 436.458,2126.59C429.076,2117.12 438.569,2102.41 435.402,2087.68C432.235,2072.95 417.472,2081.37 405.875,2067.7C394.271,2054.03 412.201,2040.35 405.875,2021.43C399.541,2002.49 381.619,2011.96 385.834,2002.49C390.056,1993.03 398.493,1999.33 391.112,1963.58C383.722,1927.83 401.653,1917.31 400.597,1928.87C399.541,1940.44 412.201,1929.92 416.416,1920.46C420.639,1911 403.764,1893.12 403.764,1871.03C403.764,1861.46 409.505,1852.29 414.555,1846.25C397.4,1859.12 382.454,1840.06 376.341,1826.86C370.014,1813.19 389,1819.5 390.041,1826.86C391.081,1834.23 403.764,1824.75 393.215,1807.93C382.674,1791.1 400.597,1789 414.616,1786.9C428.635,1784.79 420.639,1764.81 415.36,1739.57C410.09,1714.33 434.346,1694.35 439.617,1689.09C444.895,1683.83 469.151,1693.3 465.985,1673.32C462.818,1653.33 473.366,1634.4 473.366,1640.71C473.366,1647.02 500.79,1645.97 498.678,1636.51C496.567,1627.04 498.678,1618.63 498.678,1611.26C498.678,1603.9 510.275,1597.59 514.497,1586.03C518.712,1574.46 544.024,1575.51 546.136,1582.87C548.247,1590.23 529.261,1591.28 527.15,1598.65C525.046,1606.01 566.169,1601.8 558.788,1592.34C551.406,1582.87 569.336,1551.32 569.336,1551.32C569.336,1551.32 589.826,1527.21 607.08,1536.61C624.342,1546 629.051,1542.87 644.741,1531.91C660.438,1520.96 671.42,1494.47 699.663,1512.4C727.907,1530.34 754.586,1515.19 745.169,1506.34C735.759,1497.48 756.158,1477.14 778.121,1494.35C800.091,1511.57 801.663,1527.21 801.663,1527.21C799.545,1507.2 804.306,1502.67 824.219,1499.34C830.94,1498.22 842.506,1500.73 845.399,1503.75C854.816,1513.58 849.227,1519.01 879.825,1526.63C894.535,1530.15 902.593,1534.49 912.086,1550.27C921.571,1566.05 937.39,1602.1 937.39,1602.1C937.39,1602.1 981.688,1646.26 984.847,1687.28C984.847,1687.28 976.41,1721.99 984.847,1736.71C993.285,1751.43 1053.4,1793.5 1037.58,1819.79C1021.76,1846.09 1005.94,1853.45 1014.38,1870.28C1019.92,1881.32 1018.19,1893.71 1013.36,1904.2C1009.14,1913.4 1009.79,1923.93 1013.68,1933.26C1017.62,1942.7 1019.65,1967.03 988.804,1983.86C988.804,1983.86 853.024,2010.15 884.662,2084.82C916.3,2159.48 904.704,2153.17 948.994,2244.68C993.285,2336.17 1033.36,2365.62 1058.67,2458.16C1062.28,2471.36 1064.15,2485.55 1064.88,2500.55C1089.69,2521.11 1111.68,2540.29 1115.49,2546.65C1135.5,2531.84 1135.5,2531.84 1164.92,2506.01C1194.35,2480.19 1268.49,2400.39 1294.38,2366.36C1320.28,2332.32 1359.11,2279.51 1359.11,2279.51C1359.11,2279.51 1368.52,2258.39 1369.7,2243.13C1370.88,2227.87 1366.17,2222 1379.12,2202.05C1392.07,2182.1 1403.83,2144.54 1402.65,2130.46C1401.47,2116.37 1389.87,2105.82 1402.74,2102.29C1415.6,2098.77 1434.43,2118.72 1433.25,2141.02C1432.07,2163.32 1425.02,2187.96 1453.26,2198.53C1481.5,2209.09 1536.19,2193.3 1563.89,2168.01C1596.44,2138.28 1600.37,2148.06 1601.55,2153.93C1602.73,2159.8 1633.32,2117.55 1643.91,2116.37C1654.5,2115.2 1663.92,2119.89 1658.04,2128.11C1652.15,2136.33 1634.5,2163.32 1634.5,2163.32C1634.5,2163.32 1649.89,2145.72 1659.85,2145.72C1669.81,2145.72 1682.85,2158.63 1659.85,2172.71C1636.85,2186.79 1595.66,2223.17 1540.35,2234.91C1485.04,2246.64 1377.94,2406.07 1366.17,2437.26C1354.4,2468.46 1199.05,2732 1153.15,2732.27C1137.2,2732.36 1096.33,2715.95 1049.83,2694.52C1048.1,2722.58 1047.71,2751.54 1050.08,2781.1C1097.84,2844.09 1183.05,2948.24 1239.96,2970.46C1322.77,3002.81 1445.57,3002.81 1465.56,3002.81C1485.55,3002.81 1465.56,3034.13 1465.56,3034.13C1465.56,3034.13 1506.2,3041.12 1506.25,3084.68C1506.29,3121.7 1506.25,3146.81 1506.25,3146.81C1506.25,3146.81 1502.68,3170.83 1474.12,3170.83L1431.29,3170.83C1419.87,3170.83 1418.44,3180.08 1401.41,3182.92C1399.08,3183.3 1376.39,3183.86 1373.46,3182.22C1367.61,3178.94 1367.99,3180.32 1355.86,3169.64C1355.86,3169.64 1348.69,3178.38 1342.71,3181.65C1335.97,3185.33 1325.33,3187.47 1308.5,3185.39C1259.95,3179.37 1230.68,3180.08 1208.55,3138.79C1196.23,3115.81 1139.45,3071.2 1091.53,3036.17C1105.26,3142.67 1111.78,3238.82 1104.02,3254.29C1094.18,3273.91 1085.62,3271.93 1085.27,3292.79C865.642,3282.98 664.792,3200.46 506.267,3068.76Z" style="fill-rule:nonzero;"/>
            </g>
            <g transform="matrix(4.16667,0,0,4.16667,2830.07,83.4808)">
                <path d="M0,5.666C0.238,5.181 0.995,3.321 0.275,1.444C-0.444,-0.432 -1.545,-2.585 -3.238,-3.387C-4.93,-4.189 -7.554,-4.906 -10.263,-3.387C-12.971,-1.867 -13.691,-0.8 -14.125,0.728C-14.419,1.766 -14.38,6.321 -11.998,8.599C-9.935,10.572 -8.02,10.034 -6.327,9.95C-4.634,9.865 -2.518,9.106 -1.629,8.135C-0.741,7.164 -0.258,6.192 0,5.666" style="fill:white;fill-rule:nonzero;"/>
            </g>
            <g transform="matrix(4.16667,0,0,4.16667,2816.58,108.77)">
                <path d="M0,-9.456C1.693,-8.654 2.793,-6.502 3.513,-4.625C4.232,-2.748 3.475,-0.889 3.238,-0.403C3.155,-0.234 3.046,-0.016 2.91,0.231C2.489,-0.127 1.858,-0.366 1.27,-0.593C0.286,-0.973 -2.063,-2.271 -2.063,-2.271C-2.063,-2.271 -0.825,-5.088 -0.444,-7.272C-0.246,-8.411 -0.367,-9.195 -0.528,-9.687C-0.344,-9.612 -0.166,-9.535 0,-9.456" style="fill-rule:nonzero;"/>
            </g>
            <g transform="matrix(4.16667,0,0,4.16667,2771.22,115.548)">
                <path d="M0,-6.968C0.123,-7.4 0.271,-7.795 0.477,-8.174C2.275,-7.039 5.595,-5.365 6.126,-5.1C6.824,-4.752 8.579,-4.123 8.824,-3.898C8.581,-3.371 6.729,-1.555 6.094,-0.922C5.459,-0.289 4.285,0.819 3.365,1.104C3.034,1.206 2.688,1.189 2.379,1.126C2.295,1.054 2.211,0.984 2.127,0.903C-0.256,-1.375 -0.295,-5.93 0,-6.968" style="fill-rule:nonzero;"/>
            </g>
            <g transform="matrix(-0.160789,4.16356,4.16356,0.160789,2727.32,357.621)">
                <path d="M6.875,-7.146C10.789,-7.147 13.962,-4.067 13.963,-0.267C13.962,3.533 10.789,6.614 6.875,6.615C2.961,6.616 -0.212,3.536 -0.213,-0.264C-0.212,-4.064 2.961,-7.145 6.875,-7.146" style="fill:white;fill-rule:nonzero;"/>
            </g>
            <g transform="matrix(4.16667,0,0,4.16667,2717.64,376.842)">
                <path d="M0,9.089C0.709,9.062 1.329,9.031 1.5,9C1.956,8.918 5.65,8.479 6.891,4.907C8.132,1.334 6.393,-0.386 6.393,-0.386C6.393,-0.386 7.414,-0.381 8.336,0.058C8.578,0.83 8.701,1.654 8.668,2.512C8.516,6.423 5.315,9.475 1.518,9.329C0.993,9.308 0.487,9.223 0,9.089" style="fill-rule:nonzero;"/>
            </g>
            <g transform="matrix(4.16667,0,0,4.16667,2726.26,391.785)">
                <path d="M0,-8.422C0.141,-8.416 0.278,-8.398 0.416,-8.384C0.893,-8.085 1.36,-7.772 1.757,-7.466C3.375,-6.226 4.326,-3.973 4.326,-3.973C4.326,-3.973 -0.66,-3.455 -3.604,-1.884C-5.07,-1.101 -6.217,-0.38 -6.999,0.146C-7.115,-0.418 -7.174,-1.003 -7.15,-1.605C-6.998,-5.517 -3.797,-8.568 0,-8.422" style="fill-rule:nonzero;"/>
            </g>
        </g>
    </g>
</svg>
