<?xml version="1.0" encoding="UTF-8" standalone="no"?>
<!DOCTYPE svg PUBLIC "-//W3C//DTD SVG 1.1//EN" "http://www.w3.org/Graphics/SVG/1.1/DTD/svg11.dtd">
<svg width="100%" height="100%" viewBox="0 0 165 144" version="1.1" xmlns="http://www.w3.org/2000/svg" xmlns:xlink="http://www.w3.org/1999/xlink" xml:space="preserve" xmlns:serif="http://www.serif.com/" style="fill-rule:evenodd;clip-rule:evenodd;stroke-miterlimit:10;">
    <g transform="matrix(1,0,0,1,-1677,-1295)">
        <g>
            <g transform="matrix(4.16667,0,0,-4.16667,1709.07,1407.27)">
                <path d="M14.786,19.176L9.367,19.176C4.193,19.176 0,15.18 0,10.252C0,5.323 4.193,1.328 9.367,1.328L14.786,1.328C15.575,1.328 16.341,1.421 17.072,1.596L21.17,0L20.526,3.203C22.732,4.835 24.153,7.384 24.153,10.252C24.153,15.18 19.959,19.176 14.786,19.176" style="fill:none;fill-rule:nonzero;stroke:black;stroke-width:1.5px;"/>
            </g>
            <g transform="matrix(4.16667,0,0,4.16667,1704.91,1313.94)">
                <path d="M9.13,12.113C9.13,13.081 8.306,13.865 7.29,13.865C6.275,13.865 5.451,13.081 5.451,12.113C5.451,11.145 6.275,10.361 7.29,10.361C8.306,10.361 9.13,11.145 9.13,12.113Z"/>
            </g>
            <g transform="matrix(4.16667,0,0,4.16667,1704.91,1313.94)">
                <path d="M14.916,12.113C14.916,13.081 14.092,13.865 13.076,13.865C12.06,13.865 11.237,13.081 11.237,12.113C11.237,11.145 12.06,10.361 13.076,10.361C14.092,10.361 14.916,11.145 14.916,12.113Z"/>
            </g>
            <g transform="matrix(4.16667,0,0,4.16667,1704.91,1313.94)">
                <path d="M20.701,12.113C20.701,13.081 19.878,13.865 18.862,13.865C17.846,13.865 17.022,13.081 17.022,12.113C17.022,11.145 17.846,10.361 18.862,10.361C19.878,10.361 20.701,11.145 20.701,12.113Z"/>
            </g>
        </g>
    </g>
</svg>
