<?xml version="1.0" encoding="UTF-8"?>
<svg width="241px" height="50px" viewBox="0 0 241 50" version="1.1" xmlns="http://www.w3.org/2000/svg" xmlns:xlink="http://www.w3.org/1999/xlink">
    <title>Page 1</title>
    <defs>
        <polygon id="path-1" points="0 0.505923077 8.64891818 0.505923077 8.64891818 9.889 0 9.889"></polygon>
        <polygon id="path-3" points="0.285714286 11 188.285714 11 188.285714 1 0.285714286 1"></polygon>
    </defs>
    <g id="Page-1" stroke="none" stroke-width="1" fill="none" fill-rule="evenodd">
        <g id="Desktop" transform="translate(-600.000000, -42.000000)">
            <g id="Group" transform="translate(600.000000, 42.000000)">
                <path d="M28.35,28.902439 L1.35,28.902439 C0.6,28.902439 -5.32907052e-15,28.3170732 -5.32907052e-15,27.5853659 C-5.32907052e-15,26.8536585 0.6,26.267561 1.35,26.267561 L27,26.267561 L27,2.63414634 L1.35,2.63414634 C0.6,2.56097561 0.075,1.90243902 0.075,1.24390244 C0.15,0.585365854 0.675,0.0731707317 1.35,0 L28.35,0 C29.1,0 29.7,0.585365854 29.7,1.31707317 L29.7,27.6585366 C29.625,28.3902439 29.025,28.9756098 28.35,28.902439" id="Fill-1" fill="#F2D029"></path>
                <path d="M62.678481,28.9938211 L36.2481013,28.9938211 C35.5139241,28.9938211 35,28.4080873 35,27.6759201 L35,1.31790096 C35,0.58573376 35.5873418,0.07321672 36.321519,0 L62.7518987,0 C63.4860759,0.07321672 64,0.65895048 64,1.39111768 C63.9265823,2.05006816 63.4126582,2.5625852 62.7518987,2.63580192 L37.5696203,2.63580192 L37.5696203,26.357287 L62.678481,26.357287 C63.4126582,26.357287 64,26.9437529 64,27.6759201 C64,28.4813041 63.4126582,29.0670378 62.678481,28.9938211" id="Fill-4" fill="#F2D029"></path>
                <path d="M49.5,18 C50.90625,18 52,16.9068604 52,15.4996093 C52,14.0931396 50.90625,13 49.5,13 C48.09375,13 47,14.0931396 47,15.4996093 C47,16.8279419 48.09375,18 49.5,18" id="Fill-6" fill="#010000"></path>
                <path d="M87.5,18 C88.90625,18 90,16.8279419 90,15.4996093 C90,14.0931396 88.828125,13 87.5,13 C86.09375,13 85,14.1720581 85,15.4996093 C85,16.8279419 86.171875,18 87.5,18" id="Fill-8" fill="#F2D029"></path>
                <path d="M72.321519,29 C71.5873418,29 71,28.4141414 71,27.6818182 L71,1.31818182 C71,0.585858586 71.5873418,0 72.321519,0 L98.7518987,0 C99.4860759,0.0732323232 100,0.659090909 100,1.39141414 C99.9265823,2.05050505 99.4126582,2.56313131 98.7518987,2.63636364 L73.643038,2.63636364 L73.643038,27.6818182 C73.643038,28.4141414 73.0556962,29 72.321519,29" id="Fill-10" fill="#F2D029"></path>
                <path d="M107.321519,29 C106.587342,29 106,28.4141414 106,27.6818182 L106,1.31818182 C106,0.585858586 106.587342,0 107.321519,0 L133.751899,0 C134.486076,0.0732323232 135,0.659090909 135,1.39141414 C134.926582,2.05050505 134.411924,2.56313131 133.751899,2.63636364 L108.643038,2.63636364 L108.643038,27.6818182 C108.643038,28.4141414 108.055696,29 107.321519,29" id="Fill-12" fill="#F2D029"></path>
                <path d="M169.681119,29 L143.318149,29 C142.585844,29 142,28.4126582 142,27.678481 C142,26.9443038 142.585844,26.3562278 143.318149,26.3562278 L168.362971,26.3562278 L168.362971,1.32151899 C168.362971,0.587341772 168.948814,0 169.681119,0 C170.413424,0 171,0.587341772 171,1.32151899 L171,27.7518987 C171,28.4126582 170.413424,29 169.681119,29" id="Fill-14" fill="#F2D029"></path>
                <path d="M191.499609,18 C192.90686,18 194,16.9068604 194,15.4996093 C194,14.0931396 192.90686,13 191.499609,13 C190.09314,13 189,14.0931396 189,15.4996093 C189,16.8279419 190.09314,18 191.499609,18" id="Fill-16" fill="#F2D029"></path>
                <path d="M179.636364,26.4312359 L203.362904,26.4312359 L203.362904,2.70901864 L179.636364,2.70901864 L179.636364,26.4312359 Z M204.681818,28.9938211 L178.318182,28.9938211 C177.585859,28.9938211 177,28.4080873 177,27.6759201 L177,1.31790096 C177,0.58573376 177.585859,0 178.318182,0 L204.681818,0 C205.414141,0 206,0.58573376 206,1.31790096 L206,27.6759201 C206,28.4813041 205.414141,29.0670378 204.681818,28.9938211 L204.681818,28.9938211 Z" id="Fill-18" fill="#F2D029"></path>
                <path d="M214.636364,26.3868935 L238.362904,26.3868935 L238.362904,2.70447385 L214.636364,2.70447385 L214.636364,26.3868935 Z M239.681818,28.9451796 L213.318182,28.9451796 C212.585859,28.9451796 212,28.3604285 212,27.6294896 L212,1.31568998 C212,0.584751103 212.585859,0 213.318182,0 L239.681818,0 C240.414141,0 241,0.584751103 241,1.31568998 L241,27.6294896 C241,28.4335224 240.414141,29.0182735 239.681818,28.9451796 C239.681818,29.0182735 239.681818,29.0182735 239.681818,28.9451796 L239.681818,28.9451796 Z" id="Fill-20" fill="#F2D029"></path>
            </g>
            <g id="Group-22" transform="translate(626.714286, 81.000000)">
                <g id="Group-3" transform="translate(0.285714, 0.000000)">
                    <mask id="mask-2" fill="white">
                        <use xlink:href="#path-1"></use>
                    </mask>
                    <g id="Clip-2"></g>
                    <path d="M7.26373636,5.20053846 C7.26373636,4.62438462 7.17946364,4.10976923 7.01255455,3.65515385 C6.84564545,3.20130769 6.60837273,2.81746154 6.30237273,2.50284615 C5.99555455,2.189 5.6241,1.94823077 5.18800909,1.78284615 C4.75191818,1.61746154 4.26673636,1.53361538 3.73246364,1.53361538 L1.35728182,1.53361538 L1.35728182,8.86130769 L3.73246364,8.86130769 C4.26673636,8.86130769 4.75191818,8.77746154 5.18800909,8.61207692 C5.6241,8.44669231 5.99555455,8.20669231 6.30237273,7.89515385 C6.60837273,7.58361538 6.84564545,7.20053846 7.01255455,6.74592308 C7.17946364,6.29207692 7.26373636,5.77669231 7.26373636,5.20053846 M8.64891818,5.20053846 C8.64891818,5.90361538 8.5311,6.54284615 8.29464545,7.119 C8.05737273,7.69515385 7.72355455,8.189 7.29073636,8.599 C6.85955455,9.009 6.34164545,9.32669231 5.73864545,9.55130769 C5.13400909,9.77592308 4.46637273,9.889 3.73246364,9.889 L-8.18181818e-05,9.889 L-8.18181818e-05,0.505923077 L3.73246364,0.505923077 C4.46637273,0.505923077 5.13400909,0.618230769 5.73864545,0.843615385 C6.34164545,1.06823077 6.85955455,1.38669231 7.29073636,1.799 C7.72355455,2.21130769 8.05737273,2.70592308 8.29464545,3.28207692 C8.5311,3.85823077 8.64891818,4.49823077 8.64891818,5.20053846" id="Fill-1" fill="#000000" mask="url(#mask-2)"></path>
                </g>
                <path d="M21.0180665,6.00641952 C21.0180665,5.40539239 20.9417382,4.86615311 20.7890817,4.38709677 C20.6356769,3.90964532 20.4194135,3.5060183 20.1395432,3.17541326 C19.8589246,2.84561066 19.519189,2.59123736 19.1203364,2.41309581 C18.7214838,2.23655914 18.2754873,2.14748836 17.7830952,2.14748836 C17.2936963,2.14748836 16.8506931,2.23655914 16.4510922,2.41309581 C16.0522396,2.59123736 15.7110074,2.84561066 15.4288921,3.17541326 C15.1460286,3.5060183 14.9290169,3.90964532 14.775612,4.38709677 C14.6229555,4.86615311 14.5473755,5.40539239 14.5473755,6.00641952 C14.5473755,6.60744664 14.6229555,7.14588349 14.775612,7.6225325 C14.9290169,8.09757663 15.1460286,8.50040122 15.4288921,8.83100626 C15.7110074,9.1616113 16.0522396,9.41357727 16.4510922,9.58931151 C16.8506931,9.76504574 17.2936963,9.8517092 17.7830952,9.8517092 C18.2754873,9.8517092 18.7214838,9.76504574 19.1203364,9.58931151 C19.519189,9.41357727 19.8589246,9.1616113 20.1395432,8.83100626 C20.4194135,8.50040122 20.6356769,8.09757663 20.7890817,7.6225325 C20.9417382,7.14588349 21.0180665,6.60744664 21.0180665,6.00641952 M22.2857143,6.00641952 C22.2857143,6.73984914 22.1779567,7.41229337 21.960945,8.02535709 C21.7446816,8.63681592 21.4386202,9.16482106 21.0435092,9.60616273 C20.6491466,10.0475044 20.1739657,10.3909485 19.6202117,10.6340876 C19.0664576,10.8772268 18.4535866,11 17.7830952,11 C17.1111072,11 16.5004811,10.8772268 15.9482236,10.6340876 C15.3959662,10.3909485 14.922282,10.0475044 14.5279193,9.60616273 C14.1328083,9.16482106 13.8274953,8.63681592 13.6104836,8.02535709 C13.3942201,7.41229337 13.2857143,6.73984914 13.2857143,6.00641952 C13.2857143,5.27379233 13.3942201,4.60054566 13.6104836,3.98828438 C13.8274953,3.37602311 14.1328083,2.84721554 14.5279193,2.40346654 C14.922282,1.95971754 15.3959662,1.61466859 15.9482236,1.36912213 C16.5004811,1.12277323 17.1111072,1 17.7830952,1 C18.4535866,1 19.0664576,1.12277323 19.6202117,1.36912213 C20.1739657,1.61466859 20.6491466,1.95971754 21.0435092,2.40346654 C21.4386202,2.84721554 21.7446816,3.37602311 21.960945,3.98828438 C22.1779567,4.60054566 22.2857143,5.27379233 22.2857143,6.00641952" id="Fill-4" fill="#000000"></path>
                <path d="M28.5616184,5.84299418 L29.9043076,5.84299418 C30.2778376,5.84299418 30.6078798,5.79462163 30.8921043,5.69951627 C31.1755523,5.60441092 31.4139592,5.46913175 31.605772,5.29531852 C31.7975847,5.12068541 31.9420267,4.91243748 32.0390979,4.66975486 C32.1361691,4.4278921 32.1843165,4.16061327 32.1843165,3.86791834 C32.1843165,3.27187013 31.9979397,2.8233992 31.6251862,2.52086579 C31.2532093,2.21833238 30.6987385,2.06747561 29.9633269,2.06747561 L28.5616184,2.06747561 L28.5616184,5.84299418 Z M28.5616184,6.82684267 L28.5616184,11 L27.2857143,11 L27.2857143,1 L29.9633269,1 C30.5620622,1 31.0800342,1.06395015 31.5164664,1.19103058 C31.9528987,1.31893088 32.313227,1.50422235 32.596675,1.7460851 C32.8808996,1.98876773 33.0921265,2.27982291 33.2288028,2.62171026 C33.3654791,2.96359761 33.4330407,3.34647864 33.4330407,3.77035337 C33.4330407,4.12371895 33.3802339,4.45412806 33.2746204,4.76158072 C33.1690069,5.0682135 33.0152461,5.34451095 32.8156677,5.58801345 C32.6153127,5.83233582 32.3699166,6.04058375 32.0818092,6.21275724 C31.7929253,6.38493072 31.4652128,6.51447077 31.100225,6.60383701 C31.2586453,6.70140198 31.3992044,6.84324014 31.522679,7.02853161 L34.2857143,11 L33.1488161,11 C32.9150686,11 32.7442233,10.9048946 32.6331738,10.7138641 L30.1745539,7.14085431 C30.0992266,7.02853161 30.0184633,6.94900385 29.9299344,6.89981143 C29.8414054,6.850619 29.7101651,6.82684267 29.5331072,6.82684267 L28.5616184,6.82684267 Z" id="Fill-6" fill="#000000"></path>
                <mask id="mask-4" fill="white">
                    <use xlink:href="#path-3"></use>
                </mask>
                <g id="Clip-9"></g>
                <polygon id="Fill-8" fill="#000000" mask="url(#mask-4)" points="39.2857143 11 40.2857143 11 40.2857143 1 39.2857143 1"></polygon>
                <path d="M46.9933514,7.28761171 L50.5788645,7.28761171 L49.0711224,3.21857834 C48.9727058,2.96769697 48.8766512,2.65368533 48.7821713,2.27736329 C48.7333567,2.46757399 48.684542,2.64302697 48.6380894,2.80372223 C48.5908494,2.96441748 48.5459715,3.10461589 48.5010935,3.2259572 L46.9933514,7.28761171 Z M53.2857143,11 L52.2810778,11 C52.1637652,11 52.0700726,10.9696647 51.9984253,10.9098139 C51.9275654,10.8491432 51.8740268,10.7720751 51.8378095,10.6794294 L50.9402502,8.26408133 L46.6311784,8.26408133 L45.7328318,10.6794294 C45.7013385,10.7630565 45.6477998,10.837665 45.5722159,10.902435 C45.496632,10.9672051 45.402152,11 45.2911381,11 L44.2857143,11 L48.1255358,1 L49.4458927,1 L53.2857143,11 Z" id="Fill-10" fill="#000000" mask="url(#mask-4)"></path>
                <path d="M59.2393085,1.04508936 C59.2959256,1.0754222 59.3614397,1.13690769 59.435042,1.23036563 L65.1501365,8.76684702 C65.1355778,8.64551566 65.1266808,8.52828333 65.1218279,8.41433022 C65.1177838,8.30037711 65.1153574,8.18970323 65.1153574,8.08312838 L65.1153574,1 L66.2857143,1 L66.2857143,11 L65.6111617,11 C65.5052068,11 65.4170458,10.9811444 65.34587,10.9434333 C65.2746942,10.9065421 65.2043272,10.843417 65.1355778,10.7556977 L59.4285714,3.22577472 C59.4374684,3.34218724 59.4447478,3.45614035 59.4496006,3.56763404 C59.4536447,3.67994753 59.4560712,3.78242335 59.4560712,3.87506149 L59.4560712,11 L58.2857143,11 L58.2857143,1 L58.9740168,1 C59.0929127,1 59.1818825,1.01557632 59.2393085,1.04508936" id="Fill-11" fill="#000000" mask="url(#mask-4)"></path>
                <polygon id="Fill-12" fill="#000000" mask="url(#mask-4)" points="77.2857143 1 77.2857143 2.10273018 72.6108873 2.10273018 72.6108873 5.4240387 76.3956132 5.4240387 76.3956132 6.48495532 72.6108873 6.48495532 72.6108873 9.89808969 77.2857143 9.89808969 77.2857143 11 71.2857143 11 71.2857143 1"></polygon>
                <path d="M88.6301768,6.44269552 L88.6301768,9.92523364 L90.7791996,9.92523364 C91.1619358,9.92523364 91.4917403,9.88096409 91.7669846,9.79242499 C92.0406003,9.70470569 92.267799,9.57927529 92.4461377,9.41941302 C92.6228478,9.25873094 92.7539553,9.06771602 92.8370172,8.84718806 C92.9208934,8.6258403 92.9616101,8.38235776 92.9616101,8.11756026 C92.9616101,7.60108214 92.7808283,7.19281849 92.4176361,6.89358911 C92.0552583,6.59353992 91.5063983,6.44269552 90.7718706,6.44269552 L88.6301768,6.44269552 Z M88.6301768,5.47942286 L90.4046068,5.47942286 C90.7832713,5.47942286 91.1114472,5.43761272 91.3891345,5.35481226 C91.6660074,5.27037219 91.8956491,5.15477947 92.0780596,5.00557468 C92.26047,4.8563699 92.3956491,4.67683227 92.483597,4.46450238 C92.5715449,4.25299229 92.6155188,4.02180685 92.6155188,3.77012625 C92.6155188,3.18396458 92.4396231,2.75356616 92.0886459,2.47975078 C91.7368544,2.20511559 91.1920661,2.0673881 90.4526524,2.0673881 L88.6301768,2.0673881 L88.6301768,5.47942286 Z M87.2857143,11 L87.2857143,1 L90.4526524,1 C91.0625872,1 91.5886459,1.06066568 92.030014,1.18117724 C92.471382,1.3016888 92.8337599,1.47384817 93.1179618,1.69765535 C93.4021638,1.92064273 93.6122615,2.19445811 93.748255,2.51746188 C93.8850628,2.84046565 93.9534667,3.20527955 93.9534667,3.61026398 C93.9534667,3.85702574 93.9151931,4.09394983 93.8386459,4.32185604 C93.762913,4.54894245 93.6472778,4.76127234 93.4925547,4.9572061 C93.3370172,5.15232005 93.1432061,5.32693884 92.9103071,5.47942286 C92.6765938,5.63354648 92.4029781,5.75897688 92.0886459,5.85653386 C92.8142159,6.00081981 93.3622615,6.2639777 93.7319684,6.64518774 C94.1008609,7.02721758 94.2857143,7.52893917 94.2857143,8.15281194 C94.2857143,8.57665191 94.2091671,8.96196098 94.0536296,9.31119856 C93.8989065,9.65961633 93.6725221,9.95966552 93.3744765,10.2113461 C93.0764309,10.4622069 92.7116101,10.6573209 92.2791996,10.7942286 C91.8467892,10.9311363 91.3541182,11 90.7995579,11 L87.2857143,11 Z" id="Fill-13" fill="#000000" mask="url(#mask-4)"></path>
                <path d="M100.561618,5.84299418 L101.904308,5.84299418 C102.277838,5.84299418 102.60788,5.79462163 102.892104,5.69951627 C103.175552,5.60441092 103.413959,5.46913175 103.605772,5.29531852 C103.797585,5.12068541 103.942027,4.91243748 104.039098,4.66975486 C104.136169,4.4278921 104.184316,4.16061327 104.184316,3.86791834 C104.184316,3.27187013 103.99794,2.8233992 103.625186,2.52086579 C103.253209,2.21833238 102.698738,2.06747561 101.963327,2.06747561 L100.561618,2.06747561 L100.561618,5.84299418 Z M100.561618,6.82684267 L100.561618,11 L99.2857143,11 L99.2857143,1 L101.963327,1 C102.562062,1 103.080034,1.06395015 103.516466,1.19103058 C103.952899,1.31893088 104.313227,1.50422235 104.596675,1.7460851 C104.8809,1.98876773 105.092127,2.27982291 105.228803,2.62171026 C105.365479,2.96359761 105.433041,3.34647864 105.433041,3.77035337 C105.433041,4.12371895 105.380234,4.45412806 105.27462,4.76158072 C105.169007,5.0682135 105.015246,5.34451095 104.815668,5.58801345 C104.615313,5.83233582 104.369917,6.04058375 104.081809,6.21275724 C103.792925,6.38493072 103.465213,6.51447077 103.100225,6.60383701 C103.258645,6.70140198 103.399204,6.84324014 103.522679,7.02853161 L106.285714,11 L105.148816,11 C104.915069,11 104.744223,10.9048946 104.633174,10.7138641 L102.174554,7.14085431 C102.099227,7.02853161 102.018463,6.94900385 101.929934,6.89981143 C101.841405,6.850619 101.710165,6.82684267 101.533107,6.82684267 L100.561618,6.82684267 Z" id="Fill-14" fill="#000000" mask="url(#mask-4)"></path>
                <path d="M118.018066,6.00641952 C118.018066,5.40539239 117.941738,4.86615311 117.789082,4.38709677 C117.635677,3.90964532 117.419413,3.5060183 117.139543,3.17541326 C116.858925,2.84561066 116.519189,2.59123736 116.120336,2.41309581 C115.721484,2.23655914 115.275487,2.14748836 114.783095,2.14748836 C114.293696,2.14748836 113.850693,2.23655914 113.451092,2.41309581 C113.05224,2.59123736 112.711007,2.84561066 112.428892,3.17541326 C112.146029,3.5060183 111.929017,3.90964532 111.775612,4.38709677 C111.622955,4.86615311 111.547376,5.40539239 111.547376,6.00641952 C111.547376,6.60744664 111.622955,7.14588349 111.775612,7.6225325 C111.929017,8.09757663 112.146029,8.50040122 112.428892,8.83100626 C112.711007,9.1616113 113.05224,9.41357727 113.451092,9.58931151 C113.850693,9.76504574 114.293696,9.8517092 114.783095,9.8517092 C115.275487,9.8517092 115.721484,9.76504574 116.120336,9.58931151 C116.519189,9.41357727 116.858925,9.1616113 117.139543,8.83100626 C117.419413,8.50040122 117.635677,8.09757663 117.789082,7.6225325 C117.941738,7.14588349 118.018066,6.60744664 118.018066,6.00641952 M119.285714,6.00641952 C119.285714,6.73984914 119.177957,7.41229337 118.960945,8.02535709 C118.744682,8.63681592 118.43862,9.16482106 118.043509,9.60616273 C117.649147,10.0475044 117.173966,10.3909485 116.620212,10.6340876 C116.066458,10.8772268 115.453587,11 114.783095,11 C114.111107,11 113.500481,10.8772268 112.948224,10.6340876 C112.395966,10.3909485 111.922282,10.0475044 111.527919,9.60616273 C111.132808,9.16482106 110.827495,8.63681592 110.610484,8.02535709 C110.39422,7.41229337 110.285714,6.73984914 110.285714,6.00641952 C110.285714,5.27379233 110.39422,4.60054566 110.610484,3.98828438 C110.827495,3.37602311 111.132808,2.84721554 111.527919,2.40346654 C111.922282,1.95971754 112.395966,1.61466859 112.948224,1.36912213 C113.500481,1.12277323 114.111107,1 114.783095,1 C115.453587,1 116.066458,1.12277323 116.620212,1.36912213 C117.173966,1.61466859 117.649147,1.95971754 118.043509,2.40346654 C118.43862,2.84721554 118.744682,3.37602311 118.960945,3.98828438 C119.177957,4.60054566 119.285714,5.27379233 119.285714,6.00641952" id="Fill-15" fill="#000000" mask="url(#mask-4)"></path>
                <path d="M128.289009,9.82109869 C128.704989,9.82109869 129.076489,9.75222816 129.403507,9.61367688 C129.730525,9.47593583 130.007296,9.28309836 130.23382,9.03435424 C130.461167,8.78642035 130.634149,8.48906174 130.752765,8.14551936 C130.872205,7.80035651 130.932337,7.42035327 130.932337,7.00713012 L130.932337,1 L132.285714,1 L132.285714,7.00713012 C132.285714,7.57672987 132.192634,8.10581753 132.00812,8.59277265 C131.823606,9.080538 131.560014,9.50186356 131.216522,9.85918004 C130.872205,10.214876 130.45293,10.4944093 129.957049,10.6969697 C129.461991,10.8987198 128.905978,11 128.289009,11 C127.67204,11 127.115204,10.8987198 126.620146,10.6969697 C126.124265,10.4944093 125.703342,10.214876 125.357378,9.85918004 C125.011414,9.50186356 124.746176,9.080538 124.562485,8.59277265 C124.377148,8.10581753 124.285714,7.57672987 124.285714,7.00713012 L124.285714,1 L125.638268,1 L125.638268,7.00064819 C125.638268,7.41387133 125.697576,7.79306433 125.817016,8.13822719 C125.936456,8.48339005 126.109438,8.77993842 126.335961,9.02787231 C126.562485,9.27580619 126.840904,9.47026414 127.170393,9.61043591 C127.499882,9.75060768 127.872205,9.82109869 128.289009,9.82109869" id="Fill-16" fill="#000000" mask="url(#mask-4)"></path>
                <path d="M141.775028,2.638332 C141.736328,2.70649559 141.69611,2.75781877 141.652857,2.7914996 C141.609605,2.82598236 141.553452,2.8436247 141.484399,2.8436247 C141.411552,2.8436247 141.326564,2.80433039 141.229435,2.7265437 C141.132306,2.65036087 141.009377,2.56455493 140.861407,2.47153168 C140.712678,2.37850842 140.533596,2.29270249 140.325679,2.21571772 C140.116244,2.13793103 139.862798,2.09943865 139.566099,2.09943865 C139.286853,2.09943865 139.038718,2.13873296 138.823213,2.21892542 C138.607707,2.29831596 138.428626,2.40657578 138.283691,2.54290297 C138.139515,2.67923015 138.031003,2.83961508 137.958156,3.02405774 C137.884551,3.2085004 137.848127,3.40737771 137.848127,3.62149158 C137.848127,3.89414595 137.911868,4.12109062 138.038591,4.30072173 C138.165315,4.48035285 138.333773,4.63352045 138.542449,4.76102646 C138.751884,4.8893344 138.987877,4.99919808 139.253464,5.09302326 C139.517534,5.18604651 139.789192,5.28227747 140.066921,5.38251804 C140.344649,5.48275862 140.616307,5.59582999 140.880377,5.72012831 C141.145206,5.84522855 141.381958,6.0032077 141.591393,6.19486768 C141.800069,6.38572574 141.967768,6.62068966 142.09525,6.89815557 C142.221973,7.17562149 142.285714,7.51643945 142.285714,7.92141139 C142.285714,8.34963913 142.216662,8.75060144 142.078556,9.12670409 C141.941209,9.50200481 141.739363,9.82838813 141.474534,10.106656 C141.210465,10.38332 140.88493,10.6022454 140.499449,10.7610265 C140.114727,10.9206095 139.676128,11 139.18517,11 C138.58646,11 138.040868,10.8853248 137.548393,10.6551724 C137.0544,10.425822 136.634013,10.1146752 136.285714,9.72413793 L136.646913,9.09623095 C136.68106,9.0457097 136.723554,9.0032077 136.772878,8.96952686 C136.822201,8.93584603 136.876836,8.91820369 136.937542,8.91820369 C137.027842,8.91820369 137.131041,8.96952686 137.247141,9.07137129 C137.363999,9.17401764 137.508934,9.28708901 137.683463,9.40978348 C137.857992,9.53247795 138.068944,9.64474739 138.31632,9.74739374 C138.564455,9.8500401 138.866466,9.90136327 139.22387,9.90136327 C139.520569,9.90136327 139.786157,9.85805934 140.018356,9.77225341 C140.250556,9.68484362 140.447849,9.56375301 140.609478,9.40577386 C140.771107,9.24939856 140.894795,9.0617482 140.980542,8.84282277 C141.066288,8.62469928 141.1103,8.38091419 141.1103,8.11307137 C141.1103,7.81716119 141.046559,7.57417803 140.919077,7.38572574 C140.792354,7.19727346 140.625413,7.03849238 140.419014,6.91098637 C140.211856,6.78428228 139.976621,6.67602245 139.711034,6.58700882 C139.446964,6.49799519 139.175306,6.40737771 138.897577,6.31435445 C138.619849,6.22133119 138.348191,6.11307137 138.084121,5.9903769 C137.819292,5.86688051 137.583299,5.70809944 137.376899,5.51242983 C137.1705,5.31676022 137.0028,5.07137129 136.876077,4.77866881 C136.749354,4.48516439 136.685613,4.12269447 136.685613,3.68965517 C136.685613,3.34402566 136.749354,3.0096231 136.876077,2.68644747 C137.0028,2.36327185 137.187194,2.07698476 137.42774,1.82598236 C137.669804,1.57578188 137.967262,1.37610265 138.322391,1.22534082 C138.678278,1.07538091 139.085765,1 139.546369,1 C140.063886,1 140.535114,1.08660786 140.961571,1.25902165 C141.38727,1.43223737 141.759851,1.68323978 142.078556,2.01042502 L141.775028,2.638332 Z" id="Fill-17" fill="#000000" mask="url(#mask-4)"></path>
                <path d="M152.775028,2.638332 C152.736328,2.70649559 152.69611,2.75781877 152.652857,2.7914996 C152.609605,2.82598236 152.553452,2.8436247 152.484399,2.8436247 C152.411552,2.8436247 152.326564,2.80433039 152.229435,2.7265437 C152.132306,2.65036087 152.009377,2.56455493 151.861407,2.47153168 C151.712678,2.37850842 151.533596,2.29270249 151.325679,2.21571772 C151.116244,2.13793103 150.862798,2.09943865 150.566099,2.09943865 C150.286853,2.09943865 150.038718,2.13873296 149.823213,2.21892542 C149.607707,2.29831596 149.428626,2.40657578 149.283691,2.54290297 C149.139515,2.67923015 149.031003,2.83961508 148.958156,3.02405774 C148.884551,3.2085004 148.848127,3.40737771 148.848127,3.62149158 C148.848127,3.89414595 148.911868,4.12109062 149.038591,4.30072173 C149.165315,4.48035285 149.333773,4.63352045 149.542449,4.76102646 C149.751884,4.8893344 149.987877,4.99919808 150.253464,5.09302326 C150.517534,5.18604651 150.789192,5.28227747 151.066921,5.38251804 C151.344649,5.48275862 151.616307,5.59582999 151.880377,5.72012831 C152.145206,5.84522855 152.381958,6.0032077 152.591393,6.19486768 C152.800069,6.38572574 152.967768,6.62068966 153.09525,6.89815557 C153.221973,7.17562149 153.285714,7.51643945 153.285714,7.92141139 C153.285714,8.34963913 153.216662,8.75060144 153.078556,9.12670409 C152.941209,9.50200481 152.739363,9.82838813 152.474534,10.106656 C152.210465,10.38332 151.88493,10.6022454 151.499449,10.7610265 C151.114727,10.9206095 150.676128,11 150.18517,11 C149.58646,11 149.040868,10.8853248 148.548393,10.6551724 C148.0544,10.425822 147.634013,10.1146752 147.285714,9.72413793 L147.646913,9.09623095 C147.68106,9.0457097 147.723554,9.0032077 147.772878,8.96952686 C147.822201,8.93584603 147.876836,8.91820369 147.937542,8.91820369 C148.027842,8.91820369 148.131041,8.96952686 148.247141,9.07137129 C148.363999,9.17401764 148.508934,9.28708901 148.683463,9.40978348 C148.857992,9.53247795 149.068944,9.64474739 149.31632,9.74739374 C149.564455,9.8500401 149.866466,9.90136327 150.22387,9.90136327 C150.520569,9.90136327 150.786157,9.85805934 151.018356,9.77225341 C151.250556,9.68484362 151.447849,9.56375301 151.609478,9.40577386 C151.771107,9.24939856 151.894795,9.0617482 151.980542,8.84282277 C152.066288,8.62469928 152.1103,8.38091419 152.1103,8.11307137 C152.1103,7.81716119 152.046559,7.57417803 151.919077,7.38572574 C151.792354,7.19727346 151.625413,7.03849238 151.419014,6.91098637 C151.211856,6.78428228 150.976621,6.67602245 150.711034,6.58700882 C150.446964,6.49799519 150.175306,6.40737771 149.897577,6.31435445 C149.619849,6.22133119 149.348191,6.11307137 149.084121,5.9903769 C148.819292,5.86688051 148.583299,5.70809944 148.376899,5.51242983 C148.1705,5.31676022 148.0028,5.07137129 147.876077,4.77866881 C147.749354,4.48516439 147.685613,4.12269447 147.685613,3.68965517 C147.685613,3.34402566 147.749354,3.0096231 147.876077,2.68644747 C148.0028,2.36327185 148.187194,2.07698476 148.42774,1.82598236 C148.669804,1.57578188 148.967262,1.37610265 149.322391,1.22534082 C149.678278,1.07538091 150.085765,1 150.546369,1 C151.063886,1 151.535114,1.08660786 151.961571,1.25902165 C152.38727,1.43223737 152.759851,1.68323978 153.078556,2.01042502 L152.775028,2.638332 Z" id="Fill-18" fill="#000000" mask="url(#mask-4)"></path>
                <polygon id="Fill-19" fill="#000000" mask="url(#mask-4)" points="163.285714 1 163.285714 2.10273018 158.610887 2.10273018 158.610887 5.4240387 162.395613 5.4240387 162.395613 6.48495532 158.610887 6.48495532 158.610887 9.89808969 163.285714 9.89808969 163.285714 11 157.285714 11 157.285714 1"></polygon>
                <path d="M169.993351,7.28761171 L173.578864,7.28761171 L172.071122,3.21857834 C171.972706,2.96769697 171.876651,2.65368533 171.782171,2.27736329 C171.733357,2.46757399 171.684542,2.64302697 171.638089,2.80372223 C171.590849,2.96441748 171.545971,3.10461589 171.501094,3.2259572 L169.993351,7.28761171 Z M176.285714,11 L175.281078,11 C175.163765,11 175.070073,10.9696647 174.998425,10.9098139 C174.927565,10.8491432 174.874027,10.7720751 174.837809,10.6794294 L173.94025,8.26408133 L169.631178,8.26408133 L168.732832,10.6794294 C168.701338,10.7630565 168.6478,10.837665 168.572216,10.902435 C168.496632,10.9672051 168.402152,11 168.291138,11 L167.285714,11 L171.125536,1 L172.445893,1 L176.285714,11 Z" id="Fill-20" fill="#000000" mask="url(#mask-4)"></path>
                <path d="M184.289009,9.82109869 C184.704989,9.82109869 185.076489,9.75222816 185.403507,9.61367688 C185.730525,9.47593583 186.007296,9.28309836 186.23382,9.03435424 C186.461167,8.78642035 186.634149,8.48906174 186.752765,8.14551936 C186.872205,7.80035651 186.932337,7.42035327 186.932337,7.00713012 L186.932337,1 L188.285714,1 L188.285714,7.00713012 C188.285714,7.57672987 188.192634,8.10581753 188.00812,8.59277265 C187.823606,9.080538 187.560014,9.50186356 187.216522,9.85918004 C186.872205,10.214876 186.45293,10.4944093 185.957049,10.6969697 C185.461991,10.8987198 184.905978,11 184.289009,11 C183.67204,11 183.115204,10.8987198 182.620146,10.6969697 C182.124265,10.4944093 181.703342,10.214876 181.357378,9.85918004 C181.011414,9.50186356 180.746176,9.080538 180.562485,8.59277265 C180.377148,8.10581753 180.285714,7.57672987 180.285714,7.00713012 L180.285714,1 L181.638268,1 L181.638268,7.00064819 C181.638268,7.41387133 181.697576,7.79306433 181.817016,8.13822719 C181.936456,8.48339005 182.109438,8.77993842 182.335961,9.02787231 C182.562485,9.27580619 182.840904,9.47026414 183.170393,9.61043591 C183.499882,9.75060768 183.872205,9.82109869 184.289009,9.82109869" id="Fill-21" fill="#000000" mask="url(#mask-4)"></path>
            </g>
        </g>
    </g>
</svg>