<?xml version="1.0" encoding="UTF-8" standalone="no"?>
<!DOCTYPE svg PUBLIC "-//W3C//DTD SVG 1.1//EN" "http://www.w3.org/Graphics/SVG/1.1/DTD/svg11.dtd">
<svg width="100%" height="100%" viewBox="0 0 128 102" version="1.1" xmlns="http://www.w3.org/2000/svg" xmlns:xlink="http://www.w3.org/1999/xlink" xml:space="preserve" xmlns:serif="http://www.serif.com/" style="fill-rule:evenodd;clip-rule:evenodd;stroke-linejoin:round;stroke-miterlimit:2;">
    <g transform="matrix(1,0,0,1,-2027,-1302)">
        <path d="M2128.09,1403.57L2049.36,1403.57C2037.33,1403.57 2027.54,1394.1 2027.54,1382.45L2027.54,1338.18C2027.54,1326.54 2037.33,1317.06 2049.36,1317.06L2092.18,1317.06C2094.41,1317.06 2096.21,1318.81 2096.21,1320.96C2096.21,1323.12 2094.41,1324.87 2092.18,1324.87L2049.36,1324.87C2041.78,1324.87 2035.61,1330.84 2035.61,1338.18L2035.61,1382.45C2035.61,1389.79 2041.78,1395.76 2049.36,1395.76L2128.09,1395.76C2135.67,1395.76 2141.84,1389.79 2141.84,1382.45L2141.84,1345.75C2141.84,1343.59 2143.65,1341.85 2145.88,1341.85C2148.11,1341.85 2149.91,1343.59 2149.91,1345.75L2149.91,1382.45C2149.92,1394.1 2140.12,1403.57 2128.09,1403.57ZM2089.82,1386.47C2075.02,1386.47 2062.97,1374.81 2062.97,1360.49C2062.97,1346.16 2075.02,1334.5 2089.82,1334.5C2104.63,1334.5 2116.68,1346.15 2116.68,1360.49C2116.68,1374.82 2104.63,1386.47 2089.82,1386.47ZM2089.82,1342.31C2079.47,1342.31 2071.05,1350.46 2071.05,1360.49C2071.05,1370.51 2079.47,1378.66 2089.82,1378.66C2100.18,1378.66 2108.61,1370.51 2108.61,1360.49C2108.61,1350.46 2100.18,1342.31 2089.82,1342.31ZM2127.68,1302.01C2127.97,1302.01 2128.26,1302.04 2128.53,1302.09C2130.29,1302.44 2131.57,1303.87 2131.73,1305.55C2133.3,1315.38 2140.92,1322.7 2151.2,1324.2C2153.25,1324.5 2154.71,1326.25 2154.63,1328.21C2154.7,1330.17 2153.23,1331.9 2151.18,1332.19C2140.97,1333.63 2133.35,1340.96 2131.72,1350.9C2131.53,1352.62 2130.17,1354.07 2128.31,1354.34C2128.2,1354.36 2128.09,1354.37 2127.98,1354.38L2127.95,1354.38L2127.93,1354.38C2127.86,1354.38 2127.79,1354.38 2127.72,1354.38L2127.71,1354.38C2127.35,1354.38 2126.99,1354.34 2126.66,1354.25L2126.64,1354.24L2126.63,1354.24C2125.03,1353.81 2123.88,1352.48 2123.7,1350.92C2122.08,1340.97 2114.46,1333.63 2104.25,1332.19C2102.19,1331.9 2100.73,1330.17 2100.79,1328.21C2100.71,1326.25 2102.17,1324.51 2104.22,1324.2C2114.51,1322.7 2122.12,1315.39 2123.69,1305.55C2123.85,1303.86 2125.15,1302.42 2126.93,1302.08C2127.16,1302.04 2127.4,1302.01 2127.64,1302.01L2127.68,1302.01ZM2127.71,1317.62C2125.04,1322.02 2121.26,1325.64 2116.66,1328.19C2121.25,1330.73 2125.03,1334.38 2127.71,1338.81C2130.38,1334.38 2134.17,1330.73 2138.76,1328.18C2134.16,1325.64 2130.38,1322.02 2127.71,1317.62Z" style="fill-rule:nonzero;"/>
    </g>
</svg>
