<?xml version="1.0" encoding="UTF-8" standalone="no"?>
<!DOCTYPE svg PUBLIC "-//W3C//DTD SVG 1.1//EN" "http://www.w3.org/Graphics/SVG/1.1/DTD/svg11.dtd">
<svg width="100%" height="100%" viewBox="0 0 84 88" version="1.1" xmlns="http://www.w3.org/2000/svg" xmlns:xlink="http://www.w3.org/1999/xlink" xml:space="preserve" xmlns:serif="http://www.serif.com/" style="fill-rule:evenodd;clip-rule:evenodd;stroke-linejoin:round;stroke-miterlimit:2;">
    <g transform="matrix(1,0,0,1,-1709,-1056)">
        <g>
            <g transform="matrix(4.16667,0,0,4.16667,1709.15,1052.02)">
                <path d="M0.004,21.969L0.004,21.643C0.004,21.108 0.007,20.573 0.001,20.039C0,19.926 0.032,19.87 0.167,19.845C1.312,19.627 2.465,19.454 3.634,19.38C3.726,19.374 3.816,19.355 3.914,19.341L3.914,3.673C3.708,3.653 3.499,3.639 3.293,3.611C2.262,3.469 1.232,3.321 0.201,3.181C0.045,3.16 -0.002,3.099 -0,2.959C0.008,2.335 0.004,1.711 0.004,1.075C2.687,1.05 5.361,1.025 8.056,1L8.056,19.347C9.386,19.454 10.691,19.604 11.985,19.887C11.833,20.564 11.688,21.219 11.534,21.873C11.525,21.911 11.448,21.945 11.395,21.965C11.355,21.98 11.303,21.969 11.256,21.969C7.596,21.969 3.936,21.969 0.277,21.969L0.004,21.969Z"/>
            </g>
            <g transform="matrix(4.16667,0,0,4.16667,1709.15,1018.57)">
                <path d="M12.012,22C12.008,21.913 12.004,21.868 12.004,21.823C12.004,21.068 12.006,20.313 12.001,19.557C12.001,19.431 12.03,19.386 12.171,19.374C12.934,19.313 13.676,19.165 14.359,18.803C15.365,18.269 15.926,17.424 16.124,16.335C16.249,15.642 16.259,14.946 16.074,14.26C15.759,13.092 14.968,12.368 13.834,11.973C13.298,11.786 12.74,11.704 12.176,11.669C12.04,11.66 12,11.622 12.001,11.49C12.007,10.724 12.008,9.957 12,9.191C11.998,9.035 12.055,8.998 12.199,9C13.025,9.013 13.846,9.072 14.656,9.23C15.543,9.403 16.396,9.674 17.182,10.12C18.753,11.011 19.683,12.335 19.924,14.108C20.129,15.609 19.929,17.051 19.181,18.39C18.39,19.806 17.159,20.723 15.651,21.305C14.684,21.678 13.678,21.882 12.643,21.957C12.439,21.972 12.234,21.985 12.012,22Z"/>
            </g>
        </g>
    </g>
</svg>
