<?xml version="1.0" encoding="UTF-8" standalone="no"?>
<!DOCTYPE svg PUBLIC "-//W3C//DTD SVG 1.1//EN" "http://www.w3.org/Graphics/SVG/1.1/DTD/svg11.dtd">
<svg width="100%" height="100%" viewBox="0 0 120 121" version="1.1" xmlns="http://www.w3.org/2000/svg" xmlns:xlink="http://www.w3.org/1999/xlink" xml:space="preserve" xmlns:serif="http://www.serif.com/" style="fill-rule:evenodd;clip-rule:evenodd;stroke-linejoin:round;stroke-miterlimit:2;">
    <g transform="matrix(1,0,0,1,-1913,-1984)">
        <g transform="matrix(1,0,0,1,586.714,-1.79278)">
            <g transform="matrix(1,0,0,1,-10.6442,8.28085)">
                <g transform="matrix(0.675636,0,0,0.675636,1363.45,2004.32)">
                    <path d="M94.41,68.32L46.29,37.07C45.25,36.4 43.93,36.42 42.91,37.12C41.9,37.82 41.4,39.05 41.66,40.25L53.85,97.59C54.11,98.8 55.05,99.72 56.27,99.95C56.46,99.99 56.64,100 56.83,100C57.85,100 58.81,99.49 59.37,98.62L66.97,86.92L73.72,96.75C74.19,97.44 74.94,97.91 75.78,98.04C76.61,98.16 77.47,97.94 78.12,97.41L86.47,90.75C87.72,89.76 87.98,87.96 87.08,86.65L80.18,76.66L93.38,73.85C94.58,73.59 95.51,72.64 95.73,71.43C95.97,70.21 95.45,68.99 94.41,68.32Z" style="fill-rule:nonzero;"/>
                </g>
                <g transform="matrix(0.675636,0,0,0.675636,1363.45,2004.32)">
                    <path d="M25.31,45.25C25.07,44.22 24.04,43.58 23.02,43.82L5.68,47.82C4.65,48.06 4.01,49.08 4.25,50.11C4.45,50.99 5.24,51.59 6.11,51.59C6.25,51.59 6.4,51.57 6.54,51.54L23.88,47.54C24.91,47.3 25.55,46.27 25.31,45.25Z" style="fill-rule:nonzero;"/>
                </g>
                <g transform="matrix(0.675636,0,0,0.675636,1363.45,2004.32)">
                    <path d="M64.58,36.18C64.78,37.06 65.57,37.66 66.44,37.66C66.58,37.66 66.73,37.64 66.87,37.61L84.21,33.61C85.24,33.37 85.88,32.35 85.64,31.32C85.4,30.29 84.38,29.65 83.35,29.89L66.01,33.89C64.99,34.13 64.35,35.16 64.58,36.18Z" style="fill-rule:nonzero;"/>
                </g>
                <g transform="matrix(0.675636,0,0,0.675636,1363.45,2004.32)">
                    <path d="M34.15,57.83C33.26,57.27 32.08,57.54 31.52,58.44L22.09,73.53C21.53,74.42 21.8,75.6 22.7,76.16C23.01,76.36 23.36,76.45 23.71,76.45C24.35,76.45 24.97,76.13 25.33,75.55L34.76,60.46C35.31,59.57 35.04,58.39 34.15,57.83Z" style="fill-rule:nonzero;"/>
                </g>
                <g transform="matrix(0.675636,0,0,0.675636,1363.45,2004.32)">
                    <path d="M55.51,23.65C55.82,23.85 56.17,23.94 56.52,23.94C57.16,23.94 57.78,23.62 58.14,23.04L67.57,7.95C68.13,7.06 67.86,5.88 66.96,5.32C66.07,4.76 64.89,5.03 64.33,5.93L54.9,21.03C54.34,21.92 54.62,23.09 55.51,23.65Z" style="fill-rule:nonzero;"/>
                </g>
                <g transform="matrix(0.675636,0,0,0.675636,1363.45,2004.32)">
                    <path d="M10.02,21.24L25.11,30.67C25.42,30.87 25.77,30.96 26.12,30.96C26.76,30.96 27.38,30.64 27.74,30.06C28.3,29.17 28.03,27.99 27.13,27.43L12.04,18C11.15,17.44 9.97,17.71 9.41,18.61C8.85,19.5 9.13,20.68 10.02,21.24Z" style="fill-rule:nonzero;"/>
                </g>
                <g transform="matrix(0.675636,0,0,0.675636,1363.45,2004.32)">
                    <path d="M41.72,18.82L37.72,1.48C37.48,0.45 36.45,-0.19 35.43,0.05C34.41,0.29 33.77,1.31 34,2.34L38,19.68C38.2,20.56 38.99,21.16 39.86,21.16C40,21.16 40.15,21.14 40.29,21.11C41.32,20.87 41.96,19.85 41.72,18.82Z" style="fill-rule:nonzero;"/>
                </g>
            </g>
            <g transform="matrix(1,0,0,1,281.596,-0.973446)">
                <rect x="1045.34" y="1987.72" width="119.287" height="119.287" style="fill:none;"/>
            </g>
        </g>
    </g>
</svg>
